<svg xmlns="http://www.w3.org/2000/svg" xmlns:xlink="http://www.w3.org/1999/xlink" viewBox="0 0 3500 2500"><defs><style>.cls-1{fill:none;}.cls-2{fill:#acecac;}.cls-3{fill:#6bb2e3;}.cls-4{fill:#425899;}.cls-5{fill:#a3cfff;}.cls-6{fill:#a1d3ff;}.cls-7{fill:#61b8ff;}.cls-8{fill:#123e80;}.cls-9{fill:#9eddff;}.cls-10{fill:#0d192b;}.cls-11{fill:#1e62cc;}.cls-12{fill:#1a56b3;}.cls-13{fill:#4a82db;}.cls-14{fill:#aae0ff;}.cls-15{fill:#f7a594;}.cls-16{fill:#e6836f;}.cls-17{fill:#73382a;}.cls-18{fill:#a65b4a;}.cls-19{fill:#fff;}.cls-20{fill:#1e1e1e;}.cls-21{fill:#1951a6;}.cls-22{fill:#d9f1ff;}.cls-23{fill:#f7b28a;}.cls-24{clip-path:url(#clip-path);}.cls-25{fill:#1b658f;}.cls-26{fill:#2997d6;}.cls-27{fill:#2b7eab;}.cls-28{fill:#69bff0;}.cls-29{fill:#bae7ff;}.cls-30{fill:#66a1ff;}.cls-31{fill:#adadad;}.cls-32{fill:#474747;}.cls-33{fill:#2b2b2b;}.cls-34{fill:#d9f3ff;}.cls-35{fill:#80b2ff;}.cls-36{fill:#0e0e0e;}.cls-37{fill:#ffa599;}.cls-38{fill:#dbf2ff;}.cls-39{fill:#2a518c;}.cls-40{fill:#fd5655;}.cls-41{fill:#e64847;}.cls-42{fill:#e87c5d;}.cls-43{fill:#bd4a31;}</style><clipPath id="clip-path"><path class="cls-1" d="M993.91,1121.89l13.83,124S945,1363.41,986.36,1394.08s79.46-2.32,90.62-79-30.21-217.94-66.92-245.36S840,1044.64,827,1060.44s-143.18,307-91.89,366.68,216.61,5.35,216.61,5.35l-26.79-173-72.71-51.29s-4.28-94.08-3.78-92.59,10.14-46.11,10.14-46.11c45.67-13.2,80.25-14.84,125.32,3.36Z"/></clipPath></defs><g id="room"><path class="cls-2" d="M29.67,2437.44C343,2013.59,139.54,1637.81,39.11,1135.21-207,334.72,751.24-311.45,1709.53,314c594.48,388,1149.52-4.72,1595.4,402.94,354.59,324.21,1.48,1008.34-6.18,1316.64-6,243,201.25,403.91,201.25,403.91Z"/><path id="shadow" d="M3530,2451.89H-60a6.37,6.37,0,0,1-6.37-6.37h0a6.37,6.37,0,0,1,6.37-6.37H3530a6.37,6.37,0,0,1,6.37,6.37h0A6.37,6.37,0,0,1,3530,2451.89Z"/><g id="plant"><path class="cls-3" d="M2974.66,2337.22h0a148.58,148.58,0,0,0,148.58-148.58V1986.08H2826.07v202.56A148.59,148.59,0,0,0,2974.66,2337.22Z"/><rect class="cls-4" x="3123.24" y="2139.16" width="16.47" height="314.4" transform="translate(6262.94 4592.72) rotate(180)"/><rect class="cls-4" x="2809.6" y="2139.16" width="16.47" height="314.4" transform="translate(5635.68 4592.72) rotate(180)"/><rect class="cls-4" x="2935.63" y="2139.16" width="16.47" height="314.4" transform="translate(5887.72 4592.72) rotate(180)"/><rect class="cls-4" x="2974.27" y="2188.26" width="16.47" height="314.4" transform="translate(5327.97 -637.05) rotate(90)"/><path class="cls-5" d="M2925.22,1603.46c27.76,14.77,5.83,51.07,17.2,85.48s57,33.58,39.8,95.16c-10.63,37.92-48.27,14.15-47.41,63.45s19.53,48.1,5,73.45c-25.26,44.19-111.36,19.47-112-29.87s40.63-66.13,5.73-89.08-48.85-33.39-25.89-66.21c28.43-40.61,72.51-39.38,60.18-71.09S2888.51,1583.92,2925.22,1603.46Z"/><path class="cls-4" d="M2910.55,1985l-7.23,2.07c-49.13-171.22-3.13-332.45-2.66-334l7.22,2.11C2907.42,1656.69,2862,1815.91,2910.55,1985Z"/><path class="cls-6" d="M3293.64,1567.52c20.49,36.77-30.53,61.67-42.73,108.61s42.48,60.45-21.63,117.17c-39.49,34.93-49.18,14.89-60.49,89-10,65.25-62.22,6.39-96.92,46.2-44.77,51.35-124.33-52.07-89.27-108s80-44.33,57.43-95.47-1-91.7,48.7-111.93c61.45-25,86.71,26.33,95.87-18.28S3266.54,1518.89,3293.64,1567.52Z"/><path class="cls-4" d="M3000.14,1985.88c68.24-225.46,234.83-371.43,236.51-372.87l-6.59-7.62c-1.7,1.46-170.48,149.35-239.56,377.57Z"/></g></g><g id="characters"><g id="doctor"><path class="cls-7" d="M470,1007.62c3.06,18.5,13.34,35.28,27.46,47.39s32.14,19.63,50.64,19.63H721.74c24.46,0,43.7-13.14,52.16-32.72a61,61,0,0,0,3.79-34.3c-3.05-18.5-13.34-35.28-27.41-47.39s-32.13-19.63-50.64-19.63H526a61.35,61.35,0,0,0-23.52,4.53C479.09,954.87,465.36,979.18,470,1007.62Z"/><path class="cls-8" d="M713,1142h0a9.8,9.8,0,0,0,9.33-12.81L699,1056.86a9.82,9.82,0,0,0-9.33-6.8h0a9.8,9.8,0,0,0-9.33,12.81l23.31,72.35A9.82,9.82,0,0,0,713,1142Z"/><path class="cls-8" d="M598,1142h0a9.81,9.81,0,0,0,9.33-12.81L584,1056.86a9.82,9.82,0,0,0-9.33-6.8h0a9.8,9.8,0,0,0-9.33,12.81l23.32,72.35A9.8,9.8,0,0,0,598,1142Z"/><path class="cls-9" d="M498.77,979.33c3.05,18.5,13.34,35.28,27.46,47.43s32.14,19.64,50.64,19.64H750.48a61.19,61.19,0,0,0,23.42-4.48,61,61,0,0,0,3.79-34.3c-3.05-18.5-13.34-35.28-27.41-47.39s-32.13-19.63-50.64-19.63H526a61.35,61.35,0,0,0-23.52,4.53A61.19,61.19,0,0,0,498.77,979.33Z"/><rect class="cls-10" x="1206.81" y="2345.45" width="32.72" height="60.89"/><rect class="cls-10" x="961.45" y="2345.45" width="32.72" height="60.89"/><rect class="cls-10" x="687.21" y="2345.45" width="32.72" height="60.89"/><ellipse class="cls-10" cx="711.69" cy="2406.14" rx="24.95" ry="39.45"/><ellipse class="cls-10" cx="735.87" cy="2406.14" rx="24.95" ry="39.45"/><path class="cls-10" d="M745.49,2442.4c-10.38,8.1-39.4,4.43-43.45.25l-.19-72.78c7.79-6.82,35.26-6.58,43.63-.38Z"/><ellipse class="cls-11" cx="738.22" cy="2405.07" rx="17.1" ry="27.03"/><ellipse class="cls-10" cx="736.41" cy="2405.85" rx="10.42" ry="16.47"/><ellipse class="cls-10" cx="972.87" cy="2406.14" rx="24.95" ry="39.45"/><ellipse class="cls-10" cx="948.69" cy="2406.14" rx="24.95" ry="39.45"/><path class="cls-10" d="M939.07,2442.4c10.38,8.1,39.39,4.43,43.45.25l.19-72.78c-7.79-6.82-35.26-6.58-43.63-.38Z"/><ellipse class="cls-11" cx="946.34" cy="2405.07" rx="17.1" ry="27.03"/><ellipse class="cls-10" cx="948.15" cy="2405.85" rx="10.42" ry="16.47"/><ellipse class="cls-10" cx="1222.08" cy="2406.14" rx="24.95" ry="39.45"/><ellipse class="cls-10" cx="1197.9" cy="2406.14" rx="24.95" ry="39.45"/><path class="cls-10" d="M1188.28,2442.4c10.38,8.1,39.4,4.43,43.45.25l.19-72.78c-7.79-6.82-35.26-6.58-43.63-.38Z"/><ellipse class="cls-11" cx="1195.55" cy="2405.07" rx="17.1" ry="27.03"/><ellipse class="cls-10" cx="1197.36" cy="2405.85" rx="10.42" ry="16.47"/><rect class="cls-10" x="958.79" y="1838.6" width="47.66" height="496.34"/><path class="cls-12" d="M1262.21,2351.44c.07-.41.38-.81.38-1.22,0-26.27-129.91-47.57-290.16-47.57s-290.17,21.3-290.17,47.57c0,.41.32.81.38,1.22Z"/><rect class="cls-12" x="943.03" y="1891.46" width="77.47" height="94.47" transform="translate(1963.53 3877.39) rotate(180)"/><rect class="cls-12" x="943.03" y="2223.99" width="77.47" height="94.48" transform="translate(1963.53 4542.46) rotate(180)"/><path class="cls-13" d="M837.06,1097.34v.11a28.73,28.73,0,0,0-3.07-.11Z"/><path class="cls-9" d="M469.5,1144.25a63.59,63.59,0,0,0,1.74,14.59l160.58,620.65a70.28,70.28,0,0,0,2.71,8.91,104.22,104.22,0,0,0,103.88,78.85l167.87-4.36h330.84a73.13,73.13,0,0,0,51.09-20.48,68.43,68.43,0,0,0,21.25-49.4,61.61,61.61,0,0,0-3.13-19.56c-9.26-28.31-38.34-47.66-71.16-47.66,0,0-148.78,4-192.14-37.63S901.8,1161.65,901.8,1161.65c-8.29-34.45-43.16-62.61-78.84-64.2-1.07-.1-2.15-.1-3.17-.1,0,0-224.6-2-293.46-1.69-5.22,0-9.58,0-12.85.1-3,0-4.92.11-5.58.16a.89.89,0,0,1-.21,0C484.45,1101.09,469.5,1120,469.5,1144.25Zm211.21,578.93h4.2l1.89,8.24-2.66-3.58Z"/><path class="cls-12" d="M696.5,1863.12c-.06.3-.36.6-.36.91,0,19.75,123.86,35.76,276.66,35.76s276.65-16,276.65-35.76c0-.31-.3-.61-.35-.91Z"/><path class="cls-7" d="M469.5,1144.25a63.59,63.59,0,0,0,1.74,14.59l160.58,620.65a70.28,70.28,0,0,0,2.71,8.91,104.22,104.22,0,0,0,103.88,78.85l167.87-4.36h330.84a73.13,73.13,0,0,0,51.09-20.48,68.43,68.43,0,0,0,21.25-49.4,61.61,61.61,0,0,0-3.13-19.56c-18.94,49.29-571.9,52.75-610.35-11.06-37.58-32.61-118-588-169.65-666.73-5.22,0-9.58,0-12.85.1-3,0-4.92.11-5.58.16a.89.89,0,0,1-.21,0C484.45,1101.09,469.5,1120,469.5,1144.25Z"/><path class="cls-14" d="M748.66,1175.18c51.08-38.06,226.36-67.61,338.53-15,17.83,16.87,43.47,78.15,59.49,135.73L1191,1776.57H811.76Z"/><path class="cls-15" d="M952,1197.47c-60.29,8.78-97.79-33.3-106.6-50.89l24.26-150.65,49.07,21.9a205.59,205.59,0,0,1,57.33,13.27l15.55,80.35,3.44,17.42C1002.87,1146,1012.3,1188.7,952,1197.47Z"/><path class="cls-16" d="M885.36,1034.19c2,18.64,26.48,94.17,107.9,86.32l-15.11-78.58Z"/><path class="cls-15" d="M1074.88,940.06c-2.79,24.49-9.57,78-19,100.39-14.37,34.08-58.81,61.66-87.83,57-32.73-8-72-33.05-88.1-62.08-7.54-20.36-19.8-66.64-20.19-103.45-.81-76.77,65.61-120,128.86-112.86S1083.58,863.73,1074.88,940.06Z"/><path class="cls-17" d="M864.57,984c-4.92-26.86,15.17-30,27.65-6.18,2.73-18,.7-74.29,23.51-84.78,25.94-12.35,107.94,25.53,170.12-6.14,0,0-8-86.38-134.95-81.23C801.6,828.62,864.57,984,864.57,984Z"/><ellipse class="cls-15" cx="865.84" cy="975.78" rx="22.9" ry="29.66" transform="matrix(0.95, -0.3, 0.3, 0.95, -251.2, 301.95)"/><path class="cls-18" d="M1027.07,1042.34c-4.86.9-13.42,5-21.88,9.43-12.28,6.51-24.31,13.93-24.31,13.93s-36.34-22-35.34-57.23c.49.54,1,1.06,1.5,1.58C975.27,1039.15,1027.07,1042.34,1027.07,1042.34Z"/><path class="cls-19" d="M1027.07,1042.34c-4.86.9-13.42,5-21.88,9.43-36.84-8.44-52-28.24-58.15-41.72C975.27,1039.15,1027.07,1042.34,1027.07,1042.34Z"/><path class="cls-18" d="M1025.13,1025.25a27.31,27.31,0,0,1-13.23-4.81,1.5,1.5,0,1,1,1.82-2.39c.48.37,12,8.89,22.47.82,5.74-4.43,4.24-7.4.25-15.33a100.14,100.14,0,0,1-11.51-38.17,1.5,1.5,0,0,1,3-.31,97.47,97.47,0,0,0,11.2,37.13c4.12,8.17,6.61,13.11-1.09,19.06A18.71,18.71,0,0,1,1025.13,1025.25Z"/><ellipse class="cls-20" cx="979.43" cy="950.8" rx="10.25" ry="5.65" transform="translate(-29.8 1869.92) rotate(-86.48)"/><path class="cls-20" d="M1064.06,954.85c-.31,5.15-2.87,9.18-5.71,9s-4.88-4.49-4.56-9.64,2.87-9.18,5.71-9S1064.38,949.71,1064.06,954.85Z"/><path class="cls-17" d="M1069.78,891s62.26-6.07,42.81-66.82c-19.29,19.62-38.91,10-38.91,10s22.87-28.67-14.94-70.63c-6,26.17-58,37.69-87.71,30-47.09-12.21-94.74,4.63-99.79,50.08,0,0-30.81,7.51-20.08,68.74,47.58-1.67,68.63-45.05,103.72-51.33S1019.82,898,1069.78,891Z"/><path class="cls-18" d="M1009.65,1088s-22.21,5.22-34.43,4.93c-16.12-.39-41.61-9.3-41.61-9.3l42.31,22.63Z"/><polygon class="cls-21" points="968.3 1198.77 962.31 1220.35 1005.03 1488.05 982.47 1531.53 942.25 1488.37 948.9 1220.68 939.2 1206.4 950.54 1190.16 968.3 1198.77"/><path class="cls-7" d="M993.9,1121c-.82,31.78-25.64,49.83-43.45,68-52.77-13.78-92.79-46.11-104.49-76.06l-24.89,24.72c4.43,38.65,35.4,78.6,82.5,119.36,7.18-20.74,18.2-39.81,49.58-57l70.62,20.1c4-27.46,7.1-53.06-8.95-85.34Z"/><path class="cls-17" d="M1385,2442.55c25.21,0,25.21-41,0-41,0,0-100.3-28-103.22-28s-110,3-110,3c-14.13,19.62-9.42,47.33-7.94,68.65Z"/><path class="cls-17" d="M814.17,2443.34c-1.86-21.22-4.87-43.85,9.78-63.14,25-9.19,72.2-30.41,120.85-3,0,0,.93,13.72,38.67,29.31,9.38,10.66,13.15,21.38,8.87,36.8Z"/><path class="cls-10" d="M1167.68,2373.55l105.81-543.87-312.32-52.94V1627.62l240.35.17c-10.71,0,229.15-16.57,262.74,113.64S1294.2,2372,1294.2,2372c-29.09-4-96.09,16.18-121.08,24C1151.76,2402.68,1145.9,2390.53,1167.68,2373.55Z"/><path class="cls-10" d="M1148.43,1627.79,913,1820l19.42,556.15c-62.09-34.26-130.14,31.06-135.37,23.54,0,0-7.52-3.6,5-33.37-23.82-119.71-110.63-568.48-83.6-618.38,31.23-57.65,83.61-123.52,83.61-123.52Z"/><path class="cls-19" d="M827.5,1131.32c3.6,14.41,46.16,441.73,42.55,506.59S708.44,1717,711.51,1850.5c3.26,141.78,7.55,203.2,7.55,203.2-58.57-8.57-90-77.13-98.56-124.27-13.45-81.84-3.82-174.88,57.13-292.81,0,0,16.28-446.18,36.58-460.62C750.41,1150.24,827.5,1131.32,827.5,1131.32Z"/><path class="cls-22" d="M795.76,1323.24s-20.27,59.19-20.27,83.71S894.19,1483,894.19,1483H700.28v-91.75Z"/><path class="cls-23" d="M903.43,1501.38s23.27-21,60.15-24,69.24,67.27,69.24,67.27H905.19Z"/><path class="cls-23" d="M973.38,1478.31s58.05,16.41,66.15,18.57c3.79,15.31-36.16,8.7-54.64,1.9C964.53,1491.28,973.38,1478.31,973.38,1478.31Z"/><path class="cls-19" d="M718.76,1171.54c-35.46,22-133.15,252.35-134.08,314.35-.41,27.34,11.05,54.43,63,57.76,28.68,1.84,272.1,3.93,272.1,3.93l-3.1-64.57-183.48-52.37,56-93C856.26,1303.13,798.85,1128.76,718.76,1171.54Z"/><path class="cls-15" d="M1348.91,1170.53s-22.47-55-19.71-70,58-34.34,60.76-27.69,8.48,23.05-27.7,32.93C1386.5,1128.13,1413.71,1172.65,1348.91,1170.53Z"/><path class="cls-15" d="M1346,1173s-4.59-49.58,3.45-69.54c10.71-26.57,42.35-43.66,42.35-43.66s56,43.92,57.67,51.86-44.9,56.57-44.9,56.57S1369.83,1201.24,1346,1173Z"/><path class="cls-15" d="M1352.61,1108s13.69-123.71,33.18-120.12c9,1.66-3.66,119.79-3.66,119.79Z"/><path class="cls-16" d="M1342.63,1154.93a.61.61,0,0,0,.4,0,.65.65,0,0,0,.4-.85c-5.76-16.18-15.19-44.62-13.58-53.39,2.13-11.55,38.33-26.74,53.94-28.36,4.65-.49,5.43.49,5.56.8,1.8,4.39,3.27,9.64.49,15.28-3.46,7-12.8,12.68-27.76,16.76l-1.15.31.88.81c10.07,9.28,22.1,23.87,25.67,37a.67.67,0,0,0,.82.47.66.66,0,0,0,.46-.82c-3.54-13-15.17-27.38-25.18-36.81,14.67-4.16,23.9-9.93,27.45-17.14,3.41-6.93.7-13.54-.46-16.36-.62-1.51-2.88-2-6.92-1.62-15.82,1.64-52.8,17-55.1,29.44-1.67,9.07,7.82,37.77,13.64,54.08A.62.62,0,0,0,1342.63,1154.93Z"/><path class="cls-16" d="M1409.9,1131.44l.56.15.45.1.26-.39c7.94-12.54,26.89-17.6,27.08-17.65a.66.66,0,0,0-.33-1.28c-.79.21-19.26,5.13-27.61,17.81l-.06,0c-11.89-3.42-28.61-31.54-28.78-31.83a.66.66,0,0,0-1.14.67C1381,1100.2,1397.49,1127.87,1409.9,1131.44Z"/><polygon class="cls-15" points="1348.14 1157.12 1327.89 1234.35 1390.34 1254.39 1397.99 1166.21 1348.14 1157.12"/><path class="cls-19" d="M1156.7,1195l127.71,128.29,56.82-147.52,74.33,23.4s-.91,215.59-65.41,262c-98.77,60.34-268-123.76-268-123.76C1016,1244.81,1117.1,1141.26,1156.7,1195Z"/><path class="cls-19" d="M1015.61,1136.65S1049.72,1605.36,1111,1645s277.72,12.64,277.72,12.64-216-77.38-219.58-135-17.54-332.45-17.54-332.45C1131.53,1165.55,1067.88,1136.38,1015.61,1136.65Z"/><g class="cls-24"><ellipse class="cls-25" cx="1024.87" cy="1356.55" rx="36.69" ry="20.68" transform="translate(-495.16 2118.19) rotate(-79.54)"/><ellipse class="cls-26" cx="1038.99" cy="1357.8" rx="23.9" ry="13.47" transform="translate(-484.83 2133.1) rotate(-79.54)"/><path class="cls-10" d="M1033.53,1329.68a3.15,3.15,0,0,0,3.15-3.07c0-.72,1.78-72.73-8.91-148.12-9.9-69.8-68-103.59-117.86-105.45-48.3-1.81-85.54,24.59-94.87,67.24-8.4,38.38,2.47,103.86,2.94,106.63a3.15,3.15,0,1,0,6.21-1.05c-.11-.66-11.13-67-3-104.23,8.65-39.53,43.42-64,88.49-62.29,47.29,1.76,102.46,33.82,111.86,100,10.61,74.85,8.86,146.35,8.84,147.07a3.16,3.16,0,0,0,3.07,3.23Z"/><path class="cls-10" d="M790.81,1427.17l20-2.56a3.15,3.15,0,0,0-.8-6.25l-15.14,1.94c-20.54-53.18-21.72-110.32-2.72-139.62,9.37-14.46,23.19-22.17,41.09-22.92,16.79-.72,31.56,4.84,44,16.47,37.77,35.42,43.85,117.12,44.73,134.66l-11.46-.44a3.15,3.15,0,0,0-.24,6.29l18.21.7-.08-3.34c-.09-4.11-2.69-101-46.84-142.46-13.69-12.84-30-19-48.54-18.17-20.06.84-35.57,9.52-46.12,25.78s-15.55,39.76-14.42,67.87c1,25.71,7.24,54,17.47,79.78Z"/><path class="cls-25" d="M845.55,1247.31l-.18,15.54a41.11,41.11,0,0,0-35.25,4.42c-4.51-6.23-7.68-10.92-7.68-10.92S816.52,1241.1,845.55,1247.31Z"/><path class="cls-25" d="M832.34,1252.79l-3.4-17.68c-4.92-2.69-15.47.16-17.08,4l3.91,17.2Z"/></g><path class="cls-27" d="M1085.17,1483.41c20.52-2.09,63.66-28.9,73.95-37.77L1284.41,1547H1090.28Z"/><path class="cls-28" d="M1266.09,1547.28c-5.26,0-162.15-95.72-162.15-95.72-34.49,28.52-70.57,42.4-107.05,52.65,10.66,21.17,26.27,35.44,43.68,43.38Z"/><rect class="cls-29" x="485.78" y="1516.82" width="193.58" height="30.08" transform="translate(1165.14 3063.72) rotate(180)"/><rect class="cls-28" x="320.98" y="1516.82" width="164.8" height="30.08" transform="translate(806.76 3063.72) rotate(180)"/><polygon class="cls-28" points="653.2 1526.63 498.21 1526.63 570.14 1541.02 653.2 1526.63"/></g><g id="table"><rect class="cls-21" x="545.54" y="1583.81" width="32.53" height="852.99"/><rect class="cls-21" x="545.54" y="1584.16" width="32.53" height="73.22"/><rect class="cls-21" x="2018.49" y="2292.27" width="32.53" height="148.1" transform="translate(4069.52 4732.63) rotate(180)"/><rect class="cls-21" x="1822.72" y="2292.27" width="32.53" height="148.1" transform="translate(3677.97 4732.63) rotate(180)"/><polygon class="cls-21" points="270.48 1574.7 270.48 2441.57 239.55 2436.67 239.55 1574.7 270.48 1574.7"/><rect class="cls-21" x="1414.92" y="2292.27" width="32.53" height="148.1" transform="translate(2862.36 4732.63) rotate(180)"/><rect class="cls-21" x="1585.71" y="2292.27" width="32.53" height="148.1" transform="translate(3203.94 4732.63) rotate(180)"/><rect class="cls-21" x="150.6" y="1547.1" width="1570.45" height="36.65" transform="translate(1871.65 3130.85) rotate(180)"/><rect class="cls-21" x="1403.04" y="1580.61" width="201.02" height="714.01"/><rect class="cls-21" x="1576.15" y="1580.61" width="494.5" height="714.01"/><rect class="cls-30" x="1600.75" y="1605.39" width="456.46" height="689.23"/><rect class="cls-30" x="500.91" y="1547.1" width="1570.45" height="36.65" transform="translate(2572.27 3130.85) rotate(180)"/><polygon class="cls-31" points="1794.65 1547.1 1881.29 1547.1 1864.21 1398.94 1777.56 1398.94 1794.65 1547.1"/><polygon class="cls-32" points="1769.44 1398.95 1769.5 1399.55 1778.73 1479.57 1786.52 1547.09 1873.17 1547.09 1857.29 1409.36 1857.24 1408.94 1856.09 1398.95 1769.44 1398.95"/><rect class="cls-31" x="1668.71" y="1531.65" width="275.22" height="15.17" transform="translate(3612.64 3078.47) rotate(180)"/><rect class="cls-32" x="1649.49" y="1531.65" width="220.25" height="15.17"/><polygon class="cls-33" points="1769.5 1399.55 1778.73 1479.57 1857.29 1409.36 1857.7 1408.99 1857.24 1408.94 1769.5 1399.55"/><path class="cls-31" d="M1548.77,1408.47h470.16a20.52,20.52,0,0,0,20.07-18.54l26.85-326.57a16.82,16.82,0,0,0-17-18.54H1578.67a20.5,20.5,0,0,0-20.06,18.54l-26.86,326.57A16.82,16.82,0,0,0,1548.77,1408.47Z"/><path class="cls-32" d="M1540.06,1408.06h470.16a20.51,20.51,0,0,0,20.07-18.54L2057.14,1063a16.81,16.81,0,0,0-17-18.54H1570A20.5,20.5,0,0,0,1549.9,1063L1523,1389.52A16.82,16.82,0,0,0,1540.06,1408.06Z"/><polygon class="cls-34" points="1550.39 1381.35 2006.88 1381.35 2031.75 1069.87 1575.26 1069.87 1550.39 1381.35"/><rect class="cls-31" x="1443.72" y="1531.64" width="143.9" height="15.18"/><polygon class="cls-32" points="1293.17 1540.98 1293.17 1546.82 1443.72 1546.82 1443.72 1531.64 1293.17 1540.98"/><path class="cls-35" d="M1631.11,1327.4l313-3.78c13.16-.16,24.63-11.3,25.61-24.88l11.67-160.19c1-13.58-8.88-24.46-22-24.3l-313,3.78c-13.16.16-24.62,11.3-25.61,24.88l-11.66,160.19C1608.09,1316.68,1618,1327.56,1631.11,1327.4Z"/><path class="cls-34" d="M1658.19,1184.57l91.92-1.11a5.92,5.92,0,0,0,5.64-5.48h0a4.82,4.82,0,0,0-4.85-5.35l-91.92,1.12a5.9,5.9,0,0,0-5.64,5.47h0A4.81,4.81,0,0,0,1658.19,1184.57Z"/><path class="cls-34" d="M1656,1214.14l122.47-1.48a5.92,5.92,0,0,0,5.64-5.48h0a4.83,4.83,0,0,0-4.85-5.35l-122.48,1.49a5.89,5.89,0,0,0-5.63,5.47h0A4.81,4.81,0,0,0,1656,1214.14Z"/><path class="cls-34" d="M1653.5,1249l122.47-1.48a5.92,5.92,0,0,0,5.64-5.48h0a4.82,4.82,0,0,0-4.85-5.35l-122.47,1.48a5.92,5.92,0,0,0-5.64,5.48h0A4.82,4.82,0,0,0,1653.5,1249Z"/><path class="cls-34" d="M1651,1283.79l122.48-1.48a5.89,5.89,0,0,0,5.63-5.47h0a4.81,4.81,0,0,0-4.84-5.35L1651.75,1273a5.89,5.89,0,0,0-5.63,5.47h0A4.81,4.81,0,0,0,1651,1283.79Z"/><path class="cls-34" d="M1890,1186.76c-9.51,8.18-16.18,67.32-3.84,83.92,5.65,7.6,15.4,7.67,23.86,9.81,10,2.54,18.09,13.74,22.25,8.42,7.69-9.82,9.55-49.29-3.23-74.8C1924.6,1205.23,1899.52,1178.58,1890,1186.76Z"/><path class="cls-34" d="M1850.42,1186.76c9.5,8.18,16.18,67.32,3.84,83.92-5.65,7.6-15.4,7.67-23.87,9.81-10,2.54-18.08,13.74-22.25,8.42-7.69-9.82-9.54-49.29,3.24-74.8C1815.83,1205.23,1840.91,1178.58,1850.42,1186.76Z"/><path class="cls-34" d="M1865.07,1209.4v-62.61H1874v61.69h0c0,.51.26,12.59,12.5,15.29l-1.48,6.7a21.72,21.72,0,0,1-15.34-11.77,21.76,21.76,0,0,1-15.57,12.24l-1.48-6.7C1863.65,1221.8,1864.92,1211.7,1865.07,1209.4Z"/></g><g id="lady"><rect class="cls-10" x="2089.24" y="2333.78" width="32.72" height="60.89" transform="translate(4211.2 4728.45) rotate(180)"/><rect class="cls-10" x="2334.6" y="2333.78" width="32.72" height="60.89" transform="translate(4701.91 4728.45) rotate(180)"/><rect class="cls-10" x="2608.84" y="2333.78" width="32.72" height="60.89" transform="translate(5250.39 4728.45) rotate(180)"/><ellipse class="cls-10" cx="2617.07" cy="2394.48" rx="24.95" ry="39.45"/><ellipse class="cls-10" cx="2592.89" cy="2394.48" rx="24.95" ry="39.45"/><path class="cls-10" d="M2583.27,2430.74c10.38,8.1,39.4,4.43,43.45.24l.19-72.78c-7.79-6.82-35.26-6.58-43.62-.37Z"/><ellipse class="cls-11" cx="2590.54" cy="2393.41" rx="17.1" ry="27.03"/><ellipse class="cls-10" cx="2592.35" cy="2394.18" rx="10.42" ry="16.47"/><ellipse class="cls-10" cx="2355.89" cy="2394.48" rx="24.95" ry="39.45"/><ellipse class="cls-10" cx="2380.07" cy="2394.48" rx="24.95" ry="39.45"/><path class="cls-10" d="M2389.69,2430.74c-10.38,8.1-39.39,4.43-43.45.24l-.19-72.78c7.79-6.82,35.26-6.58,43.63-.37Z"/><ellipse class="cls-11" cx="2382.42" cy="2393.41" rx="17.1" ry="27.03"/><ellipse class="cls-10" cx="2380.61" cy="2394.18" rx="10.42" ry="16.47"/><ellipse class="cls-10" cx="2106.68" cy="2394.48" rx="24.95" ry="39.45"/><ellipse class="cls-10" cx="2130.86" cy="2394.48" rx="24.95" ry="39.45"/><path class="cls-10" d="M2140.48,2430.74c-10.38,8.1-39.39,4.43-43.45.24l-.19-72.78c7.79-6.82,35.26-6.58,43.63-.37Z"/><ellipse class="cls-11" cx="2133.21" cy="2393.41" rx="17.1" ry="27.03"/><ellipse class="cls-10" cx="2131.4" cy="2394.18" rx="10.42" ry="16.47"/><rect class="cls-10" x="2322.31" y="1826.93" width="47.66" height="496.34" transform="translate(4692.28 4150.2) rotate(180)"/><path class="cls-12" d="M2066.55,2339.77c-.07-.41-.38-.81-.38-1.22,0-26.27,129.91-47.57,290.16-47.57s290.17,21.3,290.17,47.57c0,.41-.32.81-.38,1.22Z"/><rect class="cls-12" x="2308.26" y="1879.79" width="77.47" height="94.48"/><rect class="cls-12" x="2308.26" y="2212.33" width="77.47" height="94.47"/><path class="cls-13" d="M2491.7,1085.68v.1c1-.1,2.05-.1,3.08-.1Z"/><path class="cls-9" d="M2821.07,1084.3a.89.89,0,0,1-.21,0c-.66,0-2.56-.1-5.58-.15-3.27-.06-7.63-.11-12.85-.11-68.86-.3-293.46,1.69-293.46,1.69a31.11,31.11,0,0,0-3.17.11c-35.68,1.58-70.55,29.74-78.84,64.2,0,0-97.81,484.78-141.23,526.5s-192.14,37.63-192.14,37.63c-32.82,0-61.89,19.35-71.16,47.67a61.5,61.5,0,0,0-3.12,19.55,68.5,68.5,0,0,0,21.24,49.41,73.18,73.18,0,0,0,51.1,20.48h330.83l214.75,4.35a104.21,104.21,0,0,0,103.88-78.85,68.13,68.13,0,0,0,2.72-8.9l113.69-620.66a63.59,63.59,0,0,0,1.74-14.59C2859.26,1108.36,2844.31,1089.42,2821.07,1084.3ZM2691.5,1716.17l-2.66,3.58,1.9-8.24h4.19Z"/><path class="cls-12" d="M2679.15,1851.45c.06.31.35.61.35.92,0,19.74-170.74,35.75-323.54,35.75s-276.65-16-276.65-35.75c0-.31.3-.61.36-.92Z"/><path class="cls-7" d="M2859.26,1132.58a63.59,63.59,0,0,1-1.74,14.59c-4.29,12.42-110.46,618-116.4,629.54a104.23,104.23,0,0,1-103.89,78.87c-127.13-4.11-416-5.13-545.59-4.35-46.2.94-83.85-45-69.21-89.44-16,75.29,604.48,84.51,669.46-14.16,46.22-34.59,20.66-691.74,129.17-663.33C2844.31,1089.42,2859.26,1108.36,2859.26,1132.58Z"/><path class="cls-36" d="M2521.14,1073.16c60.85,428.49-345.69,366.54-333.93,194.07,10.14-148.58,100.06-166,76.62-263.4-25.72-106.94,12.36-200.5,113.73-200.5,99.27,0,158.69,72.34,137.49,198.14C2510.84,1026.43,2518.56,1052.48,2521.14,1073.16Z"/><path class="cls-37" d="M2140.14,2272.73c.75,4.25,14.8,86.4,14.8,86.4l56.51-4.85,8.19-100.66Z"/><path class="cls-10" d="M2499.67,1590.64s47.28,132.84-30.87,155.61-208.89,31.39-208.89,31.39l-42.22,525.51c-15.65,6.23-32.42,11.78-71.47,3.82,0,0-96.19-529-68.44-592.42s244.78-127.9,244.78-127.9Z"/><path class="cls-19" d="M2228.51,2368c-4.2,10.79-36.76,26.13-73.2,37.32-24.91,7.66-51.63,13.36-72.34,14.35-12.94.62-23.52-.59-29.86-4.32,0,0-16.09-41.6,19.65-64.53s76-27.51,76-27.51c5.15,7.36,13.52,12.2,23.85,13.41a53.29,53.29,0,0,0,23-2.79,83,83,0,0,0,20.84-10.62,56.16,56.16,0,0,1,6.62,9c.34.55.67,1.11,1,1.7C2228.83,2342.49,2233.14,2354.93,2228.51,2368Z"/><path class="cls-38" d="M2225.84,2332.32l-1.69,1.75-68.84,71.26c-24.91,7.66-51.63,13.36-72.34,14.35-1.42-13.1-.83-40.88,24.46-60.55,15.58-12.12,41.56-18.76,65.23-22.4,8.12-1.25,16-2.15,23-2.79,12.71-1.14,22.86-1.49,27.46-1.57C2224.88,2332.32,2225.84,2332.32,2225.84,2332.32Z"/><path class="cls-37" d="M2193.15,2285.69c.75,4.25,6.78,86.35,6.78,86.35l48.52-.62,13.9-87.42Z"/><path class="cls-19" d="M2257.92,2318.59s17,32.95,20.8,41.32c-19,55.44-148.73,98.6-162.15,82,0,0-24.19-37.46,6.14-67.17s74.17-43.46,74.17-43.46C2211.33,2344.85,2249.11,2341.14,2257.92,2318.59Z"/><path class="cls-10" d="M2628.31,1609.42s25.59,115.74-71.85,147.11c-77.48,24.94-210.66,75.83-210.66,75.83l-84.55,470.93c-3.56,10-59.88,13.73-67,5.7,0,0-19.64-518.42,19.33-575.64,59.82-87.84,140.91-141.53,140.91-141.53C2436.52,1582.4,2556.18,1573.6,2628.31,1609.42Z"/><path class="cls-39" d="M2192.3,2309.07c-.92-20.85-22.13-511.32,19.63-576.75a407.72,407.72,0,0,1,38.83-51l2.87,2.55a405,405,0,0,0-38.46,50.47c-41.12,64.42-19.26,569.43-19,574.52Z"/><path class="cls-37" d="M2309.33,1179.19c40.07-49.16,69.93-19.92,68.16,35.32s-39.11,295.94-83.8,279.4S2259,1240.88,2309.33,1179.19Z"/><path class="cls-40" d="M2339.14,1392.79l-26.88,187.49c2.63,9.64,17.17,17.81,38.93,24.22,3.44,1,7.06,2,10.84,2.91h0c74.16,18.19,210.61,19.28,269.87-4.35,0,0-4.6-31.75-23.49-82.69-14.37-38.7-37-88.5-72.11-143.87-2.23-16.43,11.64-45.43,25.52-78.68,22.08-52.94,44.2-116.66,1.32-157.61-69.81-66.68-252.42-47.77-264.42,84.15C2296.9,1309.69,2339.14,1392.79,2339.14,1392.79Z"/><path class="cls-41" d="M2341.44,1617.6c1.26-.21,8.76-4.09,20.59-10.19h0c50.53-26,180.08-92.52,240.34-87.14a41.11,41.11,0,0,0,6,.1c-14.37-38.7-37-88.5-72.11-143.87-2.23-16.43,11.64-45.43,25.52-78.68L2483,1208.28s.28,2,.77,5.73c4.21,32.26,24.25,191.08,13.43,216.72-9.9,23.46-113.12,135.22-146,173.77C2344.06,1612.88,2340.24,1617.79,2341.44,1617.6Z"/><path class="cls-37" d="M2360.77,1151.19c2.31,15.87,22.75,58.06,22.75,58.06s84.59-52.55,81.58-73.25l-13.73-55.5-8.95-36.09L2356.23,1057l3,61.65Z"/><polygon class="cls-42" points="2359.2 1118.61 2419.42 1078.3 2356.23 1056.95 2359.2 1118.61"/><path class="cls-37" d="M2280.36,944.39c-4.87,77.2,38.83,140.87,97.6,142.21S2483.3,1026.35,2482,949c-1.25-72.86-45-129.88-97.85-131.09S2285,871.66,2280.36,944.39Z"/><path class="cls-36" d="M2352.53,890.16c73.38,94.08,179.1,56.68,154.74.41,0,0-28.33-77.5-114-78.76C2286.23,810.23,2352.53,890.16,2352.53,890.16Z"/><path class="cls-43" d="M2373.08,1000.86c-2.75-.06-5.4-.71-6.91-2.61-3.73-4.68,6.28-27.55,8.32-32.09a1.14,1.14,0,0,1,1.5-.57,1.13,1.13,0,0,1,.56,1.5c-4.84,10.76-10.72,27.11-8.62,29.76,2.46,3.09,10.92,1.34,14,.41a1.13,1.13,0,0,1,.66,2.16A33.44,33.44,0,0,1,2373.08,1000.86Z"/><path class="cls-43" d="M2357.19,1027.4s32.76,10,76-12.36C2409.41,1049.32,2378.3,1070.72,2357.19,1027.4Z"/><path class="cls-36" d="M2426.68,958.31c-.13,5.69-2.52,10.25-5.34,10.18s-5-4.73-4.87-10.41,2.52-10.25,5.34-10.18S2426.81,952.62,2426.68,958.31Z"/><path class="cls-36" d="M2328.35,953.81c-.13,5.69-2.52,10.25-5.34,10.18s-5-4.73-4.86-10.41,2.52-10.25,5.33-10.19S2328.48,948.12,2328.35,953.81Z"/><path class="cls-36" d="M2352.06,872.38s-13,71.56-73.61,76.31c-40.52,3.18,18.43-118.5,57-116.13C2358.2,834,2352.06,872.38,2352.06,872.38Z"/><path class="cls-37" d="M2577,1168.48s-31.5-34.27-82.19,3.84c-41.51,31.2,28.64,230,28.64,230l-206.89,196.41,15.85,20S2580,1514.9,2611.5,1432.85C2622.31,1380.91,2601.3,1204.74,2577,1168.48Z"/><path class="cls-37" d="M2336.87,1422.3l11.24,194.18-26.71,4.46s-57.78-133.26-55.16-208.54C2268.55,1346.44,2344.9,1362.21,2336.87,1422.3Z"/><path class="cls-37" d="M2350.8,1604.4s29.28,17.52,15.19,29.39-64.88,11.18-50.37-20.43S2350.8,1604.4,2350.8,1604.4Z"/><path class="cls-37" d="M2316.38,1595.43c-2.28-.45-53.17,35.65-37.83,51.32s92-31.34,76.86-50.49S2316.38,1595.43,2316.38,1595.43Z"/></g></g></svg>