<svg id="Isolation_Mode" data-name="Isolation Mode" xmlns="http://www.w3.org/2000/svg" viewBox="0 0 83.27 99.68"><defs><style>.cls-1{fill:#02c927;}.cls-2{fill:#028427;}</style></defs><path class="cls-1" d="M58.6,21l-5.15,1.84-2.21-6.73C47.18,3.68,34.24-3,22.35,1.28S4.13,19.08,8.2,31.54l2.2,6.73L5.23,40.12A8.22,8.22,0,0,0,.41,50.4L14.7,94.14a7.72,7.72,0,0,0,9.62,5.18l.24-.07L77.94,80.16A8.27,8.27,0,0,0,82.8,69.78L68.5,26a7.71,7.71,0,0,0-9.64-5.1ZM17.92,28A13.2,13.2,0,0,1,25.7,11.46a12.34,12.34,0,0,1,15.68,7.69c0,.13.09.26.13.39l2.2,6.73L20.12,34.7Zm30,38.86L51.58,78A.91.91,0,0,1,51,79.14L45.89,81a.82.82,0,0,1-1-.54L41.23,69.25a10,10,0,0,1-9-7,10.5,10.5,0,0,1,6.19-13.18,9.83,9.83,0,0,1,12.45,6.19l.09.28a10.68,10.68,0,0,1-3,11.33Z"/><path class="cls-2" d="M53.22,22.7c0,.14-9.55,3.73-21.43,8s-21.57,7.67-21.62,7.53,9.55-3.72,21.44-8S53.17,22.54,53.22,22.7Z"/><path class="cls-2" d="M64.56,24.54a1.34,1.34,0,0,1,.11.26c.06.18.17.46.29.78l1.07,3,3.84,11.18c1.6,4.74,3.51,10.36,5.63,16.6,1,3.13,2.18,6.39,3.28,9.83a15,15,0,0,1,.75,5.48,7.26,7.26,0,0,1-.81,2.77,7.51,7.51,0,0,1-1.89,2.23,17.68,17.68,0,0,1-5.08,2.59L66.6,81.11,56.85,84.6,40.34,90.54,29.19,94.46l-3,1-.8.26a.9.9,0,0,1-.27.07,1.72,1.72,0,0,1,.26-.12l.77-.31,3-1.13,11.09-4.08,16.48-6,9.73-3.52,5.15-1.86a17,17,0,0,0,4.93-2.51,7.16,7.16,0,0,0,1.76-2.07A6.63,6.63,0,0,0,79,71.62a14.39,14.39,0,0,0-.72-5.29c-1.08-3.4-2.22-6.69-3.25-9.82C73,50.26,71.13,44.62,69.55,39.88s-2.8-8.54-3.68-11.23c-.42-1.3-.74-2.33-1-3.07-.1-.32-.17-.59-.24-.8A1.09,1.09,0,0,1,64.56,24.54Z"/><path class="cls-1" d="M36.4,10.75s-.53-.26-1.51-.66a13.07,13.07,0,0,0-4.37-.87,14.84,14.84,0,0,0-6.44,1.21A14.4,14.4,0,0,0,18,15.54a13.52,13.52,0,0,0-2.35,7.59,23.42,23.42,0,0,0,1,6.55C17.15,31.5,17.68,33,18,34a10.82,10.82,0,0,1,.52,1.58A9.44,9.44,0,0,1,17.85,34c-.41-1-1-2.42-1.58-4.25a22.82,22.82,0,0,1-1.15-6.65,13.83,13.83,0,0,1,2.4-7.88A14.61,14.61,0,0,1,23.87,10a15,15,0,0,1,6.65-1.14A12.54,12.54,0,0,1,35,9.9a10.43,10.43,0,0,1,1.09.6A1.78,1.78,0,0,1,36.4,10.75Z"/><path class="cls-2" d="M36.86,49.89a1.83,1.83,0,0,1,.5-.26,10.57,10.57,0,0,1,1.55-.55,11,11,0,0,1,2.6-.43,8.52,8.52,0,0,1,3.5.52c2.56.9,4.91,3.51,6.07,7a10,10,0,0,1,.05,5.74,13.05,13.05,0,0,1-3.27,5.41l.06-.27c1.33,3.65,2.78,7.61,4.28,11.74l.09.25-.25.09-2.29.76-5,1.67-.25.08-.08-.25c-1.37-4.14-2.87-8-4-11.79l.22.17a10,10,0,0,1-5.36-2.11,12,12,0,0,1-3.35-4,9.2,9.2,0,0,1-1.06-4.51,11,11,0,0,1,4.19-8.26,6.1,6.1,0,0,1,1.73-1A13.65,13.65,0,0,0,35.15,51,10.77,10.77,0,0,0,32,55.36a9.47,9.47,0,0,0,.31,8.07,11.74,11.74,0,0,0,3.27,3.84,9.63,9.63,0,0,0,5.11,2h.17l.05.16c1.1,3.71,2.61,7.6,4,11.76L44.55,81l5-1.67,2.28-.77-.16.34c-1.49-4.13-2.93-8.1-4.25-11.75V67l.12-.12a12.75,12.75,0,0,0,3.16-5.17,9.68,9.68,0,0,0,0-5.49c-1.09-3.36-3.34-5.91-5.77-6.81a8.57,8.57,0,0,0-3.4-.57,11.69,11.69,0,0,0-2.56.35C37.57,49.59,36.87,49.93,36.86,49.89Z"/></svg>