<svg id="Layer_1" data-name="Layer 1" xmlns="http://www.w3.org/2000/svg" xmlns:xlink="http://www.w3.org/1999/xlink" viewBox="0 0 278.32 370.07"><defs><style>.cls-1{fill:#02c927;}.cls-2{fill:#263238;}.cls-3{fill:#455a64;}.cls-4{fill:#fff;}.cls-13,.cls-5{isolation:isolate;}.cls-5{font-size:8.3px;fill:#e8e8e3;font-family:ArialMT, Arial;}.cls-6{letter-spacing:-0.02em;}.cls-7{fill:#1ba2ff;}.cls-8{fill:#e0e0e0;}.cls-9{fill:#1690c9;}.cls-10{clip-path:url(#clip-path);}.cls-11{fill:#ffbe9d;}.cls-12{fill:#eb996e;}.cls-13,.cls-14{opacity:0.2;}</style><clipPath id="clip-path"><path class="cls-1" d="M161,189a2.06,2.06,0,1,1-2.05-2.2A2.13,2.13,0,0,1,161,189Z"/></clipPath></defs><g id="Plant"><path class="cls-1" d="M213.71,247.78C198.27,237,194.76,217,195.37,199c.1-3-.23-6.17,1.2-8.81s4.77-4.44,7.46-3.17c2.23,1.05,3.21,3.64,4.45,5.79a17.63,17.63,0,0,0,7.05,6.73c1.92,1,4.29,1.6,6.18.56,2.59-1.43,2.89-5,2.88-8q-.06-8.36-.11-16.72a27.69,27.69,0,0,1,.9-8.88c.93-2.83,3-5.47,5.83-6.27s6.36.85,7,3.77a25.82,25.82,0,0,1,.09,3.73,3.24,3.24,0,0,0,1.84,3c1.18.39,2.39-.5,3.28-1.38,3.09-3,5.18-6.9,7.14-10.77s3.86-7.83,6.66-11.12,6.67-5.9,10.95-6.14,8.84,2.4,9.93,6.6-1.38,8.49-4.05,11.9A66.8,66.8,0,0,1,260.11,173a5.51,5.51,0,0,0-2.32,2.5c-.65,2,1.24,4,3.2,4.63,2.23.74,4.65.51,7,.78s4.86,1.3,5.74,3.51c1.22,3-1.33,6.26-3.85,8.35A57.22,57.22,0,0,1,253,202.49c-2.19.8-4.51,1.51-6.28,3.06s-2.85,4.23-1.77,6.33,3.82,2.79,6.12,2.36,4.37-1.68,6.56-2.51c4.11-1.55,9.42-1.27,12.05,2.29a9.42,9.42,0,0,1,1,8.36,21.76,21.76,0,0,1-4.53,7.39A57.39,57.39,0,0,1,241.57,247c-9.53,3.3-18.37,4.2-27.84.74"/><path class="cls-2" d="M273.74,143.72l-.29.28-.89.8c-.79.69-1.94,1.71-3.39,3.06a112,112,0,0,0-11.42,12.33c-2.22,2.77-4.54,5.91-7,9.32s-5,7.09-7.51,11.05a133.88,133.88,0,0,0-7.38,12.77c-1.15,2.29-2.18,4.68-3.23,7.12l-3.17,7.41a274.84,274.84,0,0,0-10.65,28.77,133.11,133.11,0,0,0-5,24.53,98.22,98.22,0,0,0-.28,16.89c.16,2,.31,3.53.45,4.58.06.5.11.89.14,1.19a2.67,2.67,0,0,1,0,.4,1.79,1.79,0,0,1-.09-.4,10.25,10.25,0,0,0-.19-1.18c-.17-1-.36-2.58-.55-4.57a93.06,93.06,0,0,1,.11-16.94,130.92,130.92,0,0,1,4.88-24.64,266.58,266.58,0,0,1,10.64-28.85l3.17-7.41c1-2.43,2.09-4.85,3.25-7.14a135,135,0,0,1,7.43-12.81c2.57-4,5.14-7.63,7.57-11s4.78-6.54,7-9.3a106.34,106.34,0,0,1,11.58-12.24c1.47-1.33,2.65-2.32,3.46-3l.92-.75A1.53,1.53,0,0,1,273.74,143.72Z"/><path class="cls-2" d="M235.58,193.07a6.1,6.1,0,0,1-.29-1.28c-.16-.83-.35-2-.56-3.52-.42-3-.87-7.1-1.34-11.66s-1-8.67-1.44-11.63c-.23-1.48-.42-2.68-.57-3.51a7.12,7.12,0,0,1-.17-1.3,6.11,6.11,0,0,1,.38,1.26c.21.81.47,2,.75,3.48.56,3,1.13,7.08,1.6,11.64s.86,8.57,1.18,11.67c.15,1.41.27,2.59.38,3.54A6.37,6.37,0,0,1,235.58,193.07Z"/><path class="cls-2" d="M274,185.88a8.88,8.88,0,0,1-1.54.19c-1,.08-2.41.2-4.17.41-3.52.38-8.37,1.07-13.68,2.07s-10.08,2.13-13.5,3c-1.72.45-3.1.84-4,1.11a9.66,9.66,0,0,1-1.5.37,8.4,8.4,0,0,1,1.43-.58c.94-.33,2.31-.78,4-1.28,3.4-1,8.17-2.19,13.5-3.2a135.4,135.4,0,0,1,13.76-1.88c1.77-.16,3.21-.22,4.2-.24A8,8,0,0,1,274,185.88Z"/><path class="cls-2" d="M218.83,235.78a2.68,2.68,0,0,1-.26-.47l-.66-1.39c-.56-1.21-1.33-3-2.26-5.18-1.85-4.41-4.22-10.57-6.75-17.41s-4.83-13-6.59-17.45c-.87-2.15-1.58-3.93-2.1-5.25-.23-.57-.41-1-.57-1.43a1.78,1.78,0,0,1-.16-.51,3.59,3.59,0,0,1,.27.47l.65,1.39c.57,1.21,1.34,3,2.27,5.18,1.85,4.4,4.22,10.57,6.75,17.41s4.83,13,6.59,17.45c.86,2.15,1.57,3.93,2.1,5.24.22.58.41,1,.56,1.43A1.57,1.57,0,0,1,218.83,235.78Z"/><path class="cls-2" d="M269.91,219.32a1.89,1.89,0,0,1-.51.21l-1.48.49-5.47,1.78c-4.62,1.49-11,3.64-18,6s-13.4,4.46-18,5.87c-2.33.7-4.21,1.25-5.52,1.6l-1.52.4a2,2,0,0,1-.54.1,2.28,2.28,0,0,1,.51-.21l1.48-.5,5.47-1.77c4.62-1.5,11-3.64,18-6s13.4-4.46,18-5.86c2.32-.7,4.21-1.25,5.52-1.6l1.51-.4A1.74,1.74,0,0,1,269.91,219.32Z"/></g><g id="Device"><path class="cls-3" d="M196.43,294.38,96.54,294A21.76,21.76,0,0,1,74.89,272.1L76,21.7A21.76,21.76,0,0,1,97.8,0h0l99.88.46a21.77,21.77,0,0,1,21.66,21.85l-1.07,250.38a21.75,21.75,0,0,1-21.84,21.66Z"/><path class="cls-4" d="M197.54,9.1,178.18,9a4.81,4.81,0,0,0-4.73,4.89v3.55a4.81,4.81,0,0,1-4.72,4.9h0L131,22.18a4.81,4.81,0,0,1-4.68-4.94h0V13.69a4.83,4.83,0,0,0-4.68-4.94h-6.81l-17-.08A15.25,15.25,0,0,0,82.5,23.85l-1,244.41a15.23,15.23,0,0,0,15.16,15.3h0l99.68.46a15.24,15.24,0,0,0,15.31-15.17h0l1-244.41A15.24,15.24,0,0,0,197.54,9.1Z"/><path class="cls-1" d="M184.13,251.39,110,251.05c-.76,0-1.38-.84-1.38-1.87l.08-19.39c0-1,.63-1.86,1.4-1.86l74.13.35c.76,0,1.38.84,1.38,1.86l-.09,19.39C185.52,250.56,184.89,251.39,184.13,251.39Z"/><text class="cls-5" transform="translate(130.12 242.01) scale(0.96 1)">SING U<tspan class="cls-6" x="28.59" y="0">P</tspan></text><rect class="cls-7" x="109.57" y="69.36" width="4.72" height="25.72" transform="translate(29.2 193.78) rotate(-89.74)"/><rect class="cls-1" x="109.57" y="69.36" width="4.72" height="25.72" transform="translate(29.2 193.78) rotate(-89.74)"/><path class="cls-8" d="M200.19,109a2.41,2.41,0,0,0,.59-.14,1.6,1.6,0,0,0,1-1.35V94.15a1.89,1.89,0,0,0-.28-1.31,1.45,1.45,0,0,0-1.18-.61h-16l-83.64-.31a1.35,1.35,0,0,0-1.1.56,1.91,1.91,0,0,0-.26,1.3v12a8.18,8.18,0,0,0,0,1.4,1.32,1.32,0,0,0,.78.91,1.4,1.4,0,0,0,.61.1h5.1l22.2.11,37.61.23,25.35.2,6.89.08H165.61L128,108.69l-22.2-.08h-5.1a2.24,2.24,0,0,1-.81-.15,1.88,1.88,0,0,1-1.08-1.25,3.06,3.06,0,0,1-.07-.8V93.68a5.34,5.34,0,0,1,0-.8,1.89,1.89,0,0,1,1.86-1.58l83.64.46,14.45.11h1.58a1.75,1.75,0,0,1,1.4.73,2.18,2.18,0,0,1,.32,1.47v6.39c0,3-.07,5.3-.09,6.89a1.62,1.62,0,0,1-1.05,1.39A1.18,1.18,0,0,1,200.19,109Z"/><rect class="cls-9" x="127.28" y="76.74" width="4.41" height="47.04" transform="translate(28.64 229.29) rotate(-89.74)"/><rect class="cls-1" x="127.28" y="76.74" width="4.41" height="47.04" transform="translate(28.64 229.29) rotate(-89.74)"/><rect class="cls-7" x="109.38" y="112.43" width="4.72" height="25.72" transform="translate(-14.06 236.46) rotate(-89.74)"/><rect class="cls-1" x="109.38" y="112.43" width="4.72" height="25.72" transform="translate(-14.06 236.46) rotate(-89.74)"/><path class="cls-8" d="M199.53,152a3.84,3.84,0,0,0,.59-.11,2.08,2.08,0,0,0,1.27-1.14,2.58,2.58,0,0,0,.17-1.26V137.5a2.25,2.25,0,0,0-.29-1.32,2,2,0,0,0-1.09-.84,6.36,6.36,0,0,0-1.51-.09h-14.4l-83.36-.3a1.84,1.84,0,0,0-1.82,1.61v12a5.9,5.9,0,0,0,.07,1.39,1.79,1.79,0,0,0,.73,1,2,2,0,0,0,1.24.32h4.35l22.13.12,37.47.23,25.26.19,6.87.09H165.08l-37.48-.11-22.13-.09h-4.34a2.44,2.44,0,0,1-1.53-.41,2.32,2.32,0,0,1-.94-1.31,6.13,6.13,0,0,1-.08-1.54v-12a2.37,2.37,0,0,1,2.35-2.07l83.35.46,14.39.11a6.06,6.06,0,0,1,1.59.11,2.2,2.2,0,0,1,1.24,1,2.48,2.48,0,0,1,.32,1.46v12a2.8,2.8,0,0,1-.2,1.31,2.16,2.16,0,0,1-1.35,1.14A1.54,1.54,0,0,1,199.53,152Z"/><rect class="cls-7" x="109.19" y="157.34" width="4.72" height="25.72" transform="translate(-59.16 280.97) rotate(-89.74)"/><rect class="cls-1" x="109.19" y="157.34" width="4.72" height="25.72" transform="translate(-59.16 280.97) rotate(-89.74)"/><path class="cls-8" d="M199.34,196.87a3.84,3.84,0,0,0,.59-.11,2.09,2.09,0,0,0,1.27-1.13,2.62,2.62,0,0,0,.17-1.27V182.45a2.25,2.25,0,0,0-.29-1.32,2,2,0,0,0-1.09-.84,6.36,6.36,0,0,0-1.51-.09h-14.4l-83.35-.31a1.83,1.83,0,0,0-1.82,1.61v12a5.9,5.9,0,0,0,.07,1.39,1.79,1.79,0,0,0,.73,1,1.93,1.93,0,0,0,1.24.32h4.32l22.12.12,37.48.23,25.26.2,6.87.08H164.86l-37.47-.12-22.13-.09h-4.39a2.44,2.44,0,0,1-1.53-.4,2.34,2.34,0,0,1-.94-1.32,6,6,0,0,1-.08-1.53V181.32a2.36,2.36,0,0,1,2.35-2.06l83.35.46,14.39.1a6.52,6.52,0,0,1,1.59.11,2.2,2.2,0,0,1,1.24,1,2.4,2.4,0,0,1,.32,1.46v12a2.8,2.8,0,0,1-.2,1.31,2.08,2.08,0,0,1-1.35,1.14A1.69,1.69,0,0,1,199.34,196.87Z"/><rect class="cls-9" x="127.09" y="119.82" width="4.41" height="47.04" transform="translate(-14.62 271.98) rotate(-89.74)"/><rect class="cls-1" x="127.09" y="119.82" width="4.41" height="47.04" transform="translate(-14.62 271.98) rotate(-89.74)"/><path class="cls-1" d="M110.05,188.71a2.06,2.06,0,1,1-2-2.2A2.13,2.13,0,0,1,110.05,188.71Z"/><path class="cls-1" d="M116.42,188.74a2.06,2.06,0,1,1-2-2.2A2.11,2.11,0,0,1,116.42,188.74Z"/><path class="cls-1" d="M122.79,188.77a2.06,2.06,0,0,1-4.11.29,1.41,1.41,0,0,1,0-.29,2.06,2.06,0,0,1,4.11-.29A1.41,1.41,0,0,1,122.79,188.77Z"/><path class="cls-1" d="M129.17,188.8a2.06,2.06,0,1,1-2-2.21A2.12,2.12,0,0,1,129.17,188.8Z"/><path class="cls-1" d="M135.54,188.83a2.06,2.06,0,1,1-2-2.21A2.12,2.12,0,0,1,135.54,188.83Z"/><path class="cls-1" d="M141.91,188.86a2.06,2.06,0,1,1-2-2.21,2.12,2.12,0,0,1,2,2.19Z"/><path class="cls-1" d="M148.27,188.89a2.06,2.06,0,1,1-2-2.21A2.14,2.14,0,0,1,148.27,188.89Z"/><path class="cls-1" d="M154.66,189a2.06,2.06,0,1,1-2-2.2A2.13,2.13,0,0,1,154.66,189Z"/><path class="cls-9" d="M161,189a2.06,2.06,0,1,1-2.05-2.2A2.13,2.13,0,0,1,161,189Z"/><path class="cls-1" d="M161,189a2.06,2.06,0,1,1-2.05-2.2A2.13,2.13,0,0,1,161,189Z"/><g class="cls-10"><path class="cls-1" d="M110.05,188.71a2.06,2.06,0,1,1-2-2.2A2.13,2.13,0,0,1,110.05,188.71Z"/><path class="cls-1" d="M116.42,188.74a2.06,2.06,0,1,1-2-2.2A2.11,2.11,0,0,1,116.42,188.74Z"/><path class="cls-1" d="M122.79,188.77a2.06,2.06,0,0,1-4.11.29,1.41,1.41,0,0,1,0-.29,2.06,2.06,0,0,1,4.11-.29A1.41,1.41,0,0,1,122.79,188.77Z"/><path class="cls-1" d="M129.17,188.8a2.06,2.06,0,1,1-2-2.21A2.12,2.12,0,0,1,129.17,188.8Z"/><path class="cls-1" d="M135.54,188.83a2.06,2.06,0,1,1-2-2.21A2.12,2.12,0,0,1,135.54,188.83Z"/><path class="cls-1" d="M141.91,188.86a2.06,2.06,0,1,1-2-2.21,2.12,2.12,0,0,1,2,2.19Z"/><path class="cls-1" d="M148.27,188.89a2.06,2.06,0,1,1-2-2.21A2.14,2.14,0,0,1,148.27,188.89Z"/><path class="cls-1" d="M154.66,189a2.06,2.06,0,1,1-2-2.2A2.13,2.13,0,0,1,154.66,189Z"/></g><path class="cls-7" d="M152,44.58A3.88,3.88,0,0,0,154.27,41a3.64,3.64,0,1,0-7.27-.38,2.41,2.41,0,0,0,0,.38,3.88,3.88,0,0,0,2.31,3.62c-5.59.84-5.34,6.92-5.34,6.92l13.24.06S157.53,45.42,152,44.58Z"/><path class="cls-1" d="M152,44.58A3.88,3.88,0,0,0,154.27,41a3.64,3.64,0,1,0-7.27-.38,2.41,2.41,0,0,0,0,.38,3.88,3.88,0,0,0,2.31,3.62c-5.59.84-5.34,6.92-5.34,6.92l13.24.06S157.53,45.42,152,44.58Z"/><rect class="cls-7" x="147.07" y="34.64" width="5.64" height="47.19" transform="translate(90.98 207.86) rotate(-89.74)"/><rect class="cls-1" x="147.07" y="34.64" width="5.64" height="47.19" transform="translate(90.98 207.86) rotate(-89.74)"/></g><g id="Character"><path class="cls-1" d="M48.68,365.4v-8.55l-15.33-.1-.08,12.92.95.07c4.23.28,21.52.67,24.35-.2C61.69,368.56,48.68,365.4,48.68,365.4Z"/><path class="cls-2" d="M58.89,368.73c0,.15-5.73.26-12.8.26s-12.81-.11-12.81-.26,5.73-.26,12.81-.26S58.89,368.59,58.89,368.73Z"/><path class="cls-2" d="M49,367.15c-.12-.07,0-.52.32-1s.72-.69.82-.59-.1.48-.41.9S49.08,367.22,49,367.15Z"/><path class="cls-2" d="M49.93,367.71c-.13,0-.06-.55.24-1.09s.7-.85.81-.76-.08.52-.36,1S50.07,367.77,49.93,367.71Z"/><path class="cls-2" d="M37.9,368.7a2.11,2.11,0,0,1-.62-.56,9.57,9.57,0,0,0-1.35-1.35,3.41,3.41,0,0,0-1.66-.73c-.46-.06-.77,0-.79-.06s.25-.27.81-.3a3,3,0,0,1,2,.68A5.39,5.39,0,0,1,37.57,368C37.84,368.36,38,368.66,37.9,368.7Z"/><path class="cls-2" d="M49,365.54c.08.12-.19.42-.63.58s-.83.11-.85,0,.29-.31.67-.45S48.92,365.42,49,365.54Z"/><path class="cls-2" d="M48.76,364.71c0,.15-.39.27-.91.28s-.93-.11-.92-.25.42-.27.91-.27S48.75,364.57,48.76,364.71Z"/><path class="cls-1" d="M86.44,365.4v-8.55l-15.34-.1L71,369.54l1,.07c4.23.27,21.52.8,24.35-.07C99.44,368.56,86.44,365.4,86.44,365.4Z"/><path class="cls-2" d="M96.64,368.75c0,.15-5.73.26-12.8.26S71,368.9,71,368.75s5.73-.26,12.81-.26S96.64,368.61,96.64,368.75Z"/><path class="cls-2" d="M86.71,367.15c-.13-.07,0-.52.31-1s.73-.69.83-.59-.11.48-.41.9S86.83,367.22,86.71,367.15Z"/><path class="cls-2" d="M87.68,367.71c-.13,0-.06-.55.24-1.09s.7-.85.81-.76-.08.52-.36,1S87.82,367.77,87.68,367.71Z"/><path class="cls-2" d="M75.65,368.7a2.11,2.11,0,0,1-.62-.56,8.62,8.62,0,0,0-1.35-1.35,3.52,3.52,0,0,0-1.65-.73c-.47-.06-.78,0-.8-.06s.26-.27.81-.3a3,3,0,0,1,2,.68,5.6,5.6,0,0,1,1.33,1.54C75.59,368.36,75.71,368.66,75.65,368.7Z"/><path class="cls-2" d="M86.75,365.54c.08.12-.19.42-.62.58s-.83.11-.86,0,.29-.31.68-.45S86.68,365.42,86.75,365.54Z"/><path class="cls-2" d="M86.51,364.71c0,.15-.39.27-.91.28s-.93-.11-.92-.25.42-.27.91-.27S86.5,364.57,86.51,364.71Z"/><path class="cls-11" d="M142.91,111.51c-.4-.41-1.38-.22-1.38-.22a5.58,5.58,0,0,0,0-1.73c-.18-.57-1.44-.46-1.44-.46a5.62,5.62,0,0,1,0-1.42.49.49,0,0,0-.29-.5,4.54,4.54,0,0,0-1.89-.35c-.77-.55,2.35-4.92,3.51-6.32s1-2.48-.08-2.48c-.7,0-4.35,4.2-5.46,5.61s-4.1,5.33-4.2,2.2-1.36-5.5-2.14-5.9-1.64.54-1.2,1.41a11.67,11.67,0,0,1,.7,3.08,7.42,7.42,0,0,1-.12,2.53,27.21,27.21,0,0,1-1.35,4.51h-.07s-21.83,20.93-23.4,22.42-29.78-1.59-35.46-2.19a39.48,39.48,0,0,0-5.85-.4c-2.46.11-2.9.46-5.37.49a121.16,121.16,0,0,0-18.53,1.63,15.35,15.35,0,0,0-12.06,10.46c-5.74,17.9-18.71,60.27-21,84.07a101.53,101.53,0,0,0-4.69,9.68c-1.6,4.37-1.21,4.52-.67,4.62,1.45.27,3.12-7.59,3.74-5.69s-3.15,9.37-1.62,9.59c2,.29,3.58-8,3.77-8.66s1.19-.44,1,.17c-.29.88-3.11,10.21-1.15,10.51,1.09.17,1.2-1.81,1.2-1.81s2-8.92,2.91-8.75-.06,5.45-.52,7.21.19,2.66,1.12,2.22c.64-.3,2.18-5.64,2.59-7.39s1.47-6.56,2.88-3.77,3.55,4.41,4.43,4.45a1,1,0,0,0,.89-1.1,1,1,0,0,0-.39-.69,11.43,11.43,0,0,1-1.94-2.49,7.41,7.41,0,0,1-1-2.35,26.12,26.12,0,0,1-.7-5.06l-.16-1c2.24-11.1,8.69-43.64,18-64.43l3.81,7.85L41,176.88,30.82,202l43.41-.57-6.47-24.94,7.86-26h0c8.51.19,30.37.51,34-1.13,4.58-2.05,28.28-31.92,28.28-31.92h0a57.89,57.89,0,0,0,4.43-3.85S143.78,112.4,142.91,111.51Z"/><path class="cls-1" d="M28.93,183.45c1.25-4.3,7.72-25.56,7.72-25.56s3.18,17.33,2.35,19.42a37.41,37.41,0,0,1-2.73,5.16c-7.34,11.18-6.38,16.76-6.38,16.76l44.38-1.35c.11-6.2-3.56-20.62-4.33-22.91s1.78-9.84,1.78-9.84,5-5.09,4.81-7.71a43.49,43.49,0,0,0-.87-7l27,1-.85-18.31L63,129.25c-1.34,3.82-13.55,1.95-13.55,1.95-13.19.43-14,2.85-19.49,7.11s-14.55,40.82-14.55,40.82Z"/><path class="cls-2" d="M55.15,179.13a9.65,9.65,0,0,1-2.34.11c-1.44,0-3.44-.09-5.63-.31s-4.16-.54-5.58-.81a10.37,10.37,0,0,1-2.27-.58,11.41,11.41,0,0,1,2.33.21c1.43.19,3.39.44,5.57.66s4.16.36,5.6.47A10.64,10.64,0,0,1,55.15,179.13Z"/><path class="cls-2" d="M58.18,175.35a9.9,9.9,0,0,1-2.42.83,44.67,44.67,0,0,1-6.06,1.16,43.67,43.67,0,0,1-6.16.29A10.4,10.4,0,0,1,41,177.4a14.49,14.49,0,0,1,2.55-.14c1.56,0,3.73-.16,6.1-.44s4.5-.68,6-1A16.71,16.71,0,0,1,58.18,175.35Z"/><path class="cls-2" d="M73.1,158.53a9.62,9.62,0,0,1-.3,2.27c-.26,1.38-.67,3.28-1.18,5.36s-1,4-1.44,5.31a9.15,9.15,0,0,1-.78,2.14,10.67,10.67,0,0,1,.42-2.24c.38-1.56.82-3.35,1.3-5.33s.93-3.77,1.32-5.32A10.44,10.44,0,0,1,73.1,158.53Z"/><path class="cls-2" d="M29.39,181a47,47,0,0,1-6.83-1.59,45.93,45.93,0,0,1-6.69-2.1,50.14,50.14,0,0,1,6.83,1.6A47.55,47.55,0,0,1,29.39,181Z"/><path class="cls-2" d="M76.11,150.21a3.7,3.7,0,0,1-1.15,0,11,11,0,0,1-3-.73,12.6,12.6,0,0,1-4-2.42,12.4,12.4,0,0,1-3.25-4.68,12.81,12.81,0,0,1-.9-5.64,8.84,8.84,0,0,1,1.37-4.46,4.56,4.56,0,0,1,2.53-1.86,3.13,3.13,0,0,1,.86-.12.71.71,0,0,1,.29,0,6.51,6.51,0,0,0-1.09.27,4.7,4.7,0,0,0-2.28,1.87c-1.37,2.14-1.74,6-.3,9.7a12.39,12.39,0,0,0,3.1,4.53A12.92,12.92,0,0,0,72,149.1,19.25,19.25,0,0,0,76.11,150.21Z"/><path class="cls-2" d="M99.42,151.07a78.63,78.63,0,0,1-.24-9.21,83.44,83.44,0,0,1,.27-9.22,78.81,78.81,0,0,1,.25,9.22A83.27,83.27,0,0,1,99.42,151.07Z"/><path class="cls-11" d="M62.73,130.36c.11-2.23.35-4.75.35-4.75a6.69,6.69,0,0,0,5.85-6.31c.33-5.7,0-18.85,0-18.85l-10-5.11-11.06,8.72,1.68,28.5,10.17.65A2.94,2.94,0,0,0,62.73,130.36Z"/><path class="cls-12" d="M63.73,114.79a.51.51,0,0,1-.09.25.83.83,0,0,1-.64.28c-.64,0-1.25-.74-1.48-1.61a3,3,0,0,1,0-1.26,1.11,1.11,0,0,1,.6-.86.54.54,0,0,1,.43,0,.49.49,0,0,1,.22.23c.08.17,0,.27,0,.26a.3.3,0,0,0-.11-.2.36.36,0,0,0-.47-.1.9.9,0,0,0-.41.71,2.69,2.69,0,0,0,0,1.13c.2.78.73,1.41,1.21,1.47a.7.7,0,0,0,.54-.15C63.67,114.86,63.71,114.78,63.73,114.79Z"/><path class="cls-2" d="M72.36,97.38c-.77-2.63-3.56-3.93-6.1-4.65-3.87-1.1-8.06-1.58-11.84-.19s-8.32,3.84-8.32,8c-2.23-.18-3.5,1.77-4.39,4.19a16.11,16.11,0,0,0-1,4.6h0c-.29,5.46-1.81,13-5.35,17-2,2.23-4.78,3.77-5.92,6.55-1,2.42-.47,5.27-1.41,7.71-.83,2.15-2.66,3.68-4,5.55a14.85,14.85,0,0,0-.95,14.39A18.28,18.28,0,0,0,34,170a25.51,25.51,0,0,0,14.36.13A24.09,24.09,0,0,0,58,165.32,16.16,16.16,0,0,0,63.51,156c.7-4.08-.44-8.23-1.28-12.29-2.66-12.83-1.9-13.5,1.45-25.4.08-.21.13-.43.19-.65s.08-.31.13-.47h0a7.64,7.64,0,0,0,.16-1.43,2.72,2.72,0,0,1-2.89-.62,3,3,0,0,1-.69-3,4.3,4.3,0,0,1,2.58-2.43c1.11-.47,2.3-.7,3.39-1.22,2.31-1.1,3.91-3.38,5-5.77A7.9,7.9,0,0,0,72.36,97.38Z"/><path class="cls-7" d="M64.12,115a4.17,4.17,0,0,1,.53,1c.29.63.69,1.53,1.14,2.55l.08.19h-.21l-1,.09c-.7,0-1.28.13-2,.12a.4.4,0,0,1-.26-.23.62.62,0,0,1,0-.27,1.65,1.65,0,0,1,.09-.41l.18-.71a6.66,6.66,0,0,1,.42-1.38,6.94,6.94,0,0,1-.2,1.43l-.14.72c0,.24-.14.6,0,.57.5,0,1.21-.1,1.86-.15l1-.08-.13.21c-.42-1-.79-1.94-1-2.59A4.91,4.91,0,0,1,64.12,115Z"/><path class="cls-2" d="M29.89,199.23l44.38-1.35,19.28,75.34L90,359.64H66.49l2.91-84.58L52.27,222.61,54.89,363l-23.69.35-2.5-132c-.1-3.67-1.31-11.94-.86-15.58Z"/><path class="cls-3" d="M58.16,223.68a8.39,8.39,0,0,1-2.18-.13c-1.33-.16-3.17-.44-5.18-.84s-3.81-.86-5.1-1.23a8.4,8.4,0,0,1-2.06-.72c0-.14,3.26.64,7.26,1.44S58.17,223.53,58.16,223.68Z"/><path class="cls-3" d="M89.75,355c0,.14-5.31.26-11.87.26S66,355.09,66,355s5.31-.26,11.86-.26S89.75,354.76,89.75,355Z"/><path class="cls-3" d="M54.68,359.34c0,.15-5.15.26-11.51.26s-11.51-.11-11.51-.26,5.15-.26,11.51-.26S54.68,359.2,54.68,359.34Z"/><path class="cls-3" d="M51.63,359c-.15,0-.77-30.67-1.39-68.5s-1-68.5-.87-68.5.76,30.67,1.39,68.51S51.77,359,51.63,359Z"/><path class="cls-3" d="M86.6,355a1.41,1.41,0,0,1,0-.41v-1.2c0-1.08.07-2.62.13-4.6.14-4,.34-9.8.59-16.93.55-14.32,1.3-34.05,2.14-55.85v-.51c-5.26-21-10-40.07-13.45-53.86-1.69-6.87-3.06-12.43-4-16.31l-1.07-4.44c-.11-.49-.2-.87-.26-1.16a1.77,1.77,0,0,1-.08-.4,3,3,0,0,1,.13.39c.07.28.18.66.31,1.14.27,1,.66,2.52,1.16,4.42,1,3.87,2.42,9.42,4.17,16.27,3.49,13.78,8.29,32.79,13.6,53.82V276c-.9,21.8-1.71,41.53-2.29,55.84-.32,7.13-.58,12.9-.76,16.93-.1,2-.17,3.52-.23,4.6,0,.5,0,.9-.07,1.19A2.82,2.82,0,0,1,86.6,355Z"/><path class="cls-3" d="M79,273.56a28,28,0,0,1-5.19,1.16c-2.15.37-4,.62-4.83.67v-.21c.27.08.42.14.41.17s-.16,0-.44,0h-.61l.61-.18c.78-.22,2.62-.61,4.77-1A28.39,28.39,0,0,1,79,273.56Z"/><path class="cls-3" d="M78.5,276.44a27,27,0,0,1-4.67-.22,25.85,25.85,0,0,1-4.64-.51,17.46,17.46,0,0,1,4.68,0A17.28,17.28,0,0,1,78.5,276.44Z"/><path class="cls-13" d="M29.69,200.83a6.16,6.16,0,0,0,4.38,2.33,19.79,19.79,0,0,0,5.38-.11c11.44-1.27,23.57-2.44,34.78-5.17-14.51.82-29.83.54-44.34,1.35l-.15,1.24"/><g class="cls-14"><polygon points="44.65 221.28 52.83 253.01 52.25 222.61 44.65 221.28"/></g></g></svg>