<svg id="Speech_Bubble" data-name="Speech Bubble" xmlns="http://www.w3.org/2000/svg" viewBox="0 0 51.46 58.61"><defs><style>.cls-1{fill:#02c927;}</style></defs><path class="cls-1" d="M25.74,0h-.47l-1.36.1A14.59,14.59,0,0,0,21.72.4c-.47.07-.93.16-1.39.27l-1.55.43a25.38,25.38,0,0,0-7.37,3.65,25.89,25.89,0,0,0-7.26,8.08,27.31,27.31,0,0,0-2.54,5.81A27.85,27.85,0,0,0,.5,25.42,27.31,27.31,0,0,0,.56,29a14.76,14.76,0,0,0,.25,1.84,11.82,11.82,0,0,0,.35,1.85,26.37,26.37,0,0,0,15,18.33A23.77,23.77,0,0,0,24.75,53a23.15,23.15,0,0,0,9-1.29l.88-.33h.12l.1.06,12.61,6.4-.37.32C45.74,54,44.44,49.92,43.18,46v-.15l.11-.11a27,27,0,0,0,6.62-11,27.67,27.67,0,0,0,1-11.72,27.35,27.35,0,0,0-3.31-9.94,26.91,26.91,0,0,0-5.7-7,27.65,27.65,0,0,0-6.19-3.94A26.8,26.8,0,0,0,30.47.52l-2-.33L27,.08,26.14,0H27l1.45.06,2,.29A26.6,26.6,0,0,1,35.79,2a27.39,27.39,0,0,1,6.3,3.93,27,27,0,0,1,5.82,7A27.46,27.46,0,0,1,51.32,23a28.11,28.11,0,0,1-.93,11.92,27.31,27.31,0,0,1-6.72,11.23l.06-.26C45,49.74,46.3,53.79,47.66,58l.19.61-.57-.29L34.67,51.89h.22l-.9.33a24,24,0,0,1-9.17,1.32,24.33,24.33,0,0,1-8.77-2A26.32,26.32,0,0,1,3.52,40.33a26.59,26.59,0,0,1-2.83-7.4A15,15,0,0,1,.34,31C.26,30.41.13,29.79.1,29.17A29.65,29.65,0,0,1,1.21,18.61a26.9,26.9,0,0,1,2.61-5.88A26.19,26.19,0,0,1,11.23,4.6,25.21,25.21,0,0,1,18.72,1l1.57-.4a13.23,13.23,0,0,1,1.4-.25A13.71,13.71,0,0,1,23.9.09l1.37,0A3.71,3.71,0,0,1,25.74,0Z"/><path class="cls-1" d="M31.44,23.33H29.59l-4-5.62V14s-2.86-.18-2.52,4.65,0,3.6,0,3.6-6.07,0-6.57.55-.53,6.41-.6,9.68a3.54,3.54,0,0,0,2.51,3.56,2.37,2.37,0,0,0,.65.09c1.52,0,9.25-1.23,9.25-1.23H31.5Z"/><polygon class="cls-1" points="35.65 22.41 35.59 34.98 32.42 34.98 32.42 22.6 35.65 22.41"/></svg>