<svg width="18" height="18" viewBox="0 0 18 18" fill="none" xmlns="http://www.w3.org/2000/svg">
<path d="M8.84285 0H9.15715C10.0684 0.0239062 10.9779 0.170156 11.8427 0.461602C13.7595 1.09758 15.4424 2.40363 16.5414 4.09676C17.3616 5.34762 17.8569 6.80766 17.9712 8.29828C17.98 8.48004 17.9888 8.66145 18 8.84285V9.15715C17.9722 10.3852 17.704 11.6089 17.19 12.7259C16.6785 13.8473 15.9325 14.8613 15.0159 15.6857C14.0931 16.5178 12.9969 17.1577 11.8164 17.5472C10.9593 17.8323 10.0596 17.9771 9.15715 18H8.84285C7.6152 17.9705 6.3907 17.705 5.27414 17.19C3.43512 16.3547 1.89668 14.8806 0.981562 13.0802C0.49957 12.1395 0.188438 11.1122 0.0639844 10.0631C0.0217969 9.76289 0.0207422 9.45914 0 9.15715V8.84285C0.0101953 8.6734 0.0189844 8.50395 0.0267188 8.33414C0.143438 6.69551 0.726328 5.09344 1.6882 3.76172C2.78332 2.22996 4.36992 1.05539 6.15727 0.461602C7.02211 0.170859 7.93125 0.0232031 8.84285 0ZM12.6844 5.40703C11.4778 6.6143 10.2702 7.82086 9.06328 9.02812C8.5827 9.51469 8.0898 9.99 7.61695 10.4836C7.51746 10.4235 7.4373 10.3377 7.35187 10.2604C6.64875 9.61559 5.94492 8.97188 5.2418 8.32746C5.12191 8.21637 4.98551 8.11687 4.8252 8.07504C4.47961 7.97273 4.07426 8.10422 3.86684 8.40164C3.60703 8.7627 3.67348 9.30551 4.00711 9.59801C4.99148 10.5001 5.98184 11.3962 6.96727 12.2977C7.08047 12.4007 7.20316 12.4995 7.35012 12.5501C7.65352 12.6619 8.01352 12.5845 8.24836 12.363C8.57285 12.0547 8.88609 11.7345 9.20496 11.4198C10.7923 9.84305 12.3803 8.26699 13.9693 6.69199C14.1564 6.51621 14.2966 6.27539 14.2984 6.01312C14.3195 5.53746 13.9061 5.09098 13.429 5.08043C13.1442 5.06039 12.8725 5.19996 12.6844 5.40703Z" fill="#00B473"/>
</svg>
