<svg width="40" height="40" viewBox="0 0 40 40" fill="none" xmlns="http://www.w3.org/2000/svg">
<rect x="0.5" y="0.5" width="39" height="39" rx="5.5" fill="white" stroke="#E5E5E5"/>
<path d="M19.8591 10.1541C20.2851 10.1101 20.7141 10.1121 21.1401 10.1531C21.2761 10.6011 21.2101 11.0731 21.2181 11.5341C21.6621 11.5301 22.1071 11.5231 22.5501 11.5551C22.6111 12.0111 22.6691 12.5021 22.5141 12.9451C22.0821 12.9411 21.6501 12.9571 21.2181 12.9431C21.1721 13.3961 21.3551 13.9291 21.0831 14.3231C20.7271 14.3671 20.3641 14.3561 20.0061 14.3371C19.8351 14.3481 19.7891 14.1311 19.7821 14.0021C19.7691 13.6491 19.7781 13.2961 19.7821 12.9431C19.3501 12.9571 18.9181 12.9411 18.4861 12.9451C18.3301 12.5031 18.3901 12.0111 18.4491 11.5551C18.8931 11.5221 19.3381 11.5301 19.7821 11.5341C19.7891 11.0741 19.7241 10.6021 19.8591 10.1541Z" fill="#F6F6F6"/>
<path d="M16.7398 17.1591C17.3238 17.1341 17.9088 17.1531 18.4928 17.1501C18.7598 17.1311 19.0768 17.3121 19.0758 17.6051C19.0908 18.2341 19.0868 18.8651 19.0778 19.4941C19.0868 19.7891 18.7808 19.9961 18.5048 19.9741C17.9688 19.9791 17.4318 19.9761 16.8948 19.9751C16.6168 19.9961 16.2848 19.8111 16.2948 19.5011C16.2738 18.8991 16.2858 18.2961 16.2888 17.6941C16.2638 17.4281 16.4748 17.1821 16.7398 17.1591Z" fill="#F6F6F6"/>
<path d="M22.3408 17.164C22.9228 17.127 23.5088 17.157 24.0918 17.148C24.3688 17.122 24.6948 17.296 24.7038 17.602C24.7228 18.234 24.7208 18.869 24.7048 19.501C24.7148 19.812 24.3818 19.996 24.1038 19.975C23.5368 19.973 22.9698 19.987 22.4028 19.968C22.1568 19.961 21.9128 19.751 21.9218 19.494C21.9128 18.865 21.9088 18.235 21.9238 17.605C21.9198 17.378 22.1298 17.2 22.3408 17.164Z" fill="#F6F6F6"/>
<path d="M16.545 21.435C16.977 21.286 17.45 21.395 17.9 21.362C18.286 21.384 18.815 21.246 19.046 21.657C19.131 22.299 19.062 22.955 19.083 23.603C19.131 23.895 18.895 24.182 18.597 24.179C17.999 24.189 17.4 24.185 16.802 24.181C16.541 24.192 16.28 23.973 16.295 23.702C16.277 23.1 16.281 22.497 16.293 21.895C16.278 21.702 16.385 21.535 16.545 21.435Z" fill="#F6F6F6"/>
<path d="M22.228 21.412C22.809 21.3 23.414 21.392 24.005 21.361C24.296 21.326 24.678 21.467 24.698 21.802C24.729 22.434 24.719 23.069 24.705 23.702C24.718 23.973 24.46 24.192 24.199 24.181C23.6 24.185 23.001 24.189 22.403 24.179C22.147 24.183 21.902 23.957 21.92 23.695C21.915 23.068 21.908 22.44 21.924 21.813C21.918 21.628 22.069 21.48 22.228 21.412Z" fill="#F6F6F6"/>
<path d="M19.0819 26.195C19.0539 25.893 19.2889 25.591 19.5989 25.582C20.0999 25.564 20.6019 25.582 21.1039 25.574C21.3279 25.573 21.5909 25.56 21.7559 25.744C21.9369 25.909 21.9189 26.172 21.9219 26.395C21.9159 27.538 21.9239 28.68 21.9169 29.823C20.9719 29.824 20.0269 29.825 19.0819 29.823C19.0799 28.613 19.0779 27.404 19.0819 26.195Z" fill="#F6F6F6"/>
<path d="M16.3265 10.0602C16.3215 9.50925 16.7865 8.98425 17.3515 9.00225C19.0145 8.99925 20.6765 8.99925 22.3395 9.00225C22.9045 8.98425 23.3695 9.50925 23.3645 10.0602C23.3715 11.1102 23.3685 12.1602 23.3645 13.2112C24.6555 13.2192 25.9465 13.2092 27.2375 13.2152C27.7975 13.1902 28.3005 13.7052 28.2785 14.2622C28.2845 19.5362 28.2755 24.8112 28.2835 30.0862C28.6255 30.0932 28.9695 30.0732 29.3105 30.1073C29.4945 30.1302 29.6115 30.3043 29.6685 30.4653C29.6945 30.8002 29.6705 31.1362 29.6785 31.4722C23.1235 31.4742 16.5675 31.4742 10.0125 31.4722C10.0745 31.0392 9.8405 30.4692 10.2425 30.1572C10.6115 30.0252 11.0225 30.1152 11.4085 30.0852C11.4155 24.8112 11.4065 19.5362 11.4125 14.2622C11.3905 13.7052 11.8935 13.1912 12.4535 13.2152C13.7445 13.2092 15.0355 13.2182 16.3265 13.2112C16.3225 12.1612 16.3195 11.1102 16.3265 10.0602ZM19.2045 10.4202C19.0695 10.8682 19.1345 11.3403 19.1275 11.8002C18.6835 11.7962 18.2385 11.7882 17.7945 11.8212C17.7355 12.2772 17.6755 12.7692 17.8315 13.2112C18.2635 13.2072 18.6955 13.2232 19.1275 13.2092C19.1235 13.5622 19.1145 13.9152 19.1275 14.2682C19.1345 14.3972 19.1805 14.6142 19.3515 14.6032C19.7095 14.6222 20.0725 14.6332 20.4285 14.5892C20.7005 14.1952 20.5175 13.6622 20.5635 13.2092C20.9955 13.2232 21.4275 13.2072 21.8595 13.2112C22.0145 12.7682 21.9565 12.2772 21.8955 11.8212C21.4525 11.7892 21.0075 11.7962 20.5635 11.8002C20.5555 11.3392 20.6215 10.8672 20.4855 10.4192C20.0595 10.3782 19.6305 10.3762 19.2045 10.4202ZM16.0855 17.4252C15.8205 17.4482 15.6095 17.6942 15.6345 17.9602C15.6315 18.5622 15.6195 19.1652 15.6405 19.7672C15.6305 20.0772 15.9625 20.2622 16.2405 20.2412C16.7775 20.2422 17.3145 20.2452 17.8505 20.2402C18.1265 20.2622 18.4325 20.0552 18.4235 19.7602C18.4325 19.1312 18.4365 18.5002 18.4215 17.8712C18.4225 17.5782 18.1055 17.3972 17.8385 17.4162C17.2545 17.4192 16.6695 17.4002 16.0855 17.4252ZM21.6865 17.4302C21.4755 17.4662 21.2655 17.6442 21.2695 17.8712C21.2545 18.5012 21.2585 19.1312 21.2675 19.7602C21.2585 20.0172 21.5025 20.2272 21.7485 20.2342C22.3155 20.2532 22.8825 20.2392 23.4495 20.2412C23.7275 20.2622 24.0605 20.0782 24.0505 19.7672C24.0665 19.1352 24.0685 18.5002 24.0495 17.8682C24.0405 17.5622 23.7145 17.3882 23.4375 17.4142C22.8545 17.4232 22.2685 17.3932 21.6865 17.4302ZM15.8905 21.7013C15.7305 21.8012 15.6235 21.9682 15.6385 22.1612C15.6265 22.7632 15.6225 23.3663 15.6405 23.9683C15.6255 24.2393 15.8865 24.4582 16.1475 24.4472C16.7455 24.4512 17.3445 24.4552 17.9425 24.4452C18.2405 24.4482 18.4765 24.1612 18.4285 23.8692C18.4075 23.2212 18.4765 22.5653 18.3915 21.9233C18.1605 21.5123 17.6315 21.6502 17.2455 21.6282C16.7955 21.6612 16.3225 21.5522 15.8905 21.7013ZM21.5735 21.6782C21.4145 21.7462 21.2635 21.8942 21.2695 22.0793C21.2535 22.7063 21.2605 23.3342 21.2655 23.9612C21.2475 24.2232 21.4925 24.4492 21.7485 24.4452C22.3465 24.4552 22.9455 24.4512 23.5445 24.4472C23.8055 24.4582 24.0635 24.2393 24.0505 23.9683C24.0645 23.3352 24.0745 22.7003 24.0435 22.0683C24.0235 21.7333 23.6415 21.5922 23.3505 21.6272C22.7595 21.6582 22.1545 21.5662 21.5735 21.6782ZM18.4275 26.4612C18.4235 27.6702 18.4255 28.8792 18.4275 30.0892C19.3725 30.0912 20.3175 30.0902 21.2625 30.0892C21.2695 28.9462 21.2615 27.8042 21.2675 26.6612C21.2645 26.4382 21.2825 26.1752 21.1015 26.0103C20.9365 25.8263 20.6735 25.8393 20.4495 25.8403C19.9475 25.8482 19.4455 25.8302 18.9445 25.8482C18.6345 25.8573 18.3995 26.1592 18.4275 26.4612Z" fill="#002A37"/>
</svg>
