<svg width="40" height="40" viewBox="0 0 40 40" fill="none" xmlns="http://www.w3.org/2000/svg">
<rect x="0.5" y="0.5" width="39" height="39" rx="5.5" fill="white" stroke="#E5E5E5"/>
<path d="M19.2933 9.11963C19.4824 9.02339 19.7007 8.97183 19.912 9.01594C20.14 9.06406 20.34 9.19124 20.5479 9.29092C24.6851 11.3607 28.8241 13.4281 32.9613 15.4979C33.4064 15.6961 33.6315 16.269 33.4144 16.7112C33.2701 17.0635 32.892 17.2022 32.578 17.362C32.5849 19.5028 32.5786 21.6436 32.5809 23.7849C32.5517 23.9373 32.7058 23.9986 32.8015 24.0794C33.2237 24.3973 33.4751 24.9175 33.4952 25.4422C33.5347 26.2763 32.9298 27.0835 32.1157 27.2731C31.2811 27.5063 30.333 27.0422 29.9921 26.2482C29.7057 25.6255 29.8151 24.8459 30.2648 24.328C30.392 24.1676 30.5673 24.0588 30.7214 23.927C30.7609 23.8474 30.7426 23.754 30.75 23.6686C30.7437 21.8721 30.7512 20.0751 30.7466 18.2786C27.2183 20.039 23.6929 21.8051 20.1652 23.5672C19.9195 23.6898 19.6199 23.7024 19.3707 23.5827C15.2335 21.513 11.0962 19.4443 6.95846 17.3769C6.64567 17.2142 6.263 17.0939 6.10203 16.7502C5.86486 16.3205 6.05906 15.731 6.49959 15.5185C10.7623 13.3829 15.0295 11.2541 19.2933 9.11963Z" fill="#002A37"/>
<path d="M11.5025 21.7031C13.6261 22.748 15.7365 23.8199 17.8572 24.8722C18.276 25.0699 18.6742 25.3265 19.1319 25.4273C19.7397 25.5728 20.395 25.4932 20.9547 25.2165C23.3035 24.0496 25.6459 22.8706 27.9958 21.7049C28.0015 23.4664 27.9952 25.2274 27.9986 26.9889C27.9952 27.2307 28.0239 27.4879 27.9144 27.713C27.7775 27.9983 27.5083 28.1828 27.2734 28.3822C25.5479 29.7582 23.4341 30.6392 21.2434 30.905C17.9415 31.3295 14.4762 30.3167 11.9459 28.1479C11.699 27.9502 11.4933 27.6666 11.5008 27.3372C11.4996 25.4594 11.4967 23.581 11.5025 21.7031Z" fill="#002A37"/>
</svg>
