<svg width="20" height="20" viewBox="0 0 24 19" fill="none" xmlns="http://www.w3.org/2000/svg">
<path d="M11.4806 0.103319C11.6439 0.0202017 11.8324 -0.0243253 12.0149 0.0137701C12.2119 0.0553287 12.3845 0.165162 12.5641 0.251248C16.1372 2.03876 19.7117 3.8243 23.2848 5.61182C23.6692 5.783 23.8636 6.27774 23.6761 6.65969C23.5514 6.96395 23.2249 7.08368 22.9538 7.22172C22.9597 9.07058 22.9543 10.9194 22.9562 12.7688C22.931 12.9004 23.0641 12.9533 23.1467 13.0231C23.5113 13.2977 23.7285 13.7469 23.7459 14.2001C23.78 14.9205 23.2575 15.6175 22.5545 15.7813C21.8337 15.9827 21.0149 15.5819 20.7205 14.8962C20.4731 14.3584 20.5676 13.6851 20.956 13.2378C21.0658 13.0993 21.2172 13.0053 21.3503 12.8915C21.3844 12.8227 21.3686 12.7421 21.375 12.6684C21.3696 11.1168 21.376 9.56483 21.3721 8.01331C18.3249 9.53366 15.2803 11.059 12.2336 12.5808C12.0214 12.6867 11.7626 12.6976 11.5474 12.5942C7.97436 10.8066 4.40131 9.02012 0.827758 7.23458C0.557627 7.09407 0.227137 6.99018 0.0881132 6.69333C-0.116711 6.32227 0.0510072 5.81318 0.431467 5.62963C4.11287 3.78522 7.79823 1.94674 11.4806 0.103319Z" fill="#00B473"/>
<path d="M4.7521 10.9709C6.58612 11.8734 8.40876 12.799 10.2403 13.7079C10.602 13.8786 10.9458 14.1002 11.3411 14.1873C11.866 14.313 12.432 14.2442 12.9154 14.0052C14.9439 12.9974 16.9669 11.9792 18.9963 10.9724C19.0013 12.4938 18.9958 14.0146 18.9988 15.536C18.9958 15.7447 19.0206 15.9669 18.9261 16.1613C18.8078 16.4077 18.5753 16.567 18.3724 16.7392C16.8823 17.9276 15.0567 18.6885 13.1648 18.918C10.313 19.2846 7.32032 18.4099 5.13503 16.5368C4.9218 16.3661 4.74418 16.1212 4.75061 15.8368C4.74962 14.215 4.74715 12.5927 4.7521 10.9709Z" fill="#00B473"/>
</svg>
