<svg width="40" height="40" viewBox="0 0 40 40" fill="none" xmlns="http://www.w3.org/2000/svg">
<rect x="0.5" y="0.5" width="39" height="39" rx="5.5" fill="white" stroke="#E5E5E5"/>
<path d="M20.1937 8H20.8071C21.1311 8.03902 21.4571 8.07328 21.774 8.15608C23.0202 8.46014 24.1389 9.2429 24.8617 10.3021C25.4613 11.1715 25.7929 12.225 25.7877 13.2818C25.7963 14.5228 25.3437 15.7591 24.5391 16.7031C23.7435 17.6486 22.6086 18.3072 21.3871 18.5056C20.3246 18.6903 19.2063 18.5347 18.2332 18.0702C17.1388 17.5492 16.2319 16.6432 15.717 15.5449C15.1802 14.4167 15.066 13.0948 15.3996 11.8914C15.7489 10.6029 16.6116 9.46654 17.7507 8.77372C18.4864 8.31929 19.3353 8.0709 20.1937 8Z" fill="#002A37"/>
<path d="M17.2832 19.7686C18.1663 19.485 19.099 19.3713 20.025 19.3832C20.7449 19.3912 21.4682 19.3537 22.1843 19.4455C22.5888 19.4969 22.9937 19.5645 23.3849 19.6815C23.4653 19.7001 23.4686 19.7976 23.4934 19.8614C23.6247 20.3777 23.7284 20.9006 23.8236 21.4245C23.904 21.9494 24.0101 22.4814 23.9606 23.0143C22.8124 23.5668 21.7047 24.2905 20.9224 25.314C20.526 25.8498 20.2462 26.5032 20.2743 27.1798C20.3067 27.8441 20.6735 28.4603 21.1827 28.8752C21.3411 29.0042 21.5177 29.1579 21.7375 29.1351C22.0202 29.1232 22.2481 28.8391 22.201 28.5602C22.1839 28.3256 21.9631 28.2019 21.8022 28.0654C21.4611 27.7879 21.2222 27.3392 21.305 26.8915C21.3968 26.3362 21.7461 25.8679 22.1291 25.4735C22.6683 24.9324 23.3073 24.5004 23.9768 24.1378C24.0796 24.0802 24.1867 24.0312 24.2966 23.9888C24.949 24.5655 25.5385 25.2284 25.9673 25.9902C26.2361 26.4799 26.446 27.0342 26.3836 27.6024C26.3441 28.0306 26.0106 28.3728 25.6399 28.555C25.4557 28.6506 25.2207 28.693 25.1065 28.8848C24.9447 29.1336 25.0665 29.501 25.3382 29.6137C25.5671 29.7141 25.8098 29.5947 26.0187 29.5005C26.6487 29.2117 27.1807 28.6597 27.3458 27.9754C27.5233 27.2036 27.3201 26.3952 26.967 25.7033C26.4974 24.7825 25.8074 23.9912 25.0475 23.2984C24.9794 23.2479 24.9828 23.1613 24.9856 23.0866C25.0256 22.0726 24.7953 21.0767 24.5959 20.0898C26.1605 20.7303 27.5114 21.8637 28.4645 23.256C29.4485 24.6955 29.9929 26.4313 29.9991 28.1753C29.9991 29.3972 30.0015 30.6192 29.9986 31.8412C30.0095 32.0819 29.8259 32.2699 29.6198 32.3632H11.3827C11.1562 32.2689 10.9764 32.051 11.0025 31.795C11.0044 30.7948 11.003 29.7946 11.0035 28.7943C11.0054 28.3823 10.993 27.9692 11.0297 27.5581C11.1167 26.3709 11.4541 25.2037 12.0061 24.1492C12.7327 22.7612 13.8328 21.5725 15.1614 20.7417C15.4122 20.5885 15.6615 20.4281 15.9365 20.3215C15.8466 20.6218 15.72 20.9097 15.6277 21.2094C15.1443 22.6493 14.8055 24.1354 14.578 25.6362C14.253 25.7414 13.9309 25.877 13.6768 26.112C13.2252 26.5051 12.954 27.0994 12.9678 27.6994C12.9678 28.387 13.3451 29.0551 13.9237 29.4229C14.4077 29.7422 15.0286 29.835 15.5873 29.6861C16.4371 29.4734 17.0966 28.6711 17.1342 27.7946C17.1842 27.0832 16.8268 26.3666 16.2382 25.9674C16.0474 25.8284 15.8223 25.7532 15.6106 25.6538C15.6496 25.3117 15.72 24.9738 15.78 24.6345C16.1097 22.9667 16.5851 21.3213 17.2832 19.7686Z" fill="#002A37"/>
</svg>
