<svg width="40" height="40" viewBox="0 0 40 40" fill="none" xmlns="http://www.w3.org/2000/svg">
<rect x="0.5" y="0.5" width="39" height="39" rx="5.5" fill="white" stroke="#E5E5E5"/>
<path d="M19.6227 9.01223C21.0796 8.93157 22.5566 9.25099 23.844 9.93841C25.3095 10.7147 26.5235 11.9544 27.2682 13.436C27.6692 14.2265 27.9346 15.0854 28.0551 15.9634C28.1367 16.6055 28.1715 17.2613 28.0523 17.9015C27.8599 18.9464 27.4634 19.9404 27.0212 20.9018C26.2907 22.4563 25.4117 23.9361 24.4796 25.377C23.2899 27.2014 22.0172 28.9717 20.6708 30.6843C20.554 30.8369 20.3876 30.9561 20.1951 30.9877C19.9289 31.0395 19.6452 30.9244 19.4816 30.7095C18.5806 29.5711 17.72 28.4007 16.8873 27.211C15.4978 25.2046 14.1697 23.1428 13.1234 20.933C12.7055 20.0311 12.3329 19.1008 12.1211 18.127C12.0011 17.5839 11.9736 17.0234 12.024 16.4698C12.1399 14.765 12.8287 13.1088 13.9442 11.8155C15.0134 10.5653 16.473 9.65428 18.0687 9.25099C18.5769 9.11947 19.0994 9.0466 19.6227 9.01223ZM19.6718 13.4268C18.4931 13.5707 17.4642 14.5047 17.2113 15.6651C17.0412 16.3649 17.1503 17.1247 17.5009 17.7525C17.906 18.4922 18.6471 19.0385 19.4747 19.203C20.1626 19.3487 20.9041 19.2333 21.5136 18.8818C21.9508 18.6329 22.3215 18.269 22.58 17.8378C22.9586 17.2177 23.0864 16.4515 22.9361 15.7412C22.7743 14.9245 22.2404 14.1926 21.5159 13.7838C20.9618 13.469 20.3033 13.3366 19.6718 13.4268Z" fill="#002A37"/>
</svg>
