<svg width="40" height="40" viewBox="0 0 40 40" fill="none" xmlns="http://www.w3.org/2000/svg">
<rect x="0.5" y="0.5" width="39" height="39" rx="5.5" fill="white" stroke="#E5E5E5"/>
<path d="M13.4641 9H26.5296C26.6709 9.02578 26.8235 9.0752 26.9051 9.20324C27.0082 9.34117 27.0061 9.52164 27.0065 9.68578C27.0022 10.1305 27.0065 10.5752 27.0048 11.0195C27.0048 11.1845 26.9657 11.3637 26.8321 11.4729C26.6993 11.5983 26.5046 11.5919 26.3345 11.5949C25.1769 11.5889 24.0193 11.6005 22.8618 11.5884C23.3529 12.2566 23.6932 13.0287 23.8599 13.8413C24.7133 13.8443 25.5671 13.8417 26.4204 13.8421C26.5854 13.8434 26.7698 13.8598 26.8892 13.9887C27.0293 14.1189 27.0349 14.3225 27.0366 14.5004C27.0349 14.9297 27.0349 15.3594 27.0366 15.7886C27.0319 15.9463 27.0349 16.1234 26.927 16.2505C26.8286 16.3782 26.6662 16.4345 26.5098 16.434C25.6401 16.4443 24.7704 16.425 23.9012 16.4435C23.7297 17.5791 23.2476 18.6774 22.4699 19.5295C21.7111 20.3713 20.7168 20.9831 19.6481 21.3488C18.9864 21.5855 18.2933 21.7119 17.6002 21.8124C17.6432 21.8704 17.6849 21.9289 17.7334 21.9826C20.1285 24.5702 22.3723 27.2927 24.6114 30.0147C24.7129 30.1462 24.8495 30.2704 24.8731 30.4436C24.8929 30.6846 24.7279 30.9055 24.513 31H21.1933C21.085 30.9532 20.9845 30.887 20.9097 30.7955C18.4837 27.9015 16.043 25.017 13.4735 22.2494C13.3463 22.1038 13.2015 21.9736 13.0902 21.815C12.9983 21.6882 13.0034 21.5237 13 21.3746C13.0039 20.8018 13 20.2286 13.0013 19.6558C12.9979 19.4827 13.046 19.2979 13.1865 19.1853C13.3627 19.028 13.6149 19.068 13.8314 19.0633C14.5611 19.0581 15.292 19.083 16.0207 19.0328C17.0025 18.9679 18.005 18.7612 18.8459 18.2275C19.4857 17.8236 19.9932 17.183 20.1638 16.4387C17.9663 16.4327 15.7685 16.4388 13.5711 16.4357C13.4112 16.437 13.2398 16.3988 13.1302 16.2742C13.0047 16.1466 13.0039 15.9558 13.0004 15.7886C13.0017 15.3594 13.0021 14.9301 13.0004 14.5004C13.0017 14.3225 13.0086 14.1197 13.1478 13.9887C13.2668 13.8598 13.4516 13.8439 13.6166 13.8421C15.7242 13.8426 17.8318 13.843 19.9399 13.8417C19.8419 13.6024 19.6795 13.3966 19.5033 13.2101C19.087 12.7795 18.5284 12.5179 17.9616 12.3473C17.2204 12.1363 16.4457 12.0869 15.6787 12.0783C14.9766 12.0783 14.2745 12.0787 13.5728 12.0787C13.4065 12.0826 13.235 12.0267 13.1272 11.8948C13.015 11.7754 13.0013 11.6043 13.0004 11.4488C13.0017 10.8477 13.0021 10.2465 13.0004 9.64496C13.0034 9.48812 13.0047 9.31324 13.1121 9.18691C13.1951 9.07477 13.3326 9.02707 13.4641 9Z" fill="#002A37"/>
</svg>
