<svg width="20" height="20" viewBox="0 0 19 25" fill="none" xmlns="http://www.w3.org/2000/svg">
<path d="M9.19389 0H9.80725C10.1313 0.039019 10.4572 0.0732796 10.7742 0.156076C12.0204 0.460139 13.1391 1.2429 13.8619 2.30212C14.4615 3.17148 14.7931 4.22499 14.7879 5.28184C14.7964 6.52283 14.3439 7.75907 13.5393 8.70314C12.7437 9.64863 11.6088 10.3072 10.3873 10.5056C9.32475 10.6903 8.20652 10.5347 7.23342 10.0702C6.13899 9.54918 5.23204 8.64318 4.71717 7.54494C4.18043 6.41672 4.06622 5.09483 4.39979 3.89143C4.74906 2.60285 5.61176 1.46654 6.75092 0.773718C7.48657 0.319289 8.33547 0.0709004 9.19389 0Z" fill="#00B473"/>
<path d="M6.28316 11.7687C7.16633 11.4851 8.09897 11.3713 9.02496 11.3832C9.74491 11.3913 10.4682 11.3537 11.1843 11.4456C11.5888 11.4969 11.9937 11.5645 12.3849 11.6816C12.4653 11.7001 12.4686 11.7977 12.4934 11.8614C12.6247 12.3777 12.7284 12.9007 12.8236 13.4246C12.904 13.9494 13.0101 14.4814 12.9606 15.0144C11.8124 15.5668 10.7047 16.2906 9.9224 17.3141C9.52602 17.8499 9.24623 18.5032 9.2743 19.1799C9.30666 19.8442 9.67353 20.4604 10.1827 20.8753C10.3411 21.0043 10.5177 21.158 10.7375 21.1351C11.0202 21.1232 11.2481 20.8391 11.201 20.5603C11.1839 20.3257 10.9631 20.202 10.8022 20.0654C10.4611 19.788 10.2222 19.3393 10.305 18.8915C10.3968 18.3362 10.7461 17.868 11.1291 17.4735C11.6683 16.9325 12.3073 16.5004 12.9768 16.1378C13.0796 16.0803 13.1867 16.0312 13.2966 15.9889C13.949 16.5656 14.5385 17.2285 14.9673 17.9903C15.2361 18.4799 15.446 19.0343 15.3836 19.6024C15.3441 20.0307 15.0106 20.3728 14.6399 20.5551C14.4557 20.6507 14.2207 20.6931 14.1065 20.8848C13.9447 21.1337 14.0665 21.501 14.3382 21.6138C14.5671 21.7142 14.8098 21.5948 15.0187 21.5006C15.6487 21.2117 16.1807 20.6597 16.3458 19.9755C16.5233 19.2037 16.3201 18.3952 15.967 17.7033C15.4974 16.7826 14.8074 15.9913 14.0475 15.2984C13.9794 15.248 13.9828 15.1614 13.9856 15.0867C14.0256 14.0727 13.7953 13.0767 13.5959 12.0898C15.1605 12.7303 16.5114 13.8638 17.4645 15.2561C18.4485 16.6955 18.9929 18.4314 18.9991 20.1753C18.9991 21.3973 19.0015 22.6193 18.9986 23.8412C19.0095 24.082 18.8259 24.27 18.6198 24.3632H0.382733C0.156232 24.269 -0.0236356 24.0511 0.00253564 23.7951C0.00443901 22.7948 0.00301151 21.7946 0.00348735 20.7944C0.00539071 20.3823 -0.0069812 19.9693 0.0296586 19.5582C0.116738 18.3709 0.454109 17.2037 1.00609 16.1492C1.73269 14.7612 2.83284 13.5726 4.16139 12.7417C4.41216 12.5885 4.6615 12.4282 4.93653 12.3216C4.8466 12.6218 4.72003 12.9097 4.62771 13.2095C4.14426 14.6494 3.80546 16.1354 3.57801 17.6363C3.25301 17.7414 2.93086 17.877 2.67676 18.1121C2.22519 18.5051 1.95396 19.0995 1.96776 19.6995C1.96776 20.3871 2.3451 21.0552 2.92373 21.423C3.40766 21.7423 4.02863 21.8351 4.58727 21.6861C5.43712 21.4734 6.09663 20.6712 6.13423 19.7947C6.18419 19.0833 5.82683 18.3667 5.23822 17.9674C5.0474 17.8285 4.82233 17.7533 4.61058 17.6539C4.6496 17.3117 4.72003 16.9739 4.77998 16.6346C5.10974 14.9668 5.58511 13.3213 6.28316 11.7687Z" fill="#00B473"/>
</svg>
