<svg xmlns="http://www.w3.org/2000/svg" viewBox="0 0 500 372.61"><defs><style>.cls-1{fill:#ebebeb;}.cls-2{fill:#f5f5f5;}.cls-10,.cls-11,.cls-3{fill:#fff;}.cls-4{fill:#fafafa;}.cls-5{fill:#e0e0e0;}.cls-6{fill:#f0f0f0;}.cls-7{fill:#02c927;}.cls-8{fill:#263238;}.cls-15,.cls-17,.cls-9{fill:#407bff;}.cls-10{opacity:0.3;}.cls-11{opacity:0.1;}.cls-12{fill:#ffb573;}.cls-13{opacity:0.2;}.cls-14{fill:#ed893e;}.cls-15{opacity:0.4;}.cls-16{fill:#7fe28a;}.cls-17{opacity:0.15;}</style></defs><g id="Background_Complete" data-name="Background Complete"><rect class="cls-1" y="327.45" width="500" height="0.25"/><rect class="cls-1" x="416.78" y="343.54" width="33.12" height="0.25"/><rect class="cls-1" x="322.53" y="346.26" width="8.69" height="0.25"/><rect class="cls-1" x="368.11" y="334.26" width="47.67" height="0.25"/><rect class="cls-1" x="52.46" y="335.94" width="23.68" height="0.25"/><rect class="cls-1" x="85.04" y="335.94" width="25.85" height="0.25"/><rect class="cls-1" x="131.47" y="340.16" width="64.64" height="0.25"/><path class="cls-1" d="M237,337.8H43.91a5.71,5.71,0,0,1-5.7-5.71V60.66A5.71,5.71,0,0,1,43.91,55H237a5.71,5.71,0,0,1,5.71,5.71V332.09A5.71,5.71,0,0,1,237,337.8ZM43.91,55.2a5.46,5.46,0,0,0-5.45,5.46V332.09a5.46,5.46,0,0,0,5.45,5.46H237a5.47,5.47,0,0,0,5.46-5.46V60.66A5.47,5.47,0,0,0,237,55.2Z" transform="translate(0 -54.95)"/><path class="cls-1" d="M453.31,337.8H260.21a5.72,5.72,0,0,1-5.71-5.71V60.66A5.72,5.72,0,0,1,260.21,55h193.1A5.71,5.71,0,0,1,459,60.66V332.09A5.71,5.71,0,0,1,453.31,337.8ZM260.21,55.2a5.47,5.47,0,0,0-5.46,5.46V332.09a5.47,5.47,0,0,0,5.46,5.46h193.1a5.47,5.47,0,0,0,5.46-5.46V60.66a5.47,5.47,0,0,0-5.46-5.46Z" transform="translate(0 -54.95)"/><rect class="cls-1" x="283.44" y="26.05" width="157.97" height="301.4"/><rect class="cls-2" x="295.19" y="35.88" width="134.47" height="291.57"/><rect class="cls-3" x="343.53" y="60.06" width="37.81" height="10.45"/><path class="cls-3" d="M398.37,218.82h20.51a3.2,3.2,0,0,1,3.2,3.2h0a3.2,3.2,0,0,1-3.2,3.2H398.37a3.2,3.2,0,0,1-3.2-3.2h0A3.2,3.2,0,0,1,398.37,218.82Z" transform="translate(0 -54.95)"/><rect class="cls-1" x="70.38" y="58.12" width="105.06" height="84.67"/><rect class="cls-4" x="86.21" y="108.52" width="73.39" height="93.78" transform="translate(278.31 -22.45) rotate(90)"/><rect class="cls-5" x="121.15" y="118.66" width="3.51" height="71.91" transform="translate(277.52 -23.24) rotate(90)"/><rect class="cls-5" x="121.15" y="126.65" width="3.51" height="71.91" transform="translate(285.51 -15.26) rotate(90)"/><rect class="cls-5" x="121.15" y="134.63" width="3.51" height="71.91" transform="translate(293.49 -7.27) rotate(90)"/><rect class="cls-5" x="121.15" y="160.65" width="3.51" height="35.85" transform="translate(301.48 0.72) rotate(90)"/><path class="cls-1" d="M87,118.71A10.93,10.93,0,0,1,76,129.64a10.82,10.82,0,0,1-5.64-1.57v-15h15A10.93,10.93,0,0,1,87,118.71Z" transform="translate(0 -54.95)"/><path class="cls-1" d="M175.44,113.07v15a10.93,10.93,0,0,1-15-15Z" transform="translate(0 -54.95)"/><path class="cls-1" d="M87,192.11a10.87,10.87,0,0,1-1.56,5.63h-15v-15A10.94,10.94,0,0,1,87,192.11Z" transform="translate(0 -54.95)"/><path class="cls-1" d="M175.44,182.73v15h-15a10.78,10.78,0,0,1-1.57-5.63,10.95,10.95,0,0,1,16.58-9.38Z" transform="translate(0 -54.95)"/><circle class="cls-5" cx="122.91" cy="136.58" r="9.31" transform="translate(-31.6 181.07) rotate(-80.78)"/><rect class="cls-1" x="52.46" y="207.2" width="207.88" height="7.48"/><rect class="cls-2" x="191" y="214.68" width="67.54" height="112.77"/><rect class="cls-2" x="55.03" y="214.68" width="67.54" height="112.77"/><rect class="cls-1" x="55.03" y="214.68" width="2.31" height="112.77"/><rect class="cls-1" x="191" y="214.68" width="2.31" height="112.77"/><polygon class="cls-6" points="90.5 189.17 78.08 189.17 79.08 207.2 89.5 207.2 90.5 189.17"/><rect class="cls-6" x="133.44" y="199.38" width="64.89" height="7.82"/><rect class="cls-4" x="168.42" y="200.3" width="29.92" height="5.99"/></g><g id="Shadow"><ellipse id="_Path_" data-name="&lt;Path&gt;" class="cls-2" cx="250" cy="361.29" rx="193.89" ry="11.32"/></g><g id="Cross_icon" data-name="Cross icon"><circle class="cls-3" cx="340.71" cy="259.59" r="31.68"/><path class="cls-7" d="M340.71,346.61a32.07,32.07,0,1,1,32.06-32.07A32.1,32.1,0,0,1,340.71,346.61Zm0-63.35A31.29,31.29,0,1,0,372,314.54,31.31,31.31,0,0,0,340.71,283.26Z" transform="translate(0 -54.95)"/><rect class="cls-7" x="335.61" y="241.63" width="10.2" height="35.92"/><rect class="cls-7" x="335.61" y="296.58" width="10.2" height="35.92" transform="translate(655.25 -81.12) rotate(90)"/></g><g id="Pulse_icon" data-name="Pulse icon"><path class="cls-7" d="M126.11,75.07l-.68-.73a30.75,30.75,0,0,1,16.81-8.1l.14,1A29.74,29.74,0,0,0,126.11,75.07Z" transform="translate(0 -54.95)"/><path class="cls-7" d="M118.71,86l-.93-.36a30.77,30.77,0,0,1,4-7.14l.8.6A30.24,30.24,0,0,0,118.71,86Z" transform="translate(0 -54.95)"/><circle class="cls-7" cx="146.61" cy="41.92" r="27.44"/><path class="cls-3" d="M163,84.51a11.46,11.46,0,0,0-16.36-.15,11.45,11.45,0,0,0-16.35.15,11.71,11.71,0,0,0,.41,16.32l13,13a4.2,4.2,0,0,0,5.94,0l13-13A11.71,11.71,0,0,0,163,84.51Z" transform="translate(0 -54.95)"/><path class="cls-7" d="M146.61,108.86h0a1,1,0,0,1-.91-.67l-5.79-16.93-2.42,7.08a1,1,0,0,1-.95.67h-9.69a1,1,0,0,1,0-2h9l3.14-9.17a1,1,0,0,1,1.89,0l5.89,17.23,5.72-13.47a1,1,0,0,1,.86-.61,1,1,0,0,1,.93.51L157.3,97h9.11a1,1,0,0,1,0,2h-9.69a1,1,0,0,1-.88-.51l-2.37-4.24-5.94,14A1,1,0,0,1,146.61,108.86Z" transform="translate(0 -54.95)"/></g><g id="Character"><path class="cls-8" d="M298.86,381.2H194.49A12.26,12.26,0,0,1,182.13,368L199,118a14.44,14.44,0,0,1,14.15-13.25H317.54A12.26,12.26,0,0,1,329.9,118L313,368A14.43,14.43,0,0,1,298.86,381.2Z" transform="translate(0 -54.95)"/><path class="cls-8" d="M322,206.56h-2.63a3.42,3.42,0,0,1-3.45-3.7l3.23-47.79a4,4,0,0,1,3.95-3.7h2.63a3.42,3.42,0,0,1,3.45,3.7l-3.23,47.79A4,4,0,0,1,322,206.56Z" transform="translate(0 -54.95)"/><path class="cls-9" d="M197.48,174.68h-2.62a2.8,2.8,0,0,1-2.83-3l1.17-17.26a3.3,3.3,0,0,1,3.23-3h2.63a2.81,2.81,0,0,1,2.82,3l-1.17,17.26A3.29,3.29,0,0,1,197.48,174.68Z" transform="translate(0 -54.95)"/><path class="cls-9" d="M195.4,205.5h-2.63a2.8,2.8,0,0,1-2.82-3l1.17-17.26a3.3,3.3,0,0,1,3.23-3H197a2.81,2.81,0,0,1,2.82,3l-1.17,17.26A3.29,3.29,0,0,1,195.4,205.5Z" transform="translate(0 -54.95)"/><path class="cls-7" d="M296.65,381.2H192.28A12.26,12.26,0,0,1,179.92,368L196.8,118A14.44,14.44,0,0,1,211,104.79H315.33A12.26,12.26,0,0,1,327.69,118L310.8,368A14.43,14.43,0,0,1,296.65,381.2Z" transform="translate(0 -54.95)"/><polygon class="cls-10" points="181.02 310.24 197.5 66.29 326.56 66.29 310.08 310.24 181.02 310.24"/><polygon class="cls-11" points="231.97 310.24 278.03 66.29 306.94 66.29 260.88 310.24 231.97 310.24"/><polygon class="cls-11" points="210.13 310.24 256.19 66.29 270.84 66.29 224.78 310.24 210.13 310.24"/><path class="cls-3" d="M250.14,110.92h25.17a1.5,1.5,0,0,1,1.52,1.63h0a1.78,1.78,0,0,1-1.74,1.64H249.92a1.51,1.51,0,0,1-1.52-1.64h0A1.77,1.77,0,0,1,250.14,110.92Z" transform="translate(0 -54.95)"/><polygon class="cls-12" points="231.04 349.66 222.21 350.5 219.03 330.15 227.86 329.3 231.04 349.66"/><path class="cls-8" d="M221.21,401.14l9.23-2.87a.66.66,0,0,1,.83.38l3,7.34a1.5,1.5,0,0,1-.95,1.95c-3.34,1-6.51,1.24-10.54,3-4.71,2-6.69,4.67-11.75,4.67-3.63,0-4.45-3.32-2.92-3.79,7-2.12,6.09-3.86,11.17-9.32A4.55,4.55,0,0,1,221.21,401.14Z" transform="translate(0 -54.95)"/><polygon class="cls-13" points="219.03 330.15 220.67 340.65 229.5 339.8 227.86 329.31 219.03 330.15"/><path class="cls-3" d="M225.42,128c-11.57-1.36-23.08-.44-34.63,1.8a9.23,9.23,0,0,0-7.42,8c-1.25,11.06-2.68,35.85,2.9,72.82,0,0,47.28-4,47.28-4,.1-6.71-4.68-37.28-.73-69A8.48,8.48,0,0,0,225.42,128Z" transform="translate(0 -54.95)"/><path class="cls-8" d="M197.88,137.44l1.7,3.39a1.05,1.05,0,0,0,.88.58l1.83.09a1.44,1.44,0,0,0,.92-.27l3.15-2.35-3.9-2.83Z" transform="translate(0 -54.95)"/><path class="cls-8" d="M202.36,140.54a3,3,0,0,0-2.13-.17c-1.5,5.24-3.13,20.32-3.29,27,4.52,13.16,6,14.5,6,14.5l2.3-15.85S202.66,149.8,202.36,140.54Z" transform="translate(0 -54.95)"/><path class="cls-12" d="M215.41,105.16c-1.08,6.52-2,18.44,2.67,22.65-3.42,3.59-7.91,7.76-15.61,8.23s-6.52-4.86-4.56-7.71c7.18-1.91,6.84-7.27,5.43-12.28Z" transform="translate(0 -54.95)"/><path class="cls-2" d="M220.05,127.23a9.41,9.41,0,0,0-1.7-.55.67.67,0,0,0-.74.31c-.75,1.26-3,6.89-15.15,9.06,2,1.17,4.65,4.84,5.8,6.59,3.64-1.89,13.11-7.54,12.2-14.85A.7.7,0,0,0,220.05,127.23Z" transform="translate(0 -54.95)"/><path class="cls-2" d="M198,128.63a.7.7,0,0,0-.81-.84,10.6,10.6,0,0,0-1.25.34.89.89,0,0,0-.25.14c-.93.86-6,8.18-1.26,14.1,1.06-1.6,4.45-5.26,8.06-6.32C199.05,134.5,197.37,131.64,198,128.63Z" transform="translate(0 -54.95)"/><path class="cls-13" d="M210.49,109.6,203.34,116a20.85,20.85,0,0,1,.73,3.56c2.75-.47,6.46-3.6,6.67-6.5A10,10,0,0,0,210.49,109.6Z" transform="translate(0 -54.95)"/><path class="cls-8" d="M200.94,85.45c-6.15,2.41-6.56,7.47-5.95,13s6.58,1.87,7.91-1.58S209.48,82.12,200.94,85.45Z" transform="translate(0 -54.95)"/><path class="cls-12" d="M220.59,96.48c-1.71,8.71-2.27,13.89-7.26,17.9-7.5,6-17.68.81-18.57-8.17-.81-8.09,2.12-21,11.09-23.51A11.71,11.71,0,0,1,220.59,96.48Z" transform="translate(0 -54.95)"/><path class="cls-8" d="M220.24,103.7c-7.34.39-5.78-3.78-4.45-6.17s-1.39-6.33.39-8.39c-3.17,1.26-6.49.22-10.72-2.72-3.29-2.29-7.39,6.87-11.39,2.28-3.78-4.34-.27-10.86,8.8-11.92s10.73,5.38,16.7,4.81,3.89,4.33,2.72,5.33C227.29,87.25,230,92,220.24,103.7Z" transform="translate(0 -54.95)"/><path class="cls-8" d="M221.18,87.53a7.3,7.3,0,0,0,3.8-6.39C226.93,84.61,226.71,88.55,221.18,87.53Z" transform="translate(0 -54.95)"/><path class="cls-8" d="M202.14,105.79a6.1,6.1,0,0,0,4.58-1.08.22.22,0,0,0,0-.3.21.21,0,0,0-.3,0,5.81,5.81,0,0,1-5.09.79.21.21,0,0,0-.13.4A8.43,8.43,0,0,0,202.14,105.79Z" transform="translate(0 -54.95)"/><path class="cls-12" d="M222.37,106.35a8.65,8.65,0,0,1-5.59,3.22c-2.92.37-3.88-2.34-2.66-4.87,1.1-2.28,3.95-5.22,6.67-4.42S224.05,104.17,222.37,106.35Z" transform="translate(0 -54.95)"/><path class="cls-8" d="M219.48,295.73c.35-26.11,3.68-88.29,3.68-88.29l-36.86,3.11s7.33,64.09,11.76,90.72c4.6,27.7,18.71,92.56,18.71,92.56l15-1.27S226.29,315.92,219.48,295.73Z" transform="translate(0 -54.95)"/><polygon class="cls-7" points="215.86 339.29 233.65 337.78 232.95 332.04 214.42 333.28 215.86 339.29"/><path class="cls-8" d="M207.46,97c-.1.72-.55,1.25-1,1.2s-.76-.67-.66-1.38.54-1.25,1-1.2S207.55,96.29,207.46,97Z" transform="translate(0 -54.95)"/><path class="cls-8" d="M199.3,96.33c-.1.71-.55,1.25-1,1.2s-.76-.68-.66-1.39.54-1.25,1-1.2S199.39,95.61,199.3,96.33Z" transform="translate(0 -54.95)"/><path class="cls-14" d="M201.6,97.21a25.06,25.06,0,0,1-4.31,5c1.06,1.12,3.26.81,3.26.81Z" transform="translate(0 -54.95)"/><path class="cls-15" d="M194.11,96.54c-.14,1.14,1,2.1,2.6,2.3s3-.68,3.2-1.82" transform="translate(0 -54.95)"/><path class="cls-15" d="M203.58,97.61c-.21,1.12.9,2.14,2.46,2.44s3.09-.49,3.3-1.62" transform="translate(0 -54.95)"/><path class="cls-8" d="M206.66,100.33a4.9,4.9,0,0,1-.54,0,3.69,3.69,0,0,1-2.07-.92,2.08,2.08,0,0,1-.72-1.78,5.43,5.43,0,0,0-1.61-.4,3.51,3.51,0,0,0-1.68,0c-.14,1.21-1.66,2.06-3.36,1.85a3.77,3.77,0,0,1-2.07-.93,2,2,0,0,1-.72-1.77l.48.06a1.57,1.57,0,0,0,.57,1.36,3.25,3.25,0,0,0,1.8.8c1.43.19,2.71-.48,2.84-1.49.07-.55,1.24-.52,2.2-.4s2.1.39,2,1a1.58,1.58,0,0,0,.57,1.35,3.46,3.46,0,0,0,3.74.49,1.61,1.61,0,0,0,.9-1.17l0-.24,12.35,1.58-.06.48-11.89-1.52a2.12,2.12,0,0,1-1.1,1.29A3.52,3.52,0,0,1,206.66,100.33Z" transform="translate(0 -54.95)"/><path class="cls-8" d="M210.59,93.87a.56.56,0,0,0,.21-.06.44.44,0,0,0,.16-.58,4,4,0,0,0-3.15-2.11.42.42,0,0,0-.44.4.4.4,0,0,0,.39.44h0a3.25,3.25,0,0,1,2.47,1.7A.41.41,0,0,0,210.59,93.87Z" transform="translate(0 -54.95)"/><path class="cls-8" d="M196.66,92.74a.44.44,0,0,0,.37-.16,3.37,3.37,0,0,1,2.75-1.33.44.44,0,0,0,.47-.38.41.41,0,0,0-.36-.46,4.22,4.22,0,0,0-3.5,1.64.41.41,0,0,0,.05.59A.37.37,0,0,0,196.66,92.74Z" transform="translate(0 -54.95)"/><path class="cls-8" d="M250.18,291.52c-7.65-39.31-9.36-70.07-16.63-85l-35.7,4s21.27,58.6,31.65,83.6c10.79,26,32.1,70.42,32.1,70.42h17.83S262.78,309.43,250.18,291.52Z" transform="translate(0 -54.95)"/><path class="cls-12" d="M137,142.67l-3.84-2.44a3.23,3.23,0,0,0-4.06.47l-2.61,2.76a3,3,0,0,0,.26,4.37l1.87,1.6a15.34,15.34,0,0,0,5.57,3l5.65,1.66,3.7-4C144.64,145.94,137,142.67,137,142.67Z" transform="translate(0 -54.95)"/><path class="cls-16" d="M194.13,140.81c-1.4,3.42-2.77,6.59-4.26,9.85s-3,6.45-4.68,9.64-3.45,6.37-5.47,9.54c-1,1.59-2.11,3.17-3.36,4.75a29.91,29.91,0,0,1-4.6,4.77,16,16,0,0,1-3.7,2.28,12.49,12.49,0,0,1-1.27.47l-.69.19c-.26.06-.72.14-1.07.19a9.93,9.93,0,0,1-3.64-.27,14.77,14.77,0,0,1-4.19-1.9,27.3,27.3,0,0,1-2.75-2,67.08,67.08,0,0,1-7.94-8.28c-2.33-2.8-4.53-5.61-6.64-8.47s-4.15-5.69-6.22-8.71l11.06-7.13a151.08,151.08,0,0,0,11.55,16.15,54.33,54.33,0,0,0,6.38,6.58,15.52,15.52,0,0,0,1.4,1c.38.24.75.35.49.25a2.81,2.81,0,0,0-1.08-.06,3.63,3.63,0,0,0-.44.08h-.07l-.06,0a6.05,6.05,0,0,0,.65-.49,18,18,0,0,0,2.46-2.74c.86-1.14,1.7-2.41,2.51-3.74a90.85,90.85,0,0,0,4.53-8.55c1.4-3,2.74-6,4-9.12s2.45-6.28,3.45-9.32Z" transform="translate(0 -54.95)"/><path class="cls-16" d="M220.32,125.46c-3.75,7-17.1,33.67-18.72,50.13-5.91-15-4.62-48.18-4.62-48.18a43.56,43.56,0,0,0-12.27,3,7.36,7.36,0,0,0-4.62,6.3,261.35,261.35,0,0,0,1.62,51.48c4.14,32.3,8,82.52,8,82.52s33-1.38,58.54-6.75c-3.11-24.69-13.75-66.07-13.84-77.16-.13-14.26.2-42.14.66-53.77a6.88,6.88,0,0,0-5.52-7.07A34.57,34.57,0,0,0,220.32,125.46Z" transform="translate(0 -54.95)"/><path class="cls-3" d="M212.53,265.3c-5.74-31.66-10.3-78.13-10.67-83.72l.52,0c.37,5.59,4.92,52,10.66,83.67Z" transform="translate(0 -54.95)"/><path class="cls-1" d="M209.66,209H179.19a2.84,2.84,0,0,1-2.64-2.18l-10.2-47.37a1.7,1.7,0,0,1,1.71-2.17h30.47a2.84,2.84,0,0,1,2.64,2.17l10.2,47.37A1.71,1.71,0,0,1,209.66,209Z" transform="translate(0 -54.95)"/><path class="cls-1" d="M208.72,209.4h-31a2.89,2.89,0,0,1-2.68-2.21L164.68,159a1.73,1.73,0,0,1,1.73-2.21h31a2.89,2.89,0,0,1,2.68,2.21l10.37,48.16A1.73,1.73,0,0,1,208.72,209.4Z" transform="translate(0 -54.95)"/><path class="cls-12" d="M212.27,182.19l-7.71-.29a6.48,6.48,0,0,0-2.72.47l-4,1.6a3,3,0,0,0-1.64,4.06l1.6,3.45a3.24,3.24,0,0,0,3.7,1.74l4.42-1.09s8.28-.66,8.58-5Z" transform="translate(0 -54.95)"/><path class="cls-16" d="M233.56,129.74c1.91,3,3.65,5.74,5.38,8.68s3.41,5.85,5,8.9,3.1,6.17,4.47,9.53a52.31,52.31,0,0,1,1.83,5.39,23,23,0,0,1,.88,6.88v.39a1,1,0,0,1,0,.2c0,.36-.09.72-.16,1.07s-.16.64-.26.95-.21.55-.32.83a10.93,10.93,0,0,1-1.46,2.42,17.59,17.59,0,0,1-2.78,2.77,36.22,36.22,0,0,1-5,3.3,93.25,93.25,0,0,1-9.53,4.54c-3.14,1.34-6.29,2.56-9.44,3.71s-6.28,2.26-9.56,3.36l-3.81-12.59c3-.83,6.06-1.83,9-2.85s6-2.16,8.84-3.35a77.1,77.1,0,0,0,8.15-3.94,24.15,24.15,0,0,0,3.17-2.11,3.69,3.69,0,0,0,.69-.68s-.07.05-.19.33a1.79,1.79,0,0,0-.1.26,2,2,0,0,0-.1.35,2.65,2.65,0,0,0-.07.48c0,.05,0,.06,0,0v-.07a11.14,11.14,0,0,0-.54-2.78,35.45,35.45,0,0,0-1.43-3.85,77,77,0,0,0-4.13-8.07q-2.35-4-5-8c-1.75-2.6-3.6-5.27-5.44-7.67Z" transform="translate(0 -54.95)"/><path class="cls-8" d="M223.44,164.44a.41.41,0,0,1-.34-.18.4.4,0,0,1,.12-.55l1.57-1a8.47,8.47,0,0,0,3.79-8.85L225.44,138a5.38,5.38,0,0,0-10.45-.44l-4.46,15.59a8.5,8.5,0,0,0,3.05,9.15l1.47,1.12a.39.39,0,0,1,.08.55.4.4,0,0,1-.56.08l-1.47-1.12a9.29,9.29,0,0,1-3.33-10l4.46-15.59a6.17,6.17,0,0,1,12,.51l3.14,15.9a9.28,9.28,0,0,1-4.15,9.68l-1.56,1A.42.42,0,0,1,223.44,164.44Z" transform="translate(0 -54.95)"/><path class="cls-8" d="M225.83,138.27h0l-11.23-.47a.39.39,0,0,1-.38-.41.41.41,0,0,1,.41-.38l11.23.47a.39.39,0,0,1,.38.41A.4.4,0,0,1,225.83,138.27Z" transform="translate(0 -54.95)"/><path class="cls-8" d="M220.38,133.61a.4.4,0,0,1-.4-.38c0-2-.62-5.47-2.5-6.24a.4.4,0,0,1,.3-.74c2.78,1.14,3,6.36,3,7a.38.38,0,0,1-.38.4Z" transform="translate(0 -54.95)"/><path class="cls-8" d="M186,147.2H186a.38.38,0,0,1-.31-.46c1.31-6.57,6.77-16.95,11.58-20a.4.4,0,0,1,.43.67c-4.65,2.93-10,13-11.24,19.46A.39.39,0,0,1,186,147.2Z" transform="translate(0 -54.95)"/><path class="cls-3" d="M189.31,148.24c-.62,1.59-2,2.54-3,2.13s-1.39-2-.77-3.62,2-2.55,3-2.14S189.93,146.65,189.31,148.24Z" transform="translate(0 -54.95)"/><path class="cls-3" d="M215.7,163.72c0,.75-.45,1.34-.94,1.32s-.87-.65-.84-1.39.46-1.34,1-1.32S215.74,163,215.7,163.72Z" transform="translate(0 -54.95)"/><path class="cls-3" d="M224.33,164.08c0,.75-.46,1.34-1,1.32s-.87-.65-.84-1.39.46-1.34,1-1.32S224.36,163.33,224.33,164.08Z" transform="translate(0 -54.95)"/></g><g id="Chat"><path class="cls-7" d="M407.77,150.85l-1-.06a15.41,15.41,0,0,0-15.49-16.61v-1a16.4,16.4,0,0,1,16.49,17.67Z" transform="translate(0 -54.95)"/><rect class="cls-7" x="402.54" y="159.04" width="8.28" height="1" transform="matrix(0.07, -1, 1, 0.07, 220.5, 499.77)"/><path class="cls-7" d="M391.28,136.68h-69a15.18,15.18,0,0,0-14.88,13.94l-.63,9.29a12.91,12.91,0,0,0,13,13.94h69l13.38,8.25,2.12-31.48A12.9,12.9,0,0,0,391.28,136.68Z" transform="translate(0 -54.95)"/><rect class="cls-3" x="323.87" y="95.03" width="63.91" height="2.32"/><rect class="cls-3" x="339.77" y="103.27" width="47.45" height="2.32"/><path class="cls-3" d="M287.48,186.38H358a13.19,13.19,0,0,1,13.29,14.25l-.64,9.5a15.53,15.53,0,0,1-15.21,14.25H284.91l-14.82,8.45,2.18-32.2A15.52,15.52,0,0,1,287.48,186.38Z" transform="translate(0 -54.95)"/><path class="cls-17" d="M287.48,186.38H358a13.19,13.19,0,0,1,13.29,14.25l-.64,9.5a15.53,15.53,0,0,1-15.21,14.25H284.91l-14.82,8.45,2.18-32.2A15.52,15.52,0,0,1,287.48,186.38Z" transform="translate(0 -54.95)"/><rect class="cls-7" x="289.06" y="145.03" width="65.36" height="2.38"/><rect class="cls-7" x="288.49" y="153.45" width="25.83" height="2.38"/><rect class="cls-7" x="320.65" y="153.45" width="16.5" height="2.38"/></g></svg>