<svg xmlns="http://www.w3.org/2000/svg" xmlns:xlink="http://www.w3.org/1999/xlink" width="50" zoomAndPan="magnify" viewBox="0 0 37.5 37.499999" height="50" preserveAspectRatio="xMidYMid meet" version="1.0"><defs><clipPath id="id1"><path d="M 0 0 L 37.007812 0 L 37.007812 37.007812 L 0 37.007812 Z M 0 0 " clip-rule="nonzero"/></clipPath></defs><g clip-path="url(#id1)"><path fill="rgb(0.779724%, 78.819275%, 15.289307%)" d="M 15.339844 35.703125 C 15.011719 35.429688 14.773438 35.097656 14.84375 34.726562 C 15.03125 33.722656 15.699219 34.652344 15.699219 34.09375 C 15.699219 33.535156 15.363281 33.425781 15.363281 33.425781 C 15.847656 33.3125 16.109375 32.792969 16.441406 32.53125 C 16.777344 32.273438 17 31.15625 17 31.15625 C 18.5625 31.195312 18.710938 29 19.082031 28.515625 C 19.457031 28.03125 21.167969 27.546875 19.902344 26.953125 C 18.636719 26.359375 18.265625 26.507812 17.222656 26.097656 C 16.183594 25.6875 15.402344 25.726562 15.402344 25.726562 C 15.550781 25.613281 15.738281 24.238281 14.398438 24.089844 C 13.058594 23.941406 12.015625 22.898438 12.015625 22.898438 C 10.714844 23.011719 9.859375 22.265625 9.859375 22.265625 C 8.855469 22.230469 8.410156 23.269531 8.410156 23.269531 C 7.777344 22.863281 7.253906 23.269531 7.253906 23.269531 C 6.773438 22.972656 6.734375 22.453125 6.734375 22.453125 C 6.734375 21.226562 6.398438 21.410156 6.398438 21.410156 C 5.46875 21.410156 5.65625 21.113281 5.65625 21.113281 C 5.617188 20.628906 5.917969 19.699219 5.917969 19.699219 C 5.359375 19.699219 5.058594 20.144531 5.058594 20.144531 C 3.832031 21.707031 3.273438 18.398438 3.871094 17.578125 C 4.464844 16.761719 5.171875 17.320312 5.171875 17.320312 C 5.285156 17.058594 6.585938 16.6875 6.621094 17.320312 C 6.660156 17.953125 7.253906 18.695312 7.253906 18.695312 C 7.367188 17.980469 7.226562 16.621094 7.226562 16.621094 C 8.734375 15.699219 8.511719 15.113281 8.511719 15.113281 C 8.984375 13.300781 10.296875 13.523438 10.296875 13.523438 C 10.101562 12.714844 11.636719 12.351562 11.636719 12.351562 C 11.308594 13.078125 12.695312 12.324219 12.695312 12.324219 C 13.113281 11.933594 12.527344 12.019531 12.527344 12.019531 C 11.691406 12.1875 12.027344 11.152344 12.027344 11.152344 C 11.144531 11.085938 10.722656 11.511719 10.59375 11.675781 C 11.195312 10.816406 11.859375 10.734375 11.859375 10.734375 C 13.359375 10.816406 13.722656 10.636719 13.8125 10.539062 C 13.59375 10.953125 13.078125 11.488281 14.144531 11.515625 C 15.261719 11.542969 15.457031 11.070312 14.757812 10.984375 C 14.0625 10.902344 14.257812 10.59375 14.257812 10.59375 C 14.984375 9.453125 13.363281 8.976562 13.394531 8.894531 C 13.421875 8.808594 13.363281 7.109375 13.058594 7.609375 C 12.75 8.113281 12.109375 8.113281 12.109375 8.113281 C 12.109375 8.113281 12.027344 7.082031 11.019531 6.996094 C 10.015625 6.914062 10.183594 7.21875 10.183594 7.863281 C 10.183594 8.503906 10.824219 8.449219 9.933594 8.894531 C 9.039062 9.339844 9.152344 9.785156 9.011719 10.289062 C 8.871094 10.792969 8.679688 10.371094 8.679688 10.371094 C 8.734375 8.808594 8.425781 8.976562 8.425781 8.976562 C 6.726562 8.449219 7.394531 7.863281 8.257812 6.914062 C 9.125 5.964844 9.960938 6.4375 9.960938 6.4375 C 10.769531 6.550781 9.738281 5.851562 9.960938 5.851562 C 10.183594 5.851562 10.769531 5.351562 11.132812 4.988281 C 11.496094 4.625 11.019531 4.542969 10.433594 4.90625 C 9.851562 5.265625 10.351562 3.984375 10.351562 3.984375 C 10.074219 3.898438 9.988281 4.875 8.566406 5.128906 C 8.351562 5.164062 8.179688 5.179688 8.039062 5.179688 C 10.988281 2.847656 14.707031 1.457031 18.75 1.457031 C 22.304688 1.457031 25.613281 2.535156 28.363281 4.382812 C 28.355469 4.386719 28.34375 4.390625 28.335938 4.394531 C 27.953125 4.558594 28.105469 4.746094 28.105469 4.746094 C 28.289062 5.398438 28.53125 6.511719 28.140625 6.792969 C 27.75 7.070312 27.957031 7.3125 27.957031 7.3125 C 28.996094 9.394531 28.738281 7.3125 29.386719 8.058594 C 30.039062 8.800781 29.425781 9.097656 30.113281 9.117188 C 30.800781 9.136719 31.0625 8.039062 30.464844 7.703125 C 29.871094 7.367188 29.722656 6.03125 29.722656 6.03125 C 30.019531 5.882812 30.058594 6.121094 30.058594 6.121094 C 29.964844 6.328125 30.355469 7.367188 30.707031 7.5 C 31.0625 7.628906 31.191406 7.722656 31.320312 8.335938 C 31.453125 8.949219 31.601562 8.875 31.601562 8.875 C 31.804688 9.601562 30.855469 9.304688 29.851562 9.527344 C 28.847656 9.75 29.128906 10.34375 29.128906 10.34375 L 28.792969 10.34375 L 28.605469 10.808594 C 26.933594 11.664062 28.273438 11.777344 28.273438 11.777344 C 28.273438 11.777344 29.015625 12.890625 28.109375 12.929688 C 27.207031 12.96875 26.96875 13.488281 26.894531 14.195312 C 26.820312 14.902344 27.898438 15.050781 27.898438 15.050781 L 28.109375 15.457031 C 28.109375 15.457031 27.15625 16.203125 26.933594 17.023438 C 26.710938 17.839844 25.519531 18.84375 25.371094 19.066406 C 25.222656 19.289062 25.742188 20.445312 25.257812 21.113281 C 24.773438 21.78125 25.257812 22.453125 25.257812 22.453125 C 25.78125 22.488281 26.558594 25.019531 27.527344 24.535156 C 27.59375 24.503906 27.65625 24.472656 27.71875 24.445312 C 28.585938 24.0625 29.203125 24.125 29.203125 24.125 C 30.390625 23.605469 30.503906 24.574219 30.503906 24.574219 C 31.285156 24.3125 31.171875 25.09375 31.171875 25.09375 C 30.207031 26.171875 31.097656 26.097656 30.765625 27.585938 C 30.429688 29.074219 29.460938 29.109375 29.386719 30.261719 C 29.3125 31.417969 27.972656 33.015625 27.972656 33.015625 C 27.972656 33.015625 28.042969 33.160156 28.308594 33.152344 C 25.566406 34.976562 22.28125 36.042969 18.75 36.042969 C 17.582031 36.042969 16.441406 35.925781 15.339844 35.703125 Z M 1.457031 18.75 C 1.457031 18.277344 1.476562 17.808594 1.511719 17.347656 C 1.960938 18.457031 2.664062 19.0625 2.644531 19.476562 C 2.605469 20.183594 2.457031 20.554688 3.832031 21.113281 C 5.210938 21.671875 5.917969 22.527344 6.214844 22.824219 C 6.511719 23.121094 7.144531 23.941406 7.550781 23.644531 C 7.960938 23.34375 8.964844 24.535156 8.445312 25.019531 C 7.925781 25.503906 8.183594 26.246094 8.183594 26.246094 C 8.183594 26.246094 9.003906 29.035156 10.789062 29.519531 C 12.574219 30.003906 12.277344 30.636719 12.277344 30.636719 C 12.234375 33.269531 13.605469 34.773438 14.835938 35.59375 C 7.179688 33.816406 1.457031 26.9375 1.457031 18.75 Z M 29.890625 13.226562 C 29.851562 12.835938 30.503906 13.003906 30.503906 13.003906 C 30.632812 12.574219 31.003906 12.742188 31.003906 12.742188 C 31.023438 12.949219 31.621094 13.5625 32.101562 13.746094 C 32.585938 13.933594 32.769531 14.238281 32.34375 14.445312 C 31.917969 14.652344 32.289062 14.808594 32.289062 14.808594 C 32.550781 15.011719 32.808594 14.378906 32.792969 13.988281 C 32.773438 13.597656 32.585938 13.523438 32.269531 13.300781 C 31.953125 13.078125 31.527344 12.371094 31.527344 12.371094 C 33.144531 13.171875 33.273438 14.324219 33.515625 14.660156 C 33.757812 14.996094 33.683594 15.441406 33.925781 14.902344 C 34.167969 14.363281 33.21875 14.175781 33.90625 13.746094 C 34.59375 13.320312 34.335938 12.09375 34.335938 12.09375 C 34.632812 12.585938 34.808594 12.554688 34.878906 12.511719 C 34.988281 12.792969 35.089844 13.078125 35.183594 13.363281 C 35.097656 13.308594 35.023438 13.273438 34.96875 13.300781 C 34.816406 13.375 35.042969 13.5625 34.59375 13.65625 C 34.148438 13.746094 34.390625 14.269531 34.390625 14.269531 C 34.558594 15.253906 35.582031 15.292969 35.582031 15.292969 L 35.582031 16.6875 C 34.707031 16.703125 33.925781 16.128906 33.925781 16.128906 C 33.40625 15.980469 33.480469 16.796875 33.480469 16.796875 C 31.992188 15.347656 31.5625 16.929688 31.730469 15.496094 C 31.898438 14.066406 29.683594 15.457031 28.867188 15.496094 C 28.046875 15.535156 28.4375 14.957031 28.4375 14.957031 C 29.367188 15.105469 29.351562 13.507812 29.445312 13.617188 C 29.535156 13.730469 29.925781 13.617188 29.890625 13.226562 Z M 18.75 -0.00390625 C 8.410156 -0.00390625 -0.00390625 8.410156 -0.00390625 18.75 C -0.00390625 29.089844 8.410156 37.5 18.75 37.5 C 29.089844 37.5 37.5 29.089844 37.5 18.75 C 37.5 8.410156 29.089844 -0.00390625 18.75 -0.00390625 " fill-opacity="1" fill-rule="nonzero"/></g><path fill="rgb(0.779724%, 78.819275%, 15.289307%)" d="M 6.4375 19.476562 C 6.4375 19.476562 6.953125 19.402344 7.773438 19.996094 C 8.59375 20.59375 8.890625 19.996094 8.890625 19.996094 C 8.890625 19.996094 7.070312 18.859375 6.4375 19.476562 " fill-opacity="1" fill-rule="nonzero"/><path fill="rgb(0.779724%, 78.819275%, 15.289307%)" d="M 9.191406 20.386719 C 9.191406 20.386719 9.449219 20.777344 9.933594 20.683594 C 10.417969 20.59375 10.660156 20.601562 10.917969 20.699219 C 10.917969 20.699219 9.671875 19.941406 9.191406 20.386719 " fill-opacity="1" fill-rule="nonzero"/><path fill="rgb(0.779724%, 78.819275%, 15.289307%)" d="M 26.949219 9.089844 C 26.949219 9.382812 27.410156 9.367188 27.285156 9.953125 C 27.160156 10.539062 27.335938 10.800781 27.496094 10.777344 C 27.496094 10.777344 28.375 10.664062 28.542969 10.414062 C 28.707031 10.164062 28.933594 9.898438 28.207031 9.703125 C 27.480469 9.507812 27.453125 8.503906 27.3125 8.351562 C 27.175781 8.195312 26.742188 8.335938 26.796875 8.027344 C 26.851562 7.722656 26.042969 8.113281 26.363281 8.449219 C 26.6875 8.78125 26.949219 8.796875 26.949219 9.089844 " fill-opacity="1" fill-rule="nonzero"/><path fill="rgb(0.779724%, 78.819275%, 15.289307%)" d="M 26.289062 10.414062 C 26.40625 10.34375 26.839844 10.289062 26.867188 9.800781 C 26.894531 9.3125 26.695312 9.132812 26.578125 9.132812 C 26.464844 9.132812 26.050781 9.132812 26.167969 9.773438 C 26.289062 10.414062 26.289062 10.414062 26.289062 10.414062 " fill-opacity="1" fill-rule="nonzero"/></svg>