<svg xmlns="http://www.w3.org/2000/svg" xmlns:xlink="http://www.w3.org/1999/xlink" width="50" zoomAndPan="magnify" viewBox="0 0 37.5 37.499999" height="50" preserveAspectRatio="xMidYMid meet" version="1.0"><defs><clipPath id="id1"><path d="M 0 0 L 28 0 L 28 37.007812 L 0 37.007812 Z M 0 0 " clip-rule="nonzero"/></clipPath><clipPath id="id2"><path d="M 10 4 L 37.007812 4 L 37.007812 33 L 10 33 Z M 10 4 " clip-rule="nonzero"/></clipPath></defs><path fill="rgb(0.779724%, 78.819275%, 15.289307%)" d="M 8.148438 16.984375 C 7.929688 16.808594 7.585938 16.851562 7.371094 17.070312 L 5.558594 19.308594 L 5 18.792969 C 4.785156 18.578125 4.441406 18.578125 4.222656 18.792969 C 4.007812 19.007812 4.007812 19.351562 4.222656 19.570312 C 4.222656 19.570312 5.257812 20.515625 5.257812 20.515625 C 5.515625 20.734375 5.90625 20.648438 6.035156 20.472656 L 8.191406 17.757812 C 8.40625 17.5 8.492188 17.242188 8.148438 16.984375 Z M 8.148438 16.984375 " fill-opacity="1" fill-rule="nonzero"/><g clip-path="url(#id1)"><path fill="rgb(0.779724%, 78.819275%, 15.289307%)" d="M 27.199219 22.15625 C 26.898438 22.15625 26.679688 22.414062 26.679688 22.671875 L 26.679688 36.421875 L 1.121094 36.421875 L 1.121094 1.078125 L 18.921875 1.078125 L 18.921875 8.234375 C 18.921875 8.535156 19.136719 8.792969 19.441406 8.792969 L 26.59375 8.792969 L 26.59375 9.484375 C 26.59375 9.785156 26.851562 10 27.113281 10 C 27.371094 10 27.628906 9.742188 27.628906 9.484375 L 27.628906 8.234375 C 27.628906 8.101562 27.585938 7.972656 27.457031 7.84375 L 19.871094 0.171875 C 19.785156 0.0429688 19.613281 0 19.484375 0 L 0.601562 0 C 0.300781 0 0.0859375 0.257812 0.0859375 0.515625 L 0.0859375 36.984375 C 0.0859375 37.285156 0.34375 37.5 0.601562 37.5 L 27.199219 37.5 C 27.5 37.5 27.714844 37.242188 27.714844 36.984375 L 27.714844 22.671875 C 27.714844 22.371094 27.5 22.15625 27.199219 22.15625 Z M 27.199219 22.15625 " fill-opacity="1" fill-rule="nonzero"/></g><path fill="rgb(0.779724%, 78.819275%, 15.289307%)" d="M 23.921875 11.164062 C 23.921875 10.863281 23.664062 10.648438 23.40625 10.648438 L 10.558594 10.648438 C 10.257812 10.648438 10.042969 10.90625 10.042969 11.164062 C 10.042969 11.421875 10.300781 11.679688 10.558594 11.679688 L 23.40625 11.679688 C 23.707031 11.722656 23.921875 11.464844 23.921875 11.164062 Z M 23.921875 11.164062 " fill-opacity="1" fill-rule="nonzero"/><path fill="rgb(0.779724%, 78.819275%, 15.289307%)" d="M 10.558594 13.40625 C 10.257812 13.40625 10.042969 13.664062 10.042969 13.921875 C 10.042969 14.179688 10.300781 14.441406 10.558594 14.441406 L 19.785156 14.441406 C 20.085938 14.441406 20.300781 14.179688 20.300781 13.921875 C 20.300781 13.664062 20.085938 13.40625 19.785156 13.40625 Z M 10.558594 13.40625 " fill-opacity="1" fill-rule="nonzero"/><path fill="rgb(0.779724%, 78.819275%, 15.289307%)" d="M 8.148438 9.871094 C 7.929688 9.699219 7.585938 9.742188 7.371094 9.957031 L 5.558594 12.199219 L 5 11.679688 C 4.785156 11.464844 4.441406 11.464844 4.222656 11.679688 C 4.007812 11.898438 4.007812 12.242188 4.222656 12.457031 C 4.222656 12.457031 5.257812 13.40625 5.257812 13.40625 C 5.515625 13.621094 5.90625 13.535156 6.035156 13.363281 L 8.191406 10.648438 C 8.40625 10.386719 8.449219 10.128906 8.148438 9.871094 Z M 8.148438 9.871094 " fill-opacity="1" fill-rule="nonzero"/><path fill="rgb(0.779724%, 78.819275%, 15.289307%)" d="M 8.148438 23.835938 C 7.929688 23.664062 7.585938 23.707031 7.371094 23.921875 L 5.558594 26.164062 L 5 25.648438 C 4.785156 25.429688 4.441406 25.429688 4.222656 25.648438 C 4.007812 25.863281 4.007812 26.207031 4.222656 26.421875 C 4.222656 26.421875 5.257812 27.371094 5.257812 27.371094 C 5.515625 27.585938 5.90625 27.5 6.035156 27.328125 L 8.191406 24.613281 C 8.40625 24.398438 8.449219 24.09375 8.148438 23.835938 Z M 8.148438 23.835938 " fill-opacity="1" fill-rule="nonzero"/><g clip-path="url(#id2)"><path fill="rgb(0.779724%, 78.819275%, 15.289307%)" d="M 37.113281 9.785156 L 35.558594 8.578125 L 36.59375 7.242188 C 36.808594 6.984375 37.027344 6.550781 36.550781 6.164062 L 34.308594 4.398438 C 33.964844 4.09375 33.40625 4.09375 33.101562 4.484375 L 32.070312 5.820312 C 31.984375 5.777344 31.851562 5.734375 31.765625 5.777344 C 31.636719 5.777344 31.507812 5.863281 31.421875 5.992188 L 29.613281 8.320312 C 29.484375 8.535156 29.484375 8.792969 29.613281 8.964844 L 22.800781 17.628906 L 10.558594 17.628906 C 10.257812 17.628906 10.042969 17.886719 10.042969 18.148438 C 10.042969 18.40625 10.300781 18.664062 10.558594 18.664062 L 21.941406 18.664062 L 20.648438 20.34375 L 10.558594 20.34375 C 10.257812 20.34375 10.042969 20.601562 10.042969 20.863281 C 10.042969 21.121094 10.300781 21.378906 10.558594 21.378906 L 19.828125 21.378906 L 17.371094 24.613281 L 10.558594 24.613281 C 10.257812 24.613281 10.042969 24.871094 10.042969 25.128906 C 10.042969 25.386719 10.300781 25.648438 10.558594 25.648438 L 16.507812 25.648438 L 15.429688 27.027344 C 15.429688 27.027344 15.386719 27.15625 15.34375 27.328125 L 10.558594 27.328125 C 10.257812 27.328125 10.042969 27.585938 10.042969 27.84375 C 10.042969 28.101562 10.300781 28.363281 10.558594 28.363281 L 15 28.363281 C 14.570312 29.742188 14.007812 31.679688 14.007812 31.679688 C 13.921875 31.898438 14.007812 32.15625 14.179688 32.285156 C 14.351562 32.414062 14.613281 32.414062 14.785156 32.328125 C 14.785156 32.328125 18.878906 29.871094 18.964844 29.785156 L 33.058594 11.636719 C 33.148438 11.679688 33.234375 11.722656 33.363281 11.722656 C 33.535156 11.722656 33.707031 11.636719 33.792969 11.507812 L 35.257812 9.613281 L 36.035156 10.214844 L 31.636719 15.949219 C 31.464844 16.207031 31.507812 16.507812 31.722656 16.722656 C 31.941406 16.941406 32.285156 16.851562 32.5 16.636719 L 37.242188 10.558594 C 37.414062 10.300781 37.328125 9.957031 37.113281 9.785156 Z M 15.429688 30.734375 L 16.207031 28.148438 C 16.507812 28.320312 16.765625 28.492188 17.027344 28.664062 C 17.285156 28.878906 17.542969 29.09375 17.757812 29.308594 Z M 33.277344 10.515625 L 30.734375 8.535156 L 31.808594 7.15625 L 34.351562 9.136719 Z M 33.277344 10.515625 " fill-opacity="1" fill-rule="nonzero"/></g></svg>