<svg xmlns="http://www.w3.org/2000/svg" xmlns:xlink="http://www.w3.org/1999/xlink" width="50" zoomAndPan="magnify" viewBox="0 0 37.5 37.499999" height="50" preserveAspectRatio="xMidYMid meet" version="1.0"><defs><clipPath id="id1"><path d="M 14 1.476562 L 23 1.476562 L 23 9 L 14 9 Z M 14 1.476562 " clip-rule="nonzero"/></clipPath><clipPath id="id2"><path d="M 8 9 L 29 9 L 29 35.976562 L 8 35.976562 Z M 8 9 " clip-rule="nonzero"/></clipPath><clipPath id="id3"><path d="M 25 13 L 37.007812 13 L 37.007812 35 L 25 35 Z M 25 13 " clip-rule="nonzero"/></clipPath></defs><g clip-path="url(#id1)"><path fill="rgb(0.779724%, 78.819275%, 15.289307%)" d="M 18.636719 8.773438 C 20.648438 8.773438 22.289062 7.136719 22.289062 5.125 C 22.289062 3.113281 20.648438 1.476562 18.632812 1.476562 C 16.621094 1.476562 14.980469 3.113281 14.980469 5.125 C 14.980469 7.136719 16.621094 8.773438 18.632812 8.773438 Z M 18.636719 2.316406 C 20.183594 2.316406 21.445312 3.578125 21.445312 5.125 C 21.445312 6.675781 20.183594 7.933594 18.636719 7.933594 C 17.085938 7.933594 15.824219 6.675781 15.824219 5.125 C 15.820312 3.578125 17.082031 2.316406 18.632812 2.316406 Z M 18.636719 2.316406 " fill-opacity="1" fill-rule="nonzero"/></g><g clip-path="url(#id2)"><path fill="rgb(0.779724%, 78.819275%, 15.289307%)" d="M 8.660156 15.648438 C 8.605469 16.273438 8.800781 16.878906 9.203125 17.355469 C 9.371094 17.554688 9.566406 17.71875 9.785156 17.851562 L 12.882812 19.71875 C 13.304688 19.972656 13.796875 20.050781 14.277344 19.929688 C 14.535156 19.867188 14.773438 19.75 14.972656 19.59375 L 15.011719 20.011719 L 11.988281 32.699219 C 11.835938 33.339844 11.941406 34 12.289062 34.558594 C 12.632812 35.121094 13.175781 35.511719 13.816406 35.664062 C 14.007812 35.710938 14.199219 35.734375 14.386719 35.734375 C 15.503906 35.730469 16.519531 34.96875 16.789062 33.839844 L 18.632812 26.09375 L 20.480469 33.839844 C 20.796875 35.160156 22.132812 35.976562 23.453125 35.664062 C 24.09375 35.511719 24.636719 35.121094 24.980469 34.558594 C 25.328125 34 25.433594 33.339844 25.28125 32.699219 L 22.253906 20.011719 L 22.292969 19.589844 C 22.878906 20.050781 23.714844 20.125 24.386719 19.71875 L 27.484375 17.851562 C 28.023438 17.527344 28.398438 17.015625 28.550781 16.40625 C 28.699219 15.796875 28.605469 15.167969 28.28125 14.632812 C 28.148438 14.414062 27.980469 14.21875 27.785156 14.054688 L 23.789062 10.679688 C 22.796875 9.84375 21.535156 9.382812 20.238281 9.382812 L 17.03125 9.382812 C 15.734375 9.382812 14.472656 9.84375 13.480469 10.679688 L 9.484375 14.054688 C 9.007812 14.460938 8.710938 15.023438 8.660156 15.648438 Z M 10.023438 14.695312 L 14.023438 11.324219 C 14.863281 10.613281 15.933594 10.222656 17.03125 10.222656 L 20.238281 10.222656 C 21.335938 10.222656 22.40625 10.613281 23.246094 11.324219 L 27.246094 14.695312 C 27.371094 14.800781 27.476562 14.925781 27.5625 15.066406 C 27.769531 15.410156 27.828125 15.816406 27.734375 16.203125 C 27.636719 16.59375 27.394531 16.921875 27.050781 17.132812 L 23.953125 19 C 23.480469 19.285156 22.859375 19.132812 22.574219 18.660156 C 22.289062 18.1875 22.441406 17.570312 22.914062 17.285156 L 24.914062 16.078125 C 25.03125 16.007812 25.105469 15.886719 25.117188 15.753906 C 25.128906 15.617188 25.074219 15.488281 24.96875 15.398438 L 22.675781 13.464844 C 22.554688 13.363281 22.386719 13.335938 22.242188 13.394531 C 22.097656 13.453125 22 13.589844 21.984375 13.746094 L 21.410156 20.007812 C 21.40625 20.050781 21.410156 20.097656 21.421875 20.140625 L 24.460938 32.894531 C 24.671875 33.761719 24.128906 34.640625 23.257812 34.847656 C 22.394531 35.058594 21.507812 34.515625 21.300781 33.644531 L 19.042969 24.183594 C 18.953125 23.804688 18.316406 23.804688 18.226562 24.183594 L 15.964844 33.644531 C 15.757812 34.515625 14.878906 35.054688 14.007812 34.847656 C 13.136719 34.640625 12.59375 33.761719 12.804688 32.890625 L 15.84375 20.140625 C 15.855469 20.097656 15.859375 20.050781 15.851562 20.003906 L 15.28125 13.746094 C 15.265625 13.589844 15.167969 13.453125 15.019531 13.394531 C 14.96875 13.371094 14.914062 13.363281 14.859375 13.363281 C 14.761719 13.363281 14.667969 13.394531 14.589844 13.460938 L 12.296875 15.398438 C 12.191406 15.484375 12.136719 15.617188 12.148438 15.75 C 12.160156 15.886719 12.234375 16.007812 12.351562 16.078125 L 14.351562 17.285156 C 14.824219 17.570312 14.976562 18.1875 14.691406 18.660156 C 14.550781 18.886719 14.332031 19.050781 14.070312 19.113281 C 13.816406 19.179688 13.542969 19.136719 13.3125 19 L 10.214844 17.128906 C 10.074219 17.046875 9.949219 16.9375 9.84375 16.8125 C 9.582031 16.507812 9.460938 16.117188 9.492188 15.71875 C 9.527344 15.316406 9.714844 14.953125 10.019531 14.695312 Z M 22.578125 16.507812 L 22.75 14.625 L 23.980469 15.664062 Z M 14.691406 16.507812 L 13.289062 15.664062 L 14.519531 14.625 Z M 14.691406 16.507812 " fill-opacity="1" fill-rule="nonzero"/></g><path fill="rgb(0.779724%, 78.819275%, 15.289307%)" d="M 8.203125 12.761719 C 9.859375 12.761719 11.210938 11.414062 11.210938 9.757812 C 11.210938 8.101562 9.859375 6.753906 8.203125 6.753906 C 6.542969 6.753906 5.195312 8.101562 5.195312 9.757812 C 5.195312 11.414062 6.542969 12.761719 8.203125 12.761719 Z M 8.203125 7.59375 C 9.398438 7.59375 10.367188 8.566406 10.367188 9.757812 C 10.367188 10.949219 9.398438 11.921875 8.203125 11.921875 C 7.007812 11.921875 6.035156 10.949219 6.035156 9.757812 C 6.035156 8.566406 7.007812 7.59375 8.203125 7.59375 Z M 8.203125 7.59375 " fill-opacity="1" fill-rule="nonzero"/><path fill="rgb(0.779724%, 78.819275%, 15.289307%)" d="M 1.078125 20.011719 L 3.558594 21.503906 C 3.914062 21.71875 4.332031 21.785156 4.738281 21.683594 C 4.90625 21.644531 5.0625 21.574219 5.203125 21.484375 L 5.21875 21.664062 L 2.804688 31.796875 C 2.542969 32.898438 3.226562 34.007812 4.328125 34.273438 C 4.488281 34.308594 4.648438 34.328125 4.804688 34.328125 C 5.734375 34.328125 6.582031 33.691406 6.804688 32.75 L 8.203125 26.894531 L 9.597656 32.75 C 9.816406 33.664062 10.625 34.3125 11.566406 34.328125 L 11.574219 34.328125 C 11.800781 34.328125 11.988281 34.144531 11.992188 33.914062 C 11.996094 33.683594 11.8125 33.492188 11.578125 33.488281 C 11.023438 33.480469 10.546875 33.09375 10.417969 32.554688 L 8.613281 24.984375 C 8.519531 24.605469 7.882812 24.605469 7.792969 24.984375 L 5.988281 32.554688 C 5.832031 33.207031 5.167969 33.609375 4.523438 33.453125 C 3.871094 33.300781 3.464844 32.644531 3.621094 31.992188 L 6.054688 21.789062 C 6.066406 21.746094 6.070312 21.699219 6.066406 21.65625 L 5.917969 20.070312 C 5.917969 20.046875 5.914062 20.023438 5.914062 20 L 5.605469 16.648438 C 5.59375 16.492188 5.492188 16.355469 5.347656 16.296875 C 5.203125 16.238281 5.035156 16.261719 4.917969 16.363281 L 3.082031 17.914062 C 2.976562 18 2.921875 18.132812 2.933594 18.265625 C 2.945312 18.402344 3.019531 18.523438 3.132812 18.59375 L 4.734375 19.558594 C 4.898438 19.65625 5.015625 19.816406 5.058594 20 C 5.066406 20.03125 5.074219 20.058594 5.078125 20.089844 L 5.078125 20.125 C 5.089844 20.273438 5.054688 20.414062 4.976562 20.542969 C 4.878906 20.707031 4.722656 20.824219 4.535156 20.867188 C 4.351562 20.914062 4.15625 20.886719 3.992188 20.785156 L 1.511719 19.289062 C 1.410156 19.226562 1.316406 19.148438 1.238281 19.054688 C 1.042969 18.828125 0.949219 18.535156 0.976562 18.238281 C 1 17.941406 1.140625 17.671875 1.367188 17.476562 L 4.570312 14.777344 C 5.226562 14.226562 6.058594 13.917969 6.921875 13.917969 L 9.488281 13.917969 C 9.71875 13.917969 9.910156 13.730469 9.910156 13.5 C 9.910156 13.265625 9.71875 13.078125 9.488281 13.078125 L 6.921875 13.078125 C 5.863281 13.078125 4.832031 13.457031 4.027344 14.136719 L 0.828125 16.835938 C 0.425781 17.175781 0.183594 17.648438 0.136719 18.167969 C 0.09375 18.691406 0.253906 19.199219 0.59375 19.597656 C 0.734375 19.761719 0.894531 19.898438 1.078125 20.007812 Z M 4.070312 18.175781 L 4.84375 17.527344 L 4.949219 18.707031 Z M 4.070312 18.175781 " fill-opacity="1" fill-rule="nonzero"/><path fill="rgb(0.779724%, 78.819275%, 15.289307%)" d="M 11.039062 18.65625 C 10.8125 18.632812 10.601562 18.804688 10.578125 19.035156 L 10.339844 21.65625 C 10.335938 21.699219 10.339844 21.746094 10.351562 21.789062 L 12.0625 28.964844 C 12.105469 29.160156 12.28125 29.289062 12.46875 29.289062 C 12.503906 29.289062 12.535156 29.285156 12.566406 29.277344 C 12.792969 29.222656 12.933594 28.996094 12.878906 28.773438 L 11.183594 21.664062 L 11.417969 19.113281 C 11.4375 18.878906 11.269531 18.675781 11.039062 18.65625 Z M 11.039062 18.65625 " fill-opacity="1" fill-rule="nonzero"/><path fill="rgb(0.779724%, 78.819275%, 15.289307%)" d="M 29.066406 12.761719 C 30.726562 12.761719 32.074219 11.414062 32.074219 9.757812 C 32.074219 8.101562 30.726562 6.753906 29.066406 6.753906 C 27.410156 6.753906 26.0625 8.101562 26.0625 9.757812 C 26.0625 11.414062 27.410156 12.761719 29.066406 12.761719 Z M 29.066406 7.59375 C 30.261719 7.59375 31.234375 8.566406 31.234375 9.757812 C 31.234375 10.949219 30.261719 11.921875 29.066406 11.921875 C 27.875 11.921875 26.902344 10.949219 26.902344 9.757812 C 26.898438 8.566406 27.875 7.59375 29.066406 7.59375 Z M 29.066406 7.59375 " fill-opacity="1" fill-rule="nonzero"/><g clip-path="url(#id3)"><path fill="rgb(0.779724%, 78.819275%, 15.289307%)" d="M 36.441406 16.839844 L 33.242188 14.136719 C 32.433594 13.457031 31.40625 13.082031 30.347656 13.082031 L 27.78125 13.082031 C 27.546875 13.082031 27.359375 13.269531 27.359375 13.5 C 27.359375 13.734375 27.546875 13.921875 27.78125 13.921875 L 30.347656 13.921875 C 31.207031 13.921875 32.042969 14.226562 32.699219 14.78125 L 35.898438 17.480469 C 35.992188 17.558594 36.070312 17.652344 36.136719 17.753906 C 36.453125 18.285156 36.285156 18.972656 35.753906 19.289062 L 33.277344 20.785156 C 33.113281 20.886719 32.921875 20.914062 32.734375 20.867188 C 32.546875 20.824219 32.390625 20.707031 32.289062 20.542969 C 32.214844 20.414062 32.179688 20.273438 32.1875 20.125 L 32.191406 20.089844 C 32.195312 20.058594 32.203125 20.03125 32.207031 20 C 32.253906 19.816406 32.371094 19.65625 32.535156 19.558594 L 34.132812 18.59375 C 34.25 18.523438 34.324219 18.402344 34.335938 18.265625 C 34.347656 18.132812 34.289062 18 34.1875 17.914062 L 32.351562 16.363281 C 32.234375 16.261719 32.066406 16.238281 31.921875 16.296875 C 31.777344 16.355469 31.675781 16.492188 31.664062 16.648438 L 31.355469 20 C 31.351562 20.023438 31.351562 20.046875 31.347656 20.070312 L 31.203125 21.65625 C 31.199219 21.699219 31.203125 21.746094 31.214844 21.789062 L 33.644531 31.992188 C 33.800781 32.644531 33.398438 33.300781 32.746094 33.453125 C 32.097656 33.613281 31.4375 33.207031 31.28125 32.554688 L 29.476562 24.984375 C 29.382812 24.605469 28.746094 24.605469 28.65625 24.984375 L 26.851562 32.554688 C 26.722656 33.09375 26.246094 33.480469 25.6875 33.488281 C 25.457031 33.492188 25.269531 33.683594 25.273438 33.914062 C 25.277344 34.144531 25.464844 34.328125 25.695312 34.328125 L 25.703125 34.328125 C 26.644531 34.3125 27.453125 33.664062 27.667969 32.75 L 29.066406 26.894531 L 30.460938 32.75 C 30.6875 33.691406 31.53125 34.328125 32.464844 34.328125 C 32.621094 34.328125 32.78125 34.308594 32.941406 34.273438 C 34.042969 34.007812 34.726562 32.898438 34.464844 31.796875 L 32.046875 21.664062 L 32.0625 21.484375 C 32.207031 21.574219 32.363281 21.644531 32.53125 21.683594 C 32.933594 21.78125 33.355469 21.71875 33.710938 21.503906 L 36.191406 20.011719 C 37.117188 19.453125 37.414062 18.246094 36.855469 17.320312 C 36.738281 17.140625 36.601562 16.976562 36.4375 16.839844 Z M 32.429688 17.527344 L 33.199219 18.175781 L 32.320312 18.707031 L 32.425781 17.527344 Z M 32.429688 17.527344 " fill-opacity="1" fill-rule="nonzero"/></g><path fill="rgb(0.779724%, 78.819275%, 15.289307%)" d="M 24.699219 29.277344 C 24.734375 29.285156 24.765625 29.289062 24.796875 29.289062 C 24.988281 29.289062 25.160156 29.15625 25.207031 28.964844 L 26.917969 21.789062 C 26.929688 21.746094 26.933594 21.699219 26.929688 21.652344 L 26.6875 19.035156 C 26.667969 18.800781 26.457031 18.632812 26.230469 18.652344 C 26 18.675781 25.828125 18.878906 25.851562 19.109375 L 26.085938 21.660156 L 24.390625 28.769531 C 24.335938 29 24.476562 29.226562 24.699219 29.277344 Z M 24.699219 29.277344 " fill-opacity="1" fill-rule="nonzero"/></svg>