<svg xmlns="http://www.w3.org/2000/svg" xmlns:xlink="http://www.w3.org/1999/xlink" width="50" zoomAndPan="magnify" viewBox="0 0 37.5 37.499999" height="50" preserveAspectRatio="xMidYMid meet" version="1.0"><defs><clipPath id="id1"><path d="M 0 2.625 L 37.007812 2.625 L 37.007812 34.875 L 0 34.875 Z M 0 2.625 " clip-rule="nonzero"/></clipPath></defs><g clip-path="url(#id1)"><path fill="rgb(0.779724%, 78.819275%, 15.289307%)" d="M 34.71875 5.414062 C 31.003906 1.699219 24.9375 1.699219 21.234375 5.414062 L 18.753906 7.890625 L 16.277344 5.414062 C 12.5625 1.699219 6.496094 1.699219 2.792969 5.414062 C -0.808594 9.011719 -0.910156 14.832031 2.46875 18.566406 L 11.195312 18.566406 L 12.46875 11.925781 C 12.523438 11.613281 12.792969 11.386719 13.113281 11.367188 C 13.4375 11.347656 13.722656 11.558594 13.808594 11.859375 L 16.914062 22.429688 L 18.601562 15.5625 C 18.679688 15.269531 18.933594 15.050781 19.238281 15.042969 C 19.542969 15.023438 19.816406 15.210938 19.921875 15.507812 L 21.242188 19.257812 L 23.671875 11.839844 C 23.769531 11.558594 24.042969 11.355469 24.347656 11.367188 C 24.652344 11.375 24.917969 11.574219 24.992188 11.871094 L 26.84375 18.566406 L 35.039062 18.566406 C 38.429688 14.832031 38.316406 9.011719 34.71875 5.414062 Z M 25.648438 19.4375 L 24.261719 14.445312 L 21.90625 21.621094 C 21.8125 21.90625 21.554688 22.097656 21.261719 22.097656 L 21.253906 22.097656 C 20.957031 22.097656 20.703125 21.917969 20.597656 21.632812 L 19.371094 18.148438 L 17.625 25.242188 C 17.546875 25.542969 17.28125 25.761719 16.96875 25.761719 L 16.949219 25.761719 C 16.648438 25.761719 16.371094 25.5625 16.285156 25.269531 L 13.277344 14.976562 L 12.429688 19.382812 C 12.363281 19.703125 12.078125 19.941406 11.757812 19.941406 L 3.816406 19.941406 L 18.746094 34.871094 L 32.230469 21.386719 L 33.671875 19.941406 L 26.304688 19.941406 C 26 19.941406 25.734375 19.734375 25.648438 19.4375 Z M 25.648438 19.4375 " fill-opacity="1" fill-rule="nonzero"/></g></svg>