<svg xmlns="http://www.w3.org/2000/svg" xmlns:xlink="http://www.w3.org/1999/xlink" width="50" zoomAndPan="magnify" viewBox="0 0 37.5 37.499999" height="50" preserveAspectRatio="xMidYMid meet" version="1.0"><defs><clipPath id="id1"><path d="M 0.0195312 0.773438 L 37.007812 0.773438 L 37.007812 36.773438 L 0.0195312 36.773438 Z M 0.0195312 0.773438 " clip-rule="nonzero"/></clipPath></defs><g clip-path="url(#id1)"><path fill="rgb(0%, 68.629456%, 43.919373%)" d="M 7.605469 33.585938 C 8.777344 34.421875 10.039062 35.117188 11.359375 35.648438 C 12.671875 36.179688 14.046875 36.550781 15.445312 36.753906 C 16.308594 36.882812 17.121094 36.304688 17.289062 35.445312 L 17.8125 32.753906 C 17.898438 32.308594 17.800781 31.851562 17.539062 31.484375 C 17.429688 31.335938 17.300781 31.207031 17.15625 31.105469 C 16.941406 30.953125 16.691406 30.851562 16.429688 30.816406 C 14.484375 30.550781 12.6875 29.835938 11.085938 28.691406 C 5.671875 24.832031 4.402344 17.277344 8.261719 11.855469 C 12.117188 6.433594 19.660156 5.164062 25.074219 9.027344 C 26.699219 10.183594 27.988281 11.699219 28.863281 13.460938 L 28.476562 13.59375 C 27.894531 13.785156 27.46875 14.292969 27.375 14.902344 C 27.285156 15.515625 27.542969 16.125 28.046875 16.480469 L 33.109375 20.09375 C 33.539062 20.402344 34.089844 20.480469 34.589844 20.308594 C 35.085938 20.140625 35.472656 19.738281 35.625 19.234375 L 37.414062 13.332031 C 37.589844 12.746094 37.425781 12.109375 36.988281 11.683594 C 36.929688 11.625 36.863281 11.570312 36.796875 11.523438 C 36.375 11.222656 35.832031 11.136719 35.328125 11.304688 L 34.601562 11.546875 C 33.300781 8.582031 31.234375 6.042969 28.558594 4.132812 C 24.628906 1.328125 19.84375 0.226562 15.089844 1.027344 C 10.332031 1.828125 6.171875 4.433594 3.371094 8.367188 C 0.574219 12.304688 -0.527344 17.09375 0.273438 21.855469 C 1.070312 26.617188 3.675781 30.785156 7.605469 33.585938 Z M 8.554688 32.253906 C 4.980469 29.703125 2.613281 25.914062 1.886719 21.585938 C 1.160156 17.253906 2.160156 12.898438 4.707031 9.320312 C 7.25 5.742188 11.035156 3.371094 15.359375 2.644531 C 19.683594 1.917969 24.035156 2.917969 27.609375 5.46875 C 30.460938 7.503906 32.546875 10.332031 33.640625 13.59375 L 35.847656 12.859375 L 34.0625 18.757812 L 28.996094 15.144531 L 31.125 14.433594 L 31.019531 14.390625 C 30.125 11.777344 28.4375 9.414062 26.023438 7.691406 C 19.875 3.304688 11.308594 4.746094 6.925781 10.90625 C 2.546875 17.0625 3.984375 25.640625 10.136719 30.027344 C 12 31.355469 14.082031 32.148438 16.207031 32.441406 L 15.683594 35.132812 C 13.140625 34.761719 10.707031 33.789062 8.554688 32.253906 " fill-opacity="1" fill-rule="nonzero"/></g><path fill="rgb(0.779724%, 78.819275%, 15.289307%)" d="M 23.027344 27.699219 L 21.347656 27.699219 C 21.457031 27.574219 21.589844 27.429688 21.738281 27.273438 C 22.011719 26.984375 22.25 26.71875 22.441406 26.488281 C 22.636719 26.25 22.789062 26.042969 22.886719 25.867188 C 22.996094 25.675781 23.082031 25.46875 23.136719 25.253906 C 23.191406 25.039062 23.21875 24.800781 23.21875 24.554688 C 23.21875 24.277344 23.179688 24.015625 23.101562 23.78125 C 23.023438 23.539062 22.90625 23.324219 22.757812 23.144531 C 22.605469 22.960938 22.414062 22.816406 22.191406 22.710938 C 21.96875 22.605469 21.714844 22.554688 21.433594 22.554688 C 21.167969 22.554688 20.925781 22.609375 20.703125 22.71875 C 20.484375 22.828125 20.292969 22.980469 20.132812 23.179688 C 19.972656 23.371094 19.847656 23.609375 19.753906 23.878906 C 19.660156 24.144531 19.601562 24.445312 19.582031 24.769531 C 19.578125 24.828125 19.597656 24.882812 19.636719 24.925781 C 19.675781 24.96875 19.730469 24.992188 19.785156 24.992188 L 20.703125 24.992188 C 20.808594 24.992188 20.898438 24.90625 20.90625 24.792969 C 20.914062 24.636719 20.9375 24.496094 20.972656 24.378906 C 21.007812 24.261719 21.054688 24.167969 21.105469 24.097656 C 21.148438 24.03125 21.199219 23.984375 21.253906 23.957031 C 21.308594 23.925781 21.363281 23.914062 21.421875 23.914062 C 21.578125 23.914062 21.691406 23.957031 21.769531 24.054688 C 21.855469 24.164062 21.898438 24.324219 21.898438 24.535156 C 21.898438 24.683594 21.882812 24.820312 21.851562 24.941406 C 21.816406 25.058594 21.761719 25.183594 21.683594 25.308594 C 21.597656 25.441406 21.488281 25.585938 21.347656 25.742188 C 21.203125 25.902344 21.023438 26.09375 20.8125 26.304688 C 20.570312 26.550781 20.363281 26.78125 20.195312 26.984375 C 20.023438 27.195312 19.886719 27.390625 19.792969 27.566406 C 19.589844 27.949219 19.488281 28.414062 19.488281 28.949219 C 19.488281 29.066406 19.578125 29.160156 19.691406 29.160156 L 23.027344 29.160156 C 23.140625 29.160156 23.230469 29.066406 23.230469 28.949219 L 23.230469 27.90625 C 23.230469 27.792969 23.140625 27.699219 23.027344 27.699219 " fill-opacity="1" fill-rule="nonzero"/><path fill="rgb(0.779724%, 78.819275%, 15.289307%)" d="M 24.820312 26.363281 L 25.25 25.5625 L 25.25 26.363281 Z M 27.167969 27.582031 L 27.167969 26.574219 C 27.167969 26.457031 27.078125 26.363281 26.964844 26.363281 L 26.550781 26.363281 L 26.550781 22.785156 C 26.550781 22.667969 26.457031 22.574219 26.347656 22.574219 L 25.648438 22.574219 C 25.574219 22.574219 25.503906 22.617188 25.46875 22.679688 L 23.316406 26.597656 C 23.300781 26.628906 23.292969 26.664062 23.292969 26.699219 L 23.292969 27.582031 C 23.292969 27.699219 23.382812 27.792969 23.496094 27.792969 L 25.25 27.792969 L 25.25 28.949219 C 25.25 29.066406 25.339844 29.160156 25.453125 29.160156 L 26.347656 29.160156 C 26.457031 29.160156 26.550781 29.066406 26.550781 28.949219 L 26.550781 27.792969 L 26.964844 27.792969 C 27.078125 27.792969 27.167969 27.699219 27.167969 27.582031 " fill-opacity="1" fill-rule="nonzero"/><path fill="rgb(0.779724%, 78.819275%, 15.289307%)" d="M 29.347656 22.652344 L 28.582031 22.652344 C 28.488281 22.652344 28.40625 22.71875 28.382812 22.8125 L 26.972656 28.902344 C 26.957031 28.964844 26.972656 29.027344 27.011719 29.078125 C 27.050781 29.128906 27.109375 29.160156 27.171875 29.160156 L 27.9375 29.160156 C 28.035156 29.160156 28.117188 29.089844 28.136719 28.996094 L 29.546875 22.910156 C 29.5625 22.847656 29.546875 22.78125 29.507812 22.730469 C 29.46875 22.683594 29.410156 22.652344 29.347656 22.652344 " fill-opacity="1" fill-rule="nonzero"/><path fill="rgb(0.779724%, 78.819275%, 15.289307%)" d="M 33.128906 22.652344 L 29.859375 22.652344 C 29.746094 22.652344 29.652344 22.746094 29.652344 22.863281 L 29.652344 23.902344 C 29.652344 24.015625 29.746094 24.109375 29.859375 24.109375 L 31.851562 24.109375 L 30.238281 28.882812 C 30.214844 28.945312 30.226562 29.015625 30.261719 29.070312 C 30.300781 29.125 30.363281 29.160156 30.429688 29.160156 L 31.410156 29.160156 C 31.5 29.160156 31.578125 29.101562 31.605469 29.015625 L 33.324219 23.652344 C 33.328125 23.632812 33.332031 23.609375 33.332031 23.589844 L 33.332031 22.863281 C 33.332031 22.746094 33.242188 22.652344 33.128906 22.652344 " fill-opacity="1" fill-rule="nonzero"/><path fill="rgb(0.779724%, 78.819275%, 15.289307%)" d="M 28.082031 4.800781 C 24.332031 2.125 19.765625 1.070312 15.222656 1.835938 C 10.683594 2.601562 6.710938 5.089844 4.039062 8.84375 C 1.367188 12.601562 0.316406 17.171875 1.078125 21.71875 C 1.84375 26.265625 4.328125 30.246094 8.078125 32.917969 C 10.335938 34.53125 12.855469 35.546875 15.5625 35.945312 C 15.996094 36.007812 16.402344 35.71875 16.484375 35.289062 L 17.011719 32.597656 C 17.054688 32.375 17.003906 32.144531 16.871094 31.960938 C 16.820312 31.886719 16.753906 31.824219 16.679688 31.773438 C 16.574219 31.695312 16.449219 31.644531 16.316406 31.628906 C 14.273438 31.347656 12.296875 30.5625 10.609375 29.359375 C 4.828125 25.234375 3.476562 17.171875 7.59375 11.378906 C 11.710938 5.589844 19.769531 4.234375 25.550781 8.359375 C 27.542969 9.78125 29.0625 11.703125 29.984375 13.953125 L 28.734375 14.367188 C 28.445312 14.464844 28.230469 14.71875 28.183594 15.023438 C 28.140625 15.332031 28.269531 15.636719 28.519531 15.8125 L 33.585938 19.425781 C 33.800781 19.578125 34.074219 19.621094 34.324219 19.535156 C 34.574219 19.449219 34.765625 19.25 34.84375 18.996094 L 36.632812 13.09375 C 36.71875 12.800781 36.636719 12.484375 36.417969 12.269531 C 36.386719 12.242188 36.355469 12.214844 36.324219 12.191406 C 36.113281 12.039062 35.839844 11.996094 35.589844 12.082031 L 34.136719 12.566406 C 32.925781 9.441406 30.84375 6.769531 28.082031 4.800781 " fill-opacity="1" fill-rule="nonzero"/><path fill="rgb(0%, 68.629456%, 43.919373%)" d="M 35.167969 29.683594 C 35.066406 29.683594 34.960938 29.683594 34.855469 29.683594 C 34.402344 29.683594 33.945312 29.683594 33.488281 29.683594 C 31.898438 29.683594 30.308594 29.683594 28.71875 29.683594 C 25.386719 29.683594 22.050781 29.683594 18.714844 29.683594 C 18.378906 29.683594 18.042969 29.683594 17.707031 29.683594 C 17.679688 29.683594 17.652344 29.683594 17.628906 29.683594 C 17.582031 29.683594 17.527344 29.667969 17.519531 29.660156 C 17.441406 29.601562 17.449219 29.578125 17.449219 29.519531 C 17.449219 29.46875 17.449219 29.417969 17.449219 29.363281 C 17.449219 27.917969 17.449219 26.46875 17.449219 25.019531 C 17.449219 24.253906 17.449219 23.484375 17.449219 22.714844 C 17.449219 22.496094 17.449219 22.277344 17.449219 22.058594 C 17.449219 22.011719 17.449219 21.964844 17.449219 21.917969 C 17.449219 21.851562 17.480469 21.796875 17.507812 21.78125 C 17.574219 21.738281 17.570312 21.75 17.617188 21.75 C 17.648438 21.75 17.679688 21.75 17.710938 21.75 C 17.839844 21.75 17.96875 21.75 18.097656 21.75 C 18.59375 21.75 19.09375 21.75 19.589844 21.75 C 23.101562 21.75 26.613281 21.75 30.125 21.75 C 31.515625 21.75 32.910156 21.75 34.304688 21.75 C 34.589844 21.75 34.878906 21.75 35.164062 21.75 C 35.179688 21.75 35.195312 21.75 35.207031 21.75 C 35.210938 21.75 35.308594 21.777344 35.300781 21.769531 C 35.335938 21.800781 35.347656 21.804688 35.351562 21.804688 C 35.347656 21.804688 35.339844 21.804688 35.371094 21.863281 C 35.332031 21.792969 35.371094 21.960938 35.371094 21.894531 C 35.371094 22 35.371094 22.105469 35.371094 22.210938 C 35.371094 24.648438 35.371094 27.089844 35.371094 29.527344 C 35.363281 29.644531 35.308594 29.683594 35.167969 29.683594 Z M 36.667969 21.972656 C 36.667969 21.164062 36.03125 20.53125 35.160156 20.53125 C 34.859375 20.53125 34.558594 20.53125 34.257812 20.53125 C 32.847656 20.53125 31.4375 20.53125 30.027344 20.53125 C 26.527344 20.53125 23.023438 20.53125 19.523438 20.53125 C 19.039062 20.53125 18.550781 20.53125 18.066406 20.53125 C 17.6875 20.53125 17.339844 20.515625 16.980469 20.667969 C 16.464844 20.886719 16.152344 21.398438 16.152344 21.925781 C 16.152344 22.078125 16.152344 22.234375 16.152344 22.390625 C 16.152344 23.089844 16.152344 23.789062 16.152344 24.488281 C 16.152344 26.039062 16.152344 27.589844 16.152344 29.140625 C 16.152344 29.265625 16.152344 29.394531 16.152344 29.519531 C 16.152344 30.167969 16.660156 30.78125 17.359375 30.875 C 17.617188 30.910156 17.878906 30.898438 18.140625 30.898438 C 21.25 30.898438 24.359375 30.898438 27.46875 30.898438 C 30.039062 30.898438 32.605469 30.898438 35.175781 30.898438 C 35.964844 30.898438 36.566406 30.359375 36.65625 29.648438 C 36.660156 29.613281 36.667969 29.578125 36.667969 29.539062 C 36.667969 27.015625 36.667969 24.492188 36.667969 21.972656 " fill-opacity="1" fill-rule="nonzero"/></svg>