<svg xmlns="http://www.w3.org/2000/svg" xmlns:xlink="http://www.w3.org/1999/xlink" width="50" zoomAndPan="magnify" viewBox="0 0 37.5 37.499999" height="50" preserveAspectRatio="xMidYMid meet" version="1.0"><defs><clipPath id="id1"><path d="M 0 17 L 37.007812 17 L 37.007812 34.898438 L 0 34.898438 Z M 0 17 " clip-rule="nonzero"/></clipPath><clipPath id="id2"><path d="M 12 2.648438 L 29 2.648438 L 29 31 L 12 31 Z M 12 2.648438 " clip-rule="nonzero"/></clipPath></defs><path fill="rgb(0.779724%, 78.819275%, 15.289307%)" d="M 18.136719 10.265625 C 18.136719 9.621094 17.609375 9.09375 16.964844 9.09375 L 15.796875 9.09375 C 15.152344 9.09375 14.625 9.621094 14.625 10.265625 L 14.625 11.4375 C 14.625 12.082031 15.152344 12.609375 15.796875 12.609375 L 16.964844 12.609375 C 17.609375 12.609375 18.136719 12.082031 18.136719 11.4375 Z M 15.796875 11.40625 L 15.796875 10.234375 L 16.964844 10.234375 L 16.964844 11.40625 Z M 15.796875 11.40625 " fill-opacity="1" fill-rule="nonzero"/><path fill="rgb(0.779724%, 78.819275%, 15.289307%)" d="M 22.816406 10.265625 C 22.816406 9.621094 22.289062 9.09375 21.644531 9.09375 L 20.476562 9.09375 C 19.832031 9.09375 19.304688 9.621094 19.304688 10.265625 L 19.304688 11.4375 C 19.304688 12.082031 19.832031 12.609375 20.476562 12.609375 L 21.644531 12.609375 C 22.289062 12.609375 22.816406 12.082031 22.816406 11.4375 Z M 20.476562 11.40625 L 20.476562 10.234375 L 21.644531 10.234375 L 21.644531 11.40625 Z M 20.476562 11.40625 " fill-opacity="1" fill-rule="nonzero"/><path fill="rgb(0.779724%, 78.819275%, 15.289307%)" d="M 18.136719 14.921875 C 18.136719 14.277344 17.609375 13.75 16.964844 13.75 L 15.796875 13.75 C 15.152344 13.75 14.625 14.277344 14.625 14.921875 L 14.625 16.09375 C 14.625 16.738281 15.152344 17.265625 15.796875 17.265625 L 16.964844 17.265625 C 17.609375 17.265625 18.136719 16.738281 18.136719 16.09375 Z M 15.796875 16.09375 L 15.796875 14.921875 L 16.964844 14.921875 L 16.964844 16.09375 Z M 15.796875 16.09375 " fill-opacity="1" fill-rule="nonzero"/><path fill="rgb(0.779724%, 78.819275%, 15.289307%)" d="M 22.816406 14.921875 C 22.816406 14.277344 22.289062 13.75 21.644531 13.75 L 20.476562 13.75 C 19.832031 13.75 19.304688 14.277344 19.304688 14.921875 L 19.304688 16.09375 C 19.304688 16.738281 19.832031 17.265625 20.476562 17.265625 L 21.644531 17.265625 C 22.289062 17.265625 22.816406 16.738281 22.816406 16.09375 Z M 20.476562 16.09375 L 20.476562 14.921875 L 21.644531 14.921875 L 21.644531 16.09375 Z M 20.476562 16.09375 " fill-opacity="1" fill-rule="nonzero"/><path fill="rgb(0.779724%, 78.819275%, 15.289307%)" d="M 18.136719 19.578125 C 18.136719 18.933594 17.609375 18.40625 16.964844 18.40625 L 15.796875 18.40625 C 15.152344 18.40625 14.625 18.933594 14.625 19.578125 L 14.625 20.75 C 14.625 21.394531 15.152344 21.921875 15.796875 21.921875 L 16.964844 21.921875 C 17.609375 21.921875 18.136719 21.394531 18.136719 20.75 Z M 15.796875 20.75 L 15.796875 19.578125 L 16.964844 19.578125 L 16.964844 20.75 Z M 15.796875 20.75 " fill-opacity="1" fill-rule="nonzero"/><path fill="rgb(0.779724%, 78.819275%, 15.289307%)" d="M 22.816406 19.578125 C 22.816406 18.933594 22.289062 18.40625 21.644531 18.40625 L 20.476562 18.40625 C 19.832031 18.40625 19.304688 18.933594 19.304688 19.578125 L 19.304688 20.75 C 19.304688 21.394531 19.832031 21.921875 20.476562 21.921875 L 21.644531 21.921875 C 22.289062 21.921875 22.816406 21.394531 22.816406 20.75 Z M 20.476562 20.75 L 20.476562 19.578125 L 21.644531 19.578125 L 21.644531 20.75 Z M 20.476562 20.75 " fill-opacity="1" fill-rule="nonzero"/><path fill="rgb(0.779724%, 78.819275%, 15.289307%)" d="M 21.644531 23.066406 L 20.476562 23.066406 C 19.832031 23.066406 19.304688 23.59375 19.304688 24.234375 L 19.304688 25.40625 C 19.304688 26.050781 19.832031 26.578125 20.476562 26.578125 L 21.644531 26.578125 C 22.289062 26.578125 22.816406 26.050781 22.816406 25.40625 L 22.816406 24.234375 C 22.816406 23.59375 22.289062 23.066406 21.644531 23.066406 Z M 20.476562 25.40625 L 20.476562 24.234375 L 21.644531 24.234375 L 21.644531 25.40625 Z M 20.476562 25.40625 " fill-opacity="1" fill-rule="nonzero"/><path fill="rgb(0.779724%, 78.819275%, 15.289307%)" d="M 5.878906 21.132812 C 5.878906 20.164062 5.089844 19.375 4.125 19.375 C 3.160156 19.375 2.371094 20.164062 2.371094 21.132812 C 2.371094 22.097656 3.160156 22.890625 4.125 22.890625 C 5.089844 22.890625 5.878906 22.097656 5.878906 21.132812 Z M 3.539062 21.132812 C 3.539062 20.808594 3.804688 20.546875 4.125 20.546875 C 4.445312 20.546875 4.710938 20.808594 4.710938 21.132812 C 4.710938 21.453125 4.445312 21.71875 4.125 21.71875 C 3.804688 21.71875 3.539062 21.453125 3.539062 21.132812 Z M 3.539062 21.132812 " fill-opacity="1" fill-rule="nonzero"/><g clip-path="url(#id1)"><path fill="rgb(0.779724%, 78.819275%, 15.289307%)" d="M 33.375 22.304688 C 31.121094 22.304688 29.28125 24.0625 29.28125 26.226562 C 29.28125 27.867188 31.328125 30.828125 32.234375 32.058594 C 29.339844 33.023438 24.6875 33.757812 18.722656 33.757812 C 17.113281 33.757812 15.589844 33.699219 14.1875 33.609375 C 15.152344 32.292969 16.996094 29.539062 16.996094 27.984375 C 16.996094 25.816406 15.152344 24.0625 12.898438 24.0625 C 10.648438 24.0625 8.804688 25.816406 8.804688 27.984375 C 8.804688 29.449219 10.414062 31.941406 11.410156 33.347656 C 5.296875 32.613281 1.757812 31.003906 1.757812 29.773438 C 1.757812 28.804688 3.921875 27.632812 7.78125 26.785156 C 7.898438 26.316406 8.074219 25.90625 8.308594 25.496094 C 7.402344 25.671875 6.582031 25.847656 5.792969 26.082031 C 6.789062 24.644531 8.21875 22.363281 8.21875 20.984375 C 8.21875 18.816406 6.378906 17.058594 4.125 17.058594 C 1.875 17.058594 0.03125 18.816406 0.03125 20.984375 C 0.03125 22.714844 2.339844 25.964844 3.132812 27.019531 C 1.550781 27.78125 0.585938 28.6875 0.585938 29.742188 C 0.585938 33.082031 9.917969 34.898438 18.691406 34.898438 C 24.308594 34.898438 30.128906 34.167969 33.609375 32.761719 C 33.871094 32.703125 34.105469 32.554688 34.28125 32.320312 C 35.011719 31.324219 37.441406 27.984375 37.441406 26.226562 C 37.46875 24.0625 35.625 22.304688 33.375 22.304688 Z M 1.199219 20.957031 C 1.199219 19.460938 2.515625 18.203125 4.125 18.203125 C 5.734375 18.203125 7.050781 19.433594 7.050781 20.957031 C 7.050781 22.480469 4.125 26.34375 4.125 26.34375 C 4.125 26.34375 1.199219 22.480469 1.199219 20.957031 Z M 9.976562 27.957031 C 9.976562 26.433594 11.292969 25.203125 12.898438 25.203125 C 14.507812 25.203125 15.824219 26.433594 15.824219 27.957031 C 15.824219 29.480469 12.898438 33.347656 12.898438 33.347656 C 12.898438 33.347656 9.976562 29.480469 9.976562 27.957031 Z M 33.375 31.617188 C 33.285156 31.5 30.449219 27.722656 30.449219 26.226562 C 30.449219 24.703125 31.765625 23.476562 33.375 23.476562 C 34.984375 23.476562 36.300781 24.703125 36.300781 26.226562 C 36.300781 27.691406 33.550781 31.414062 33.375 31.617188 Z M 33.375 31.617188 " fill-opacity="1" fill-rule="nonzero"/></g><path fill="rgb(0.779724%, 78.819275%, 15.289307%)" d="M 33.375 24.910156 C 32.410156 24.910156 31.621094 25.699219 31.621094 26.667969 C 31.621094 27.632812 32.410156 28.425781 33.375 28.425781 C 34.339844 28.425781 35.128906 27.632812 35.128906 26.667969 C 35.128906 25.699219 34.339844 24.910156 33.375 24.910156 Z M 33.375 27.253906 C 33.054688 27.253906 32.789062 26.988281 32.789062 26.667969 C 32.789062 26.34375 33.054688 26.082031 33.375 26.082031 C 33.695312 26.082031 33.960938 26.34375 33.960938 26.667969 C 33.960938 26.988281 33.695312 27.253906 33.375 27.253906 Z M 33.375 27.253906 " fill-opacity="1" fill-rule="nonzero"/><path fill="rgb(0.779724%, 78.819275%, 15.289307%)" d="M 16.964844 23.066406 L 15.796875 23.066406 C 15.503906 23.066406 15.269531 23.152344 15.066406 23.328125 C 15.589844 23.5625 16.058594 23.855469 16.46875 24.234375 L 16.964844 24.234375 L 16.964844 24.734375 C 17.316406 25.171875 17.609375 25.640625 17.8125 26.167969 C 18.019531 25.964844 18.136719 25.699219 18.136719 25.378906 L 18.136719 24.207031 C 18.136719 23.59375 17.609375 23.066406 16.964844 23.066406 Z M 16.964844 23.066406 " fill-opacity="1" fill-rule="nonzero"/><path fill="rgb(0.779724%, 78.819275%, 15.289307%)" d="M 12.898438 26.375 C 11.933594 26.375 11.144531 27.164062 11.144531 28.132812 C 11.144531 29.097656 11.933594 29.890625 12.898438 29.890625 C 13.867188 29.890625 14.65625 29.097656 14.65625 28.132812 C 14.65625 27.164062 13.867188 26.375 12.898438 26.375 Z M 12.898438 28.6875 C 12.578125 28.6875 12.316406 28.425781 12.316406 28.101562 C 12.316406 27.78125 12.578125 27.515625 12.898438 27.515625 C 13.222656 27.515625 13.484375 27.78125 13.484375 28.101562 C 13.484375 28.453125 13.222656 28.6875 12.898438 28.6875 Z M 12.898438 28.6875 " fill-opacity="1" fill-rule="nonzero"/><g clip-path="url(#id2)"><path fill="rgb(0.779724%, 78.819275%, 15.289307%)" d="M 24.570312 30.066406 C 24.890625 30.066406 25.15625 29.800781 25.15625 29.480469 L 25.15625 26.050781 C 26.207031 26.167969 27.203125 26.285156 28.109375 26.460938 C 28.109375 26.082031 28.167969 25.671875 28.257812 25.320312 C 27.261719 25.144531 26.238281 25.027344 25.15625 24.910156 L 25.15625 7.921875 C 25.15625 7.277344 24.628906 6.75 23.984375 6.75 L 23.402344 6.75 L 23.402344 5.578125 C 23.402344 4.933594 22.875 4.40625 22.230469 4.40625 L 21.9375 4.40625 L 21.9375 3.234375 C 21.9375 2.910156 21.675781 2.648438 21.351562 2.648438 C 21.03125 2.648438 20.769531 2.910156 20.769531 3.234375 L 20.769531 4.40625 L 20.476562 4.40625 C 19.832031 4.40625 19.304688 4.933594 19.304688 5.578125 L 19.304688 6.75 L 18.136719 6.75 L 18.136719 5.578125 C 18.136719 4.933594 17.609375 4.40625 16.964844 4.40625 L 16.671875 4.40625 L 16.671875 3.234375 C 16.671875 2.910156 16.410156 2.648438 16.089844 2.648438 C 15.765625 2.648438 15.503906 2.910156 15.503906 3.234375 L 15.503906 4.40625 L 15.210938 4.40625 C 14.566406 4.40625 14.039062 4.933594 14.039062 5.578125 L 14.039062 6.75 L 13.457031 6.75 C 12.8125 6.75 12.285156 7.277344 12.285156 7.921875 L 12.285156 22.917969 C 12.492188 22.890625 12.695312 22.890625 12.898438 22.890625 C 13.074219 22.890625 13.28125 22.890625 13.457031 22.917969 L 13.457031 7.921875 L 23.984375 7.921875 L 23.984375 29.480469 C 23.984375 29.800781 24.25 30.066406 24.570312 30.066406 Z M 16.964844 6.75 L 15.210938 6.75 L 15.210938 5.578125 L 16.964844 5.578125 Z M 22.230469 6.75 L 20.476562 6.75 L 20.476562 5.578125 L 22.230469 5.578125 Z M 22.230469 6.75 " fill-opacity="1" fill-rule="nonzero"/></g></svg>